<?xml version="1.0" encoding="UTF-8" standalone="no"?>
<svg width="1200" height="400" viewBox="0 0 1200 400" xmlns="http://www.w3.org/2000/svg">
  <defs>
    <linearGradient id="bg-gradient" x1="0%" y1="0%" x2="100%" y2="100%">
      <stop offset="0%" stop-color="#f8fafc" />
      <stop offset="100%" stop-color="#e2e8f0" />
    </linearGradient>
  </defs>
  
  <!-- Background -->
  <rect width="1200" height="400" fill="url(#bg-gradient)" />
  
  <!-- Plowed Field Pattern -->
  <g transform="translate(300, 200)">
    <rect x="0" y="0" width="600" height="150" fill="#92400e" opacity="0.3" rx="5" />
    <path d="M0,30 L600,30" stroke="#7c2d12" stroke-width="2" stroke-opacity="0.5" />
    <path d="M0,60 L600,60" stroke="#7c2d12" stroke-width="2" stroke-opacity="0.5" />
    <path d="M0,90 L600,90" stroke="#7c2d12" stroke-width="2" stroke-opacity="0.5" />
    <path d="M0,120 L600,120" stroke="#7c2d12" stroke-width="2" stroke-opacity="0.5" />
  </g>
  
  <!-- Farming Tools -->
  <g transform="translate(400, 120)">
    <!-- Hoe -->
    <path d="M0,0 L80,80" stroke="#78716c" stroke-width="5" />
    <path d="M0,0 L-20,-10 L-30,5 L-10,15 Z" fill="#64748b" />
    
    <!-- Pitchfork -->
    <g transform="translate(150, 0)">
      <path d="M0,0 L0,85" stroke="#78716c" stroke-width="5" />
      <path d="M0,0 L-15,-40 M0,0 L0,-40 M0,0 L15,-40" stroke="#64748b" stroke-width="4" />
    </g>
    
    <!-- Shovel -->
    <g transform="translate(300, 0)">
      <path d="M0,0 L70,70" stroke="#78716c" stroke-width="5" />
      <path d="M0,0 C-15,-5 -20,-20 -10,-30 C0,-40 15,-35 5,-20 Z" fill="#64748b" />
    </g>
  </g>
  
  <!-- Plants -->
  <g transform="translate(500, 170)">
    <!-- Plant 1 -->
    <path d="M0,30 L0,0 M-10,5 C-5,-5 5,-5 10,5" stroke="#16a34a" stroke-width="2" fill="none" />
    
    <!-- Plant 2 -->
    <g transform="translate(100, 0)">
      <path d="M0,30 L0,0 M-15,10 C-5,-5 5,-5 15,10" stroke="#16a34a" stroke-width="2" fill="none" />
    </g>
    
    <!-- Plant 3 -->
    <g transform="translate(200, 0)">
      <path d="M0,30 L0,-10 M-10,0 C0,-15 0,-15 10,0" stroke="#16a34a" stroke-width="2" fill="none" />
    </g>
  </g>
  
  <!-- Sun Element -->
  <g transform="translate(900, 100)">
    <circle cx="0" cy="0" r="40" fill="#fbbf24" opacity="0.7" />
    <path d="M0,-55 L0,-45 M39,-39 L32,-32 M55,0 L45,0 M39,39 L32,32 M0,55 L0,45 M-39,39 L-32,32 M-55,0 L-45,0 M-39,-39 L-32,-32" 
          stroke="#fbbf24" stroke-width="4" />
  </g>
  
  <!-- Cloud Element -->
  <g transform="translate(250, 80)">
    <path d="M0,20 Q15,0 35,10 Q55,-10 75,5 Q95,-5 110,15 Q90,35 60,30 Q40,45 10,35 Q-5,45 -15,30 Q-10,15 0,20 Z" 
          fill="#cbd5e1" opacity="0.5" />
  </g>
  
  <!-- Decorative elements -->
  <circle cx="200" cy="100" r="80" fill="#16a34a" opacity="0.05" />
  <circle cx="1000" cy="300" r="120" fill="#fbbf24" opacity="0.05" />
</svg>
