<?xml version="1.0" encoding="UTF-8" standalone="no"?>
<svg width="1200" height="400" viewBox="0 0 1200 400" xmlns="http://www.w3.org/2000/svg">
  <defs>
    <linearGradient id="bg-gradient" x1="0%" y1="0%" x2="100%" y2="100%">
      <stop offset="0%" stop-color="#f8fafc" />
      <stop offset="100%" stop-color="#e2e8f0" />
    </linearGradient>
    
    <linearGradient id="wheat-gradient" x1="0%" y1="0%" x2="0%" y2="100%">
      <stop offset="0%" stop-color="#fef3c7" />
      <stop offset="100%" stop-color="#fbbf24" />
    </linearGradient>
  </defs>
  
  <!-- Background -->
  <rect width="1200" height="400" fill="url(#bg-gradient)" />
  
  <!-- Elegant Minimalist Wheat Design -->
  <g transform="translate(600, 200)">
    <!-- Main wheat stalk -->
    <path d="M0,150 L0,-150" stroke="#92400e" stroke-width="3" stroke-linecap="round" />
    
    <!-- Wheat grains - left side -->
    <g>
      <!-- Top left wheat cluster -->
      <path d="M0,-150 L-40,-140 M-40,-140 L-45,-145 M-40,-140 L-43,-135" stroke="#f59e0b" stroke-width="2" stroke-linecap="round" />
      <path d="M0,-130 L-35,-115 M-35,-115 L-40,-120 M-35,-115 L-38,-110" stroke="#f59e0b" stroke-width="2" stroke-linecap="round" />
      <path d="M0,-110 L-30,-90 M-30,-90 L-35,-95 M-30,-90 L-33,-85" stroke="#f59e0b" stroke-width="2" stroke-linecap="round" />
      <path d="M0,-90 L-25,-65 M-25,-65 L-30,-70 M-25,-65 L-28,-60" stroke="#f59e0b" stroke-width="2" stroke-linecap="round" />
      <path d="M0,-70 L-20,-40 M-20,-40 L-25,-45 M-20,-40 L-23,-35" stroke="#f59e0b" stroke-width="2" stroke-linecap="round" />
      <path d="M0,-50 L-15,-15 M-15,-15 L-20,-20 M-15,-15 L-18,-10" stroke="#f59e0b" stroke-width="2" stroke-linecap="round" />
    </g>
    
    <!-- Wheat grains - right side -->
    <g>
      <!-- Top right wheat cluster -->
      <path d="M0,-150 L40,-140 M40,-140 L45,-145 M40,-140 L43,-135" stroke="#f59e0b" stroke-width="2" stroke-linecap="round" />
      <path d="M0,-130 L35,-115 M35,-115 L40,-120 M35,-115 L38,-110" stroke="#f59e0b" stroke-width="2" stroke-linecap="round" />
      <path d="M0,-110 L30,-90 M30,-90 L35,-95 M30,-90 L33,-85" stroke="#f59e0b" stroke-width="2" stroke-linecap="round" />
      <path d="M0,-90 L25,-65 M25,-65 L30,-70 M25,-65 L28,-60" stroke="#f59e0b" stroke-width="2" stroke-linecap="round" />
      <path d="M0,-70 L20,-40 M20,-40 L25,-45 M20,-40 L23,-35" stroke="#f59e0b" stroke-width="2" stroke-linecap="round" />
      <path d="M0,-50 L15,-15 M15,-15 L20,-20 M15,-15 L18,-10" stroke="#f59e0b" stroke-width="2" stroke-linecap="round" />
    </g>
    
    <!-- Top wheat head (the crown) -->
    <path d="M0,-150 C-5,-170 5,-170 0,-150 Z" fill="#f59e0b" />
    <path d="M-3,-155 C-8,-165 -2,-170 -3,-155 Z" fill="#f59e0b" opacity="0.8" />
    <path d="M3,-155 C8,-165 2,-170 3,-155 Z" fill="#f59e0b" opacity="0.8" />
    
    <!-- Ground suggestion -->
    <path d="M-150,150 Q0,140 150,150" stroke="#92400e" stroke-width="2" fill="none" opacity="0.3" />
  </g>
  
  <!-- Subtle decorative elements -->
  <circle cx="200" cy="100" r="80" fill="#f59e0b" opacity="0.05" />
  <circle cx="1000" cy="300" r="120" fill="#92400e" opacity="0.05" />
</svg>
