<?xml version="1.0" encoding="UTF-8" standalone="no"?>
<svg width="1200" height="400" viewBox="0 0 1200 400" xmlns="http://www.w3.org/2000/svg">
  <defs>
    <linearGradient id="bg-gradient" x1="0%" y1="0%" x2="100%" y2="100%">
      <stop offset="0%" stop-color="#f8fafc" />
      <stop offset="100%" stop-color="#e2e8f0" />
    </linearGradient>
    
    <linearGradient id="house-gradient" x1="0%" y1="0%" x2="0%" y2="100%">
      <stop offset="0%" stop-color="#fef3c7" />
      <stop offset="100%" stop-color="#fde68a" />
    </linearGradient>
    
    <linearGradient id="roof-gradient" x1="0%" y1="0%" x2="0%" y2="100%">
      <stop offset="0%" stop-color="#fb923c" />
      <stop offset="100%" stop-color="#ea580c" />
    </linearGradient>
  </defs>
  
  <!-- Background -->
  <rect width="1200" height="400" fill="url(#bg-gradient)" />
  
  <!-- House silhouettes - arranged in the center -->  
  <!-- House 1 (small) -->
  <g transform="translate(450, 200)">
    <path d="M0,-60 L60,0 L-60,0 Z" fill="#fb923c" opacity="0.7" />
    <rect x="-45" y="0" width="90" height="70" fill="#fde68a" opacity="0.7" />
  </g>
  
  <!-- House 2 (medium) -->
  <g transform="translate(600, 200)">
    <path d="M0,-80 L80,0 L-80,0 Z" fill="#fb923c" opacity="0.7" />
    <rect x="-65" y="0" width="130" height="90" fill="#fde68a" opacity="0.7" />
  </g>
  
  <!-- House 3 (small) -->
  <g transform="translate(750, 200)">
    <path d="M0,-60 L60,0 L-60,0 Z" fill="#fb923c" opacity="0.7" />
    <rect x="-45" y="0" width="90" height="70" fill="#fde68a" opacity="0.7" />
  </g>
  
  <!-- Connection line suggesting land/ground - made more subtle -->
  <path d="M350,270 Q600,250 850,270" 
        stroke="#ca8a04" stroke-width="1" fill="none" opacity="0.3" 
        stroke-dasharray="2 3" />
  
  <!-- Subtle decorative elements -->
  <circle cx="200" cy="100" r="80" fill="#f59e0b" opacity="0.05" />
  <circle cx="1000" cy="300" r="120" fill="#ca8a04" opacity="0.05" />
</svg>
