<?xml version="1.0" encoding="UTF-8" standalone="no"?>
<svg width="1200" height="400" viewBox="0 0 1200 400"
    xmlns="http://www.w3.org/2000/svg"
    xmlns:xlink="http://www.w3.org/1999/xlink">
    <defs>
        <!-- Gradients for background and elements -->
        <linearGradient id="bg-gradient" x1="0%" y1="0%" x2="100%" y2="100%">
            <stop offset="0%" stop-color="#0f172a" />
            <stop offset="100%" stop-color="#334155" />
        </linearGradient>

        <linearGradient id="milk-gradient" x1="0%" y1="0%" x2="100%" y2="100%">
            <stop offset="0%" stop-color="#3498db" />
            <stop offset="100%" stop-color="#2980b9" />
        </linearGradient>

        <linearGradient id="milk-product-gradient" x1="0%" y1="0%" x2="100%" y2="100%">
            <stop offset="0%" stop-color="#2ecc71" />
            <stop offset="100%" stop-color="#27ae60" />
        </linearGradient>

        <linearGradient id="egg-gradient" x1="0%" y1="0%" x2="100%" y2="100%">
            <stop offset="0%" stop-color="#f1c40f" />
            <stop offset="100%" stop-color="#f39c12" />
        </linearGradient>

        <linearGradient id="meat-gradient" x1="0%" y1="0%" x2="100%" y2="100%">
            <stop offset="0%" stop-color="#e74c3c" />
            <stop offset="100%" stop-color="#c0392b" />
        </linearGradient>

        <linearGradient id="fish-gradient" x1="0%" y1="0%" x2="100%" y2="100%">
            <stop offset="0%" stop-color="#1abc9c" />
            <stop offset="100%" stop-color="#16a085" />
        </linearGradient>

        <linearGradient id="honey-gradient" x1="0%" y1="0%" x2="100%" y2="100%">
            <stop offset="0%" stop-color="#e67e22" />
            <stop offset="100%" stop-color="#d35400" />
        </linearGradient>

        <linearGradient id="money-gradient" x1="0%" y1="0%" x2="100%" y2="100%">
            <stop offset="0%" stop-color="#2ecc71" />
            <stop offset="100%" stop-color="#27ae60" />
        </linearGradient>

        <!-- Path for curved text at bottom -->
        <path id="curved-text-path" d="M200,350 Q600,280 1000,350" fill="none" />

        <!-- Milk bottle shape -->
        <path id="milk-bottle" d="M30,0 L70,0 L70,20 C80,30 80,40 70,50 L70,90 C70,100 30,100 30,90 L30,50 C20,40 20,30 30,20 Z" />

        <!-- Milk product (cheese) shape -->
        <path id="cheese" d="M0,20 L80,0 L100,80 L20,100 Z" />

        <!-- Egg shape -->
        <path id="egg" d="M50,0 C80,0 80,40 50,70 C20,40 20,0 50,0 Z" />

        <!-- Meat shape -->
        <path id="meat" d="M10,10 L90,10 L90,60 C90,90 10,90 10,60 Z" />

        <!-- Fish shape -->
        <path id="fish" d="M80,40 C90,30 90,50 80,40 M0,40 C30,0 70,0 90,40 C70,80 30,80 0,40 Z" />

        <!-- Honey jar shape -->
        <path id="honey-jar" d="M30,0 L70,0 L70,20 L80,30 L80,100 L20,100 L20,30 L30,20 Z" />

        <!-- Animal products basket -->
        <path id="basket" d="M10,30 C0,50 0,70 30,90 C60,110 90,110 120,90 C150,70 150,50 140,30 L120,50 L30,50 Z" />

        <!-- Cow shape -->
        <path id="cow" d="M10,30 L10,60 L60,60 L60,30 M0,20 L20,10 L40,20 L60,10 L80,20 M60,30 L70,20 L80,30 L80,60 L70,70 L60,60 M10,60 L0,70 L10,80" />

        <!-- Chicken shape -->
        <path id="chicken" d="M50,20 C70,10 80,40 60,50 C80,60 80,80 50,80 C20,80 10,60 20,40 C10,30 30,10 50,20" />

        <!-- Goat shape -->
        <path id="goat" d="M40,20 L60,10 L80,20 M10,30 L70,30 L90,20 L90,50 L70,60 L10,60 L10,30 M0,40 L10,40 M70,30 L70,60" />

        <!-- Sheep shape -->
        <path id="sheep" d="M50,15 C65,15 65,25 50,25 C35,25 35,15 50,15 M30,20 C45,20 45,30 30,30 C15,30 15,20 30,20 M70,20 C85,20 85,30 70,30 C55,30 55,20 70,20 M20,25 L20,60 L80,60 L80,25 M20,60 L10,70 L20,80 M80,60 L90,70 L80,80" />

        <!-- Sack for animal products -->
        <path id="product-sack" d="M10,30 C0,20 0,0 25,0 C50,0 50,20 40,30 L40,90 C40,110 10,110 10,90 Z" />

        <!-- Rupee symbol -->
        <path id="rupee-symbol" d="M0,0 L30,0 L30,10 L20,10 L30,30 L0,30 L0,20 L10,20 L0,0 Z" />

        <!-- Market stall -->
        <path id="market-stall" d="M0,20 L100,20 L90,0 L10,0 Z M10,20 L10,70 L90,70 L90,20 Z M0,20 L0,80 L100,80 L100,20 Z" />

        <!-- Farmer -->
        <path id="farmer" d="M25,10 C25,4.5 29.5,0 35,0 C40.5,0 45,4.5 45,10 C45,15.5 40.5,20 35,20 C29.5,20 25,15.5 25,10 Z M15,45 C15,25 55,25 55,45 L55,80 L45,80 L45,60 L35,80 L25,60 L25,80 L15,80 Z" />

        <!-- Farm shape -->
        <path id="farm" d="M0,0 L100,0 L100,60 L0,60 Z" />

        <!-- Pie chart segment -->
        <path id="pie-segment-25" d="M50,50 L50,0 A50,50 0 0,1 85,15 Z" />
        <path id="pie-segment-50" d="M50,50 L50,0 A50,50 0 0,1 100,50 Z" />
        <path id="pie-segment-75" d="M50,50 L50,0 A50,50 0 0,1 50,100 Z" />

        <!-- Product type bubble -->
        <path id="product-bubble" d="M0,0 Q5,-15 20,-15 L80,-15 Q95,-15 100,0 L100,40 Q100,55 85,55 L60,55 L45,70 L30,55 L15,55 Q0,55 0,40 Z" />

        <!-- Grid pattern for background -->
        <pattern id="grid-pattern" x="0" y="0" width="40" height="40" patternUnits="userSpaceOnUse">
            <path d="M0,0 L40,0 L40,40 L0,40 Z" fill="none" stroke="#1e293b" stroke-width="0.5" opacity="0.3" />
        </pattern>
    </defs>

    <!-- Background with gradient and grid -->
    <rect width="1200" height="400" fill="url(#bg-gradient)" />
    <rect width="1200" height="400" fill="url(#grid-pattern)" />

    <!-- Decorative elements -->
    <g opacity="0.1">
        <circle cx="150" cy="80" r="40" fill="white" />
        <circle cx="1050" cy="100" r="50" fill="white" />
        <circle cx="600" cy="50" r="30" fill="white" />
        <circle cx="100" cy="320" r="35" fill="white" />
        <circle cx="1100" cy="300" r="45" fill="white" />
    </g>

    <!-- Animated clouds -->
    <g opacity="0.3">
        <path d="M100,70 Q120,50 150,60 Q170,40 200,50 Q220,30 250,50 Q230,70 200,65 Q180,75 150,70 Q130,80 100,70 Z" fill="white">
            <animate attributeName="d" values="M100,70 Q120,50 150,60 Q170,40 200,50 Q220,30 250,50 Q230,70 200,65 Q180,75 150,70 Q130,80 100,70 Z;
                                        M110,70 Q130,50 160,60 Q180,40 210,50 Q230,30 260,50 Q240,70 210,65 Q190,75 160,70 Q140,80 110,70 Z;
                                        M100,70 Q120,50 150,60 Q170,40 200,50 Q220,30 250,50 Q230,70 200,65 Q180,75 150,70 Q130,80 100,70 Z" dur="20s" repeatCount="indefinite" />
        </path>

        <path d="M700,50 Q730,30 760,45 Q780,20 810,40 Q790,60 760,55 Q740,65 700,50 Z" fill="white">
            <animate attributeName="d" values="M700,50 Q730,30 760,45 Q780,20 810,40 Q790,60 760,55 Q740,65 700,50 Z;
                                        M710,50 Q740,30 770,45 Q790,20 820,40 Q800,60 770,55 Q750,65 710,50 Z;
                                        M700,50 Q730,30 760,45 Q780,20 810,40 Q790,60 760,55 Q740,65 700,50 Z" dur="15s" repeatCount="indefinite" />
        </path>

        <path d="M400,90 Q430,60 460,80 Q480,50 510,70 Q490,100 460,90 Q440,110 400,90 Z" fill="white">
            <animate attributeName="d" values="M400,90 Q430,60 460,80 Q480,50 510,70 Q490,100 460,90 Q440,110 400,90 Z;
                                        M390,90 Q420,60 450,80 Q470,50 500,70 Q480,100 450,90 Q430,110 390,90 Z;
                                        M400,90 Q430,60 460,80 Q480,50 510,70 Q490,100 460,90 Q440,110 400,90 Z" dur="18s" repeatCount="indefinite" />
        </path>
    </g>

    <!-- Sun -->
    <g transform="translate(900, 60)">
        <circle cx="0" cy="0" r="30" fill="#f39c12" opacity="0.7" />
        <g opacity="0.7">
            <path d="M0,-40 L0,-35 M28,-28 L25,-25 M40,0 L35,0 M28,28 L25,25 M0,40 L0,35 M-28,28 L-25,25 M-40,0 L-35,0 M-28,-28 L-25,-25" stroke="#f39c12" stroke-width="3" />
        </g>
    </g>

    <!-- Main animal products visualization section -->
    <!-- Milk -->
    <g transform="translate(100, 100)">
        <g transform="scale(0.8)">
            <use href="#milk-bottle" fill="url(#milk-gradient)" />
            <!-- Milk bottle details -->
            <path d="M40,35 L60,35 M40,50 L60,50 M40,65 L60,65 M40,80 L60,80" stroke="white" stroke-width="1" opacity="0.7" />
        </g>
        <g transform="translate(10, 90) scale(1)">
            <use href="#product-bubble" fill="url(#milk-gradient)" />
            <text x="50" y="25" font-family="Arial" font-size="14" fill="white" text-anchor="middle">दुध</text>
        </g>
    </g>

    <!-- Milk Products -->
    <g transform="translate(240, 100)">
        <g transform="scale(0.8)">
            <use href="#cheese" fill="url(#milk-product-gradient)" />
            <!-- Cheese details -->
            <path d="M30,20 L50,15 M20,40 L40,35 M10,60 L30,55 M40,50 L60,45 M30,70 L50,65" stroke="white" stroke-width="1" opacity="0.7" />
        </g>
        <g transform="translate(10, 90) scale(1)">
            <use href="#product-bubble" fill="url(#milk-product-gradient)" />
            <text x="50" y="25" font-family="Arial" font-size="14" fill="white" text-anchor="middle">दुधजन्य वस्तु</text>
        </g>
    </g>

    <!-- Eggs -->
    <g transform="translate(380, 100)">
        <g transform="scale(0.8)">
            <use href="#egg" fill="url(#egg-gradient)" />
            <!-- Egg details -->
            <ellipse cx="50" cy="30" rx="30" ry="20" fill="none" stroke="white" stroke-width="1" opacity="0.5" />
        </g>
        <g transform="translate(10, 90) scale(1)">
            <use href="#product-bubble" fill="url(#egg-gradient)" />
            <text x="50" y="25" font-family="Arial" font-size="14" fill="white" text-anchor="middle">अण्डा</text>
        </g>
    </g>

    <!-- Meat -->
    <g transform="translate(520, 100)">
        <g transform="scale(0.8)">
            <use href="#meat" fill="url(#meat-gradient)" />
            <!-- Meat details -->
            <path d="M30,20 L70,20 M20,30 L80,30 M30,40 L70,40 M25,50 L75,50 M35,60 L65,60 M40,70 L60,70" stroke="white" stroke-width="1" opacity="0.5" />
        </g>
        <g transform="translate(10, 90) scale(1)">
            <use href="#product-bubble" fill="url(#meat-gradient)" />
            <text x="50" y="25" font-family="Arial" font-size="14" fill="white" text-anchor="middle">मासु</text>
        </g>
    </g>

    <!-- Fish -->
    <g transform="translate(660, 100)">
        <g transform="scale(0.8)">
            <use href="#fish" fill="url(#fish-gradient)" />
            <!-- Fish details -->
            <circle cx="20" cy="30" r="5" fill="white" opacity="0.7" />
            <path d="M30,40 C50,30 50,50 30,40" stroke="white" stroke-width="1" fill="none" />
        </g>
        <g transform="translate(10, 90) scale(1)">
            <use href="#product-bubble" fill="url(#fish-gradient)" />
            <text x="50" y="25" font-family="Arial" font-size="14" fill="white" text-anchor="middle">माछा</text>
        </g>
    </g>

    <!-- Honey -->
    <g transform="translate(800, 100)">
        <g transform="scale(0.8)">
            <use href="#honey-jar" fill="url(#honey-gradient)" />
            <!-- Honey jar details -->
            <path d="M40,40 L60,40 M35,60 L65,60 M30,80 L70,80" stroke="#f39c12" stroke-width="2" opacity="0.7" />
        </g>
        <g transform="translate(10, 90) scale(1)">
            <use href="#product-bubble" fill="url(#honey-gradient)" />
            <text x="50" y="25" font-family="Arial" font-size="14" fill="white" text-anchor="middle">मह</text>
        </g>
    </g>

    <!-- Other animal products -->
    <g transform="translate(940, 100)">
        <g transform="scale(0.8)">
            <rect x="10" y="10" width="80" height="80" rx="5" fill="#7f8c8d" />
            <!-- Other products details -->
            <circle cx="30" cy="30" r="10" fill="#95a5a6" />
            <circle cx="70" cy="30" r="15" fill="#95a5a6" />
            <circle cx="30" cy="70" r="15" fill="#95a5a6" />
            <circle cx="70" cy="70" r="10" fill="#95a5a6" />
        </g>
        <g transform="translate(10, 90) scale(1)">
            <use href="#product-bubble" fill="#7f8c8d" />
            <text x="50" y="25" font-family="Arial" font-size="14" fill="white" text-anchor="middle">अन्य</text>
        </g>
    </g>

    <!-- Production and sales visualization -->
    <!-- Production pie chart -->
    <g transform="translate(200, 230)">
        <circle cx="60" cy="60" r="50" fill="#212f3d" stroke="#fff" stroke-width="1" opacity="0.8" />
        <!-- Pie segments (representing different animal products) -->
        <path d="M60,60 L60,10 A50,50 0 0,1 107,77 Z" fill="url(#milk-gradient)" />
        <!-- Milk: 55% -->
        <path d="M60,60 L107,77 A50,50 0 0,1 80,106 Z" fill="url(#meat-gradient)" />
        <!-- Meat: 15% -->
        <path d="M60,60 L80,106 A50,50 0 0,1 22,85 Z" fill="url(#egg-gradient)" />
        <!-- Eggs: 20% -->
        <path d="M60,60 L22,85 A50,50 0 0,1 60,10 Z" fill="#7f8c8d" />
        <!-- Others: 10% -->

        <circle cx="60" cy="60" r="20" fill="#212f3d" />
        <text x="60" y="65" font-family="Arial" font-size="10" fill="white" text-anchor="middle">उत्पादन</text>
    </g>

    <!-- Sales pie chart -->
    <g transform="translate(400, 230)">
        <circle cx="60" cy="60" r="50" fill="#212f3d" stroke="#fff" stroke-width="1" opacity="0.8" />
        <!-- Pie segments (representing different animal products) -->
        <path d="M60,60 L60,10 A50,50 0 0,1 110,60 Z" fill="url(#milk-gradient)" />
        <!-- Milk: 25% -->
        <path d="M60,60 L110,60 A50,50 0 0,1 60,110 Z" fill="url(#meat-gradient)" />
        <!-- Meat: 25% -->
        <path d="M60,60 L60,110 A50,50 0 0,1 10,60 Z" fill="url(#egg-gradient)" />
        <!-- Eggs: 25% -->
        <path d="M60,60 L10,60 A50,50 0 0,1 60,10 Z" fill="#7f8c8d" />
        <!-- Others: 25% -->

        <circle cx="60" cy="60" r="20" fill="#212f3d" />
        <text x="60" y="65" font-family="Arial" font-size="10" fill="white" text-anchor="middle">बिक्री</text>
    </g>

    <!-- Revenue chart -->
    <g transform="translate(600, 230)">
        <rect x="20" y="20" width="30" height="80" fill="url(#milk-gradient)" />
        <rect x="60" y="40" width="30" height="60" fill="url(#meat-gradient)" />
        <rect x="100" y="70" width="30" height="30" fill="url(#egg-gradient)" />

        <text x="35" y="110" font-family="Arial" font-size="10" fill="white" text-anchor="middle">दुध</text>
        <text x="75" y="110" font-family="Arial" font-size="10" fill="white" text-anchor="middle">मासु</text>
        <text x="115" y="110" font-family="Arial" font-size="10" fill="white" text-anchor="middle">अण्डा</text>

        <text x="75" y="130" font-family="Arial" font-size="14" fill="white" text-anchor="middle">आम्दानी (रु)</text>
    </g>

    <!-- Self-consumption vs. Sales visualization -->
    <g transform="translate(800, 230)">
        <rect x="20" y="20" width="120" height="30" fill="#3498db" opacity="0.8" />
        <rect x="20" y="60" width="70" height="30" fill="#2ecc71" opacity="0.8" />

        <text x="80" y="40" font-family="Arial" font-size="12" fill="white" text-anchor="middle">कुल उत्पादन</text>
        <text x="55" y="80" font-family="Arial" font-size="12" fill="white" text-anchor="middle">बिक्री</text>

        <path d="M20,110 L140,110" stroke="white" stroke-width="1" />
        <text x="80" y="130" font-family="Arial" font-size="14" fill="white" text-anchor="middle">उपभोग / बिक्री अनुपात</text>
    </g>

    <!-- Farmers & Market Icons -->
    <g transform="translate(80, 270) scale(0.7)">
        <use href="#farmer" fill="#3498db" />
    </g>

    <g transform="translate(130, 270) scale(0.7)">
        <use href="#farmer" fill="#2ecc71" />
    </g>

    <!-- Arrow showing flow from farmers to market -->
    <path d="M160,290 L190,290" stroke="#3498db" stroke-width="3" marker-end="url(#arrowhead)" />

    <!-- Define arrowhead marker -->
    <defs>
        <marker id="arrowhead" markerWidth="10" markerHeight="7" refX="9" refY="3.5" orient="auto">
            <polygon points="0 0, 10 3.5, 0 7" fill="#3498db" />
        </marker>
    </defs>

    <!-- Market stall -->
    <g transform="translate(200, 270) scale(0.5)">
        <use href="#market-stall" fill="#2980b9" />
        <rect x="20" y="30" width="20" height="30" fill="url(#milk-gradient)" />
        <rect x="50" y="30" width="20" height="30" fill="url(#meat-gradient)" />
        <rect x="80" y="30" width="10" height="10" fill="url(#egg-gradient)" />
    </g>

    <!-- Arrow showing flow from market to money -->
    <path d="M260,290 L290,290" stroke="#3498db" stroke-width="3" marker-end="url(#arrowhead)" />

    <!-- Money/Revenue -->
    <g transform="translate(300, 270) scale(0.8)">
        <circle cx="25" cy="25" r="25" fill="url(#money-gradient)" />
        <text x="25" y="35" font-family="Arial" font-size="30" font-weight="bold" fill="white" text-anchor="middle">रु</text>
    </g>

    <!-- Protein content indicator -->
    <g transform="translate(450, 270)">
        <text x="0" y="20" font-family="Arial" font-size="14" fill="white">प्रोटिन सामग्री</text>
        <rect x="0" y="30" width="300" height="20" rx="10" fill="#1e293b" opacity="0.8" />
        <rect x="0" y="30" width="290" height="20" rx="10" fill="#e74c3c" opacity="0.8" />
        <!-- 97% protein content -->
        <text x="150" y="45" font-family="Arial" font-size="12" fill="white" text-anchor="middle">उच्च प्रोटिन</text>
    </g>

    <!-- Commercialization indicator -->
    <g transform="translate(450, 320)">
        <text x="0" y="0" font-family="Arial" font-size="14" fill="white">व्यावसायीकरण स्कोर</text>
        <rect x="0" y="10" width="300" height="20" rx="10" fill="#1e293b" opacity="0.8" />
        <rect x="0" y="10" width="180" height="20" rx="10" fill="#2ecc71" opacity="0.8" />
        <!-- 60% commercialized -->
        <text x="150" y="25" font-family="Arial" font-size="12" fill="white" text-anchor="middle">६०%</text>
    </g>

    <!-- Animal farm visualization -->
    <g transform="translate(900, 230)">
        <!-- Farm area -->
        <rect x="0" y="0" width="240" height="120" fill="#795548" opacity="0.2" stroke="#795548" stroke-width="2" rx="5" />

        <!-- Animals -->
        <g transform="translate(20, 20) scale(0.4)">
            <use href="#cow" fill="#3498db" stroke="white" stroke-width="1" />
        </g>
        <g transform="translate(90, 20) scale(0.5)">
            <use href="#chicken" fill="#e74c3c" stroke="white" stroke-width="1" />
        </g>
        <g transform="translate(150, 20) scale(0.4)">
            <use href="#goat" fill="#9b59b6" stroke="white" stroke-width="1" />
        </g>
        <g transform="translate(30, 70) scale(0.4)">
            <use href="#sheep" fill="#ecf0f1" stroke="white" stroke-width="1" />
        </g>
        <g transform="translate(100, 70) scale(0.4)">
            <use href="#cow" fill="#3498db" stroke="white" stroke-width="1" />
        </g>
        <g transform="translate(170, 70) scale(0.5)">
            <use href="#chicken" fill="#e74c3c" stroke="white" stroke-width="1" />
        </g>
    </g>

    <!-- Animal products basket -->
    <g transform="translate(900, 290) scale(0.3)">
        <use href="#basket" fill="#795548" />
        <g transform="translate(30, 20) scale(0.7)">
            <use href="#milk-bottle" fill="url(#milk-gradient)" />
        </g>
        <g transform="translate(60, 30) scale(0.5)">
            <use href="#egg" fill="url(#egg-gradient)" />
        </g>
        <g transform="translate(90, 20) scale(0.5)">
            <use href="#meat" fill="url(#meat-gradient)" />
        </g>
        <g transform="translate(120, 30) scale(0.5)">
            <use href="#milk-bottle" fill="url(#milk-gradient)" />
        </g>
    </g>

    <!-- Animal product sacks -->
    <g transform="translate(1000, 290) scale(0.4)">
        <use href="#product-sack" fill="url(#milk-gradient)" />
    </g>

    <g transform="translate(1030, 290) scale(0.4)">
        <use href="#product-sack" fill="url(#meat-gradient)" />
    </g>

    <g transform="translate(1060, 290) scale(0.4)">
        <use href="#product-sack" fill="url(#egg-gradient)" />
    </g>

    <g transform="translate(1090, 290) scale(0.4)">
        <use href="#product-sack" fill="url(#milk-product-gradient)" />
    </g>

    <!-- Product quality indicator -->
    <g transform="translate(1000, 250)">
        <text x="0" y="0" font-family="Arial" font-size="12" fill="white">उत्पादन गुणस्तर</text>
        <rect x="0" y="10" width="150" height="10" rx="5" fill="#1e293b" opacity="0.8" />
        <rect x="0" y="10" width="130" height="10" rx="5" fill="#3498db" opacity="0.8" />
        <!-- 85% quality -->
    </g>

    <!-- Animated animal product floating effects -->
    <g transform="translate(150, 320)" opacity="0.6">
        <g transform="scale(0.3)">
            <use href="#milk-bottle" fill="url(#milk-gradient)">
                <animate attributeName="transform" values="scale(1);scale(1.1);scale(1)" dur="3s" repeatCount="indefinite" />
            </use>
        </g>
    </g>

    <g transform="translate(300, 330)" opacity="0.6">
        <g transform="scale(0.3)">
            <use href="#egg" fill="url(#egg-gradient)">
                <animate attributeName="transform" values="scale(1);scale(1.1);scale(1)" dur="2.5s" repeatCount="indefinite" />
            </use>
        </g>
    </g>

    <g transform="translate(650, 340)" opacity="0.6">
        <g transform="scale(0.3)">
            <use href="#meat" fill="url(#meat-gradient)">
                <animate attributeName="transform" values="scale(1);scale(1.1);scale(1)" dur="3.5s" repeatCount="indefinite" />
            </use>
        </g>
    </g>

    <g transform="translate(850, 310)" opacity="0.6">
        <g transform="scale(0.3)">
            <use href="#cheese" fill="url(#milk-product-gradient)">
                <animate attributeName="transform" values="scale(1);scale(1.1);scale(1)" dur="4s" repeatCount="indefinite" />
            </use>
        </g>
    </g>

    <!-- Title text at bottom -->
    <text font-family="Arial" font-size="24" fill="white" text-anchor="middle" font-weight="bold">
        <textPath href="#curved-text-path" startOffset="50%">पशुपन्छीजन्य वस्तुको प्रकार अनुसार उत्पादन र बिक्री</textPath>
    </text>
</svg>
