<svg width="1200" height="400" viewBox="0 0 1200 400" xmlns="http://www.w3.org/2000/svg">
  <defs>
    <linearGradient id="bg-gradient" x1="0%" y1="0%" x2="100%" y2="100%">
      <stop offset="0%" stop-color="#f8fafc" />
      <stop offset="100%" stop-color="#e2e8f0" />
    </linearGradient>
  </defs>
  
  <!-- Background -->
  <rect width="1200" height="400" fill="url(#bg-gradient)" />
  
  <!-- Local House -->
  <g transform="translate(300, 200)">
    <path d="M0,0 L50,-30 L100,0 L100,70 L0,70 Z" fill="#bfdbfe" stroke="#3b82f6" stroke-width="2" />
    <rect x="40" y="30" width="20" height="40" fill="#1d4ed8" />
    <rect x="15" y="20" width="15" height="15" fill="#60a5fa" />
    <rect x="70" y="20" width="15" height="15" fill="#60a5fa" />
    <circle cx="300" cy="100" r="80" fill="#3b82f6" opacity="0.05" />
  </g>
  
  <!-- Map Icon with Pin -->
  <g transform="translate(500, 150)">
    <path d="M0,0 L200,0 L200,150 L0,150 Z" fill="#fef3c7" stroke="#f59e0b" stroke-width="2" />
    <path d="M40,30 C60,30 80,30 80,60 C80,90 60,110 60,110" stroke="#f59e0b" stroke-width="5" fill="none" />
    <path d="M160,50 C140,50 120,50 120,80 C120,110 140,130 140,130" stroke="#f59e0b" stroke-width="5" fill="none" />
    <path d="M40,30 L160,50" stroke="#f59e0b" stroke-width="2" stroke-dasharray="5,3" />
    <circle cx="100" cy="75" r="20" fill="#fb923c" stroke="#ea580c" stroke-width="2" />
    <path d="M100,60 L100,90 M85,75 L115,75" stroke="white" stroke-width="4" />
  </g>
  
  <!-- Migration Arrow -->
  <g transform="translate(800, 200)">
    <path d="M-150,0 C-100,-50 100,-50 150,0" stroke="#93c5fd" stroke-width="4" fill="none" stroke-dasharray="10,5" />
    <polygon points="150,0 130,-20 130,20" fill="#93c5fd" />
  </g>
  
  <!-- People Silhouettes -->
  <g transform="translate(900, 180)">
    <!-- Person 1 -->
    <g transform="translate(0, 0)">
      <circle cx="0" cy="0" r="15" fill="#3b82f6" />
      <path d="M-10,15 L10,15 L10,50 L-10,50 Z" fill="#3b82f6" />
    </g>
    
    <!-- Person 2 -->
    <g transform="translate(30, 0)">
      <circle cx="0" cy="0" r="15" fill="#60a5fa" />
      <path d="M-10,15 L10,15 L10,50 L-10,50 Z" fill="#60a5fa" />
    </g>
    
    <!-- Person 3 -->
    <g transform="translate(60, 0)">
      <circle cx="0" cy="0" r="15" fill="#93c5fd" />
      <path d="M-10,15 L10,15 L10,50 L-10,50 Z" fill="#93c5fd" />
    </g>
    
    <!-- Person 4 -->
    <g transform="translate(90, 0)">
      <circle cx="0" cy="0" r="15" fill="#bfdbfe" />
      <path d="M-10,15 L10,15 L10,50 L-10,50 Z" fill="#bfdbfe" />
    </g>
  </g>
  
  <!-- Decorative elements -->
  <circle cx="200" cy="100" r="80" fill="#3b82f6" opacity="0.05" />
  <circle cx="1000" cy="300" r="120" fill="#f59e0b" opacity="0.05" />
</svg>
