<svg width="1200" height="400" viewBox="0 0 1200 400" xmlns="http://www.w3.org/2000/svg">
  <defs>
    <linearGradient id="bg-gradient" x1="0%" y1="0%" x2="100%" y2="100%">
      <stop offset="0%" stop-color="#f8fafc" />
      <stop offset="100%" stop-color="#e2e8f0" />
    </linearGradient>
  </defs>
  
  <!-- Background -->
  <rect width="1200" height="400" fill="url(#bg-gradient)" />
  
  <!-- Certificate Shape -->
  <rect x="400" y="100" width="400" height="250" rx="10" fill="white" stroke="#64748b" stroke-width="2" />
  
  <!-- Certificate Border -->
  <rect x="420" y="120" width="360" height="210" rx="5" fill="none" stroke="#64748b" stroke-width="1" stroke-dasharray="4,2" />
  
  <!-- Title Bar -->
  <rect x="450" y="140" width="300" height="40" rx="5" fill="#3b82f6" opacity="0.8" />
  
  <!-- Content Lines -->
  <line x1="450" y1="200" x2="750" y2="200" stroke="#cbd5e1" stroke-width="2" />
  <line x1="450" y1="230" x2="750" y2="230" stroke="#cbd5e1" stroke-width="2" />
  <line x1="450" y1="260" x2="750" y2="260" stroke="#cbd5e1" stroke-width="2" />
  <line x1="450" y1="290" x2="600" y2="290" stroke="#cbd5e1" stroke-width="2" />
  
  <!-- Signature Line -->
  <line x1="600" y1="320" x2="720" y2="320" stroke="#64748b" stroke-width="1" />
  
  <!-- Baby Icon -->
  <g transform="translate(600, 80)">
    <!-- Baby Head -->
    <circle cx="0" cy="0" r="30" fill="#fda4af" />
    <!-- Eyes -->
    <circle cx="-10" cy="-5" r="3" fill="#1e293b" />
    <circle cx="10" cy="-5" r="3" fill="#1e293b" />
    <!-- Mouth -->
    <path d="M-8,10 C-4,15 4,15 8,10" stroke="#1e293b" stroke-width="1.5" fill="none" />
  </g>
  
  <!-- Ribbon -->
  <path d="M700,350 L680,380 L700,370 L720,380 L700,350 Z" fill="#fb7185" />
  
  <!-- Official Seal -->
  <g transform="translate(700, 260)">
    <circle cx="0" cy="0" r="25" fill="#fef3c7" stroke="#eab308" stroke-width="2" />
    <circle cx="0" cy="0" r="20" fill="none" stroke="#eab308" stroke-width="1" stroke-dasharray="2,1" />
    <path d="M-10,0 L10,0 M0,-10 L0,10" stroke="#eab308" stroke-width="1.5" />
  </g>
  
  <!-- Family Icon -->
  <g transform="translate(300, 200)">
    <!-- Adult -->
    <circle cx="-15" cy="-30" r="15" fill="#60a5fa" />
    <path d="M-25,-15 L-5,-15 L-5,15 L-25,15 Z" fill="#60a5fa" />
    
    <!-- Adult -->
    <circle cx="15" cy="-30" r="15" fill="#93c5fd" />
    <path d="M5,-15 L25,-15 L25,15 L5,15 Z" fill="#93c5fd" />
    
    <!-- Child -->
    <circle cx="0" cy="-10" r="10" fill="#bfdbfe" />
    <path d="M-5,0 L5,0 L5,20 L-5,20 Z" fill="#bfdbfe" />
  </g>
  
  <!-- Decorative elements -->
  <circle cx="200" cy="100" r="80" fill="#3b82f6" opacity="0.05" />
  <circle cx="1000" cy="300" r="120" fill="#fb7185" opacity="0.05" />
</svg>
