<?xml version="1.0" encoding="UTF-8" standalone="no"?>
<svg width="1200" height="400" viewBox="0 0 1200 400" xmlns="http://www.w3.org/2000/svg">
  <defs>
    <linearGradient id="bg-gradient" x1="0%" y1="0%" x2="100%" y2="100%">
      <stop offset="0%" stop-color="#f8fafc" />
      <stop offset="100%" stop-color="#e2e8f0" />
    </linearGradient>
  </defs>
  
  <!-- Background -->
  <rect width="1200" height="400" fill="url(#bg-gradient)" />
  
  <!-- Diverse People Group -->
  <g transform="translate(600, 200)">
    <!-- Person 1 -->
    <g transform="translate(-200, 0)">
      <circle cx="0" cy="0" r="40" fill="#f472b6" />
      <path d="M-20,40 L20,40 L20,100 L-20,100 Z" fill="#f472b6" />
    </g>
    
    <!-- Person 2 -->
    <g transform="translate(-100, 0)">
      <circle cx="0" cy="0" r="40" fill="#a855f7" />
      <path d="M-20,40 L20,40 L20,100 L-20,100 Z" fill="#a855f7" />
    </g>
    
    <!-- Person 3 -->
    <g transform="translate(0, 0)">
      <circle cx="0" cy="0" r="40" fill="#3b82f6" />
      <path d="M-20,40 L20,40 L20,100 L-20,100 Z" fill="#3b82f6" />
    </g>
    
    <!-- Person 4 -->
    <g transform="translate(100, 0)">
      <circle cx="0" cy="0" r="40" fill="#10b981" />
      <path d="M-20,40 L20,40 L20,100 L-20,100 Z" fill="#10b981" />
    </g>
    
    <!-- Person 5 -->
    <g transform="translate(200, 0)">
      <circle cx="0" cy="0" r="40" fill="#f59e0b" />
      <path d="M-20,40 L20,40 L20,100 L-20,100 Z" fill="#f59e0b" />
    </g>
  </g>
  
  <!-- Connection Circles -->
  <g transform="translate(600, 200)">
    <circle cx="-200" cy="-80" r="20" fill="#f472b6" opacity="0.4" />
    <circle cx="-100" cy="-100" r="20" fill="#a855f7" opacity="0.4" />
    <circle cx="0" cy="-110" r="20" fill="#3b82f6" opacity="0.4" />
    <circle cx="100" cy="-100" r="20" fill="#10b981" opacity="0.4" />
    <circle cx="200" cy="-80" r="20" fill="#f59e0b" opacity="0.4" />
    
    <!-- Connection lines -->
    <path d="M-200,-80 L-200,0" stroke="#f472b6" stroke-width="2" stroke-dasharray="5,3" />
    <path d="M-100,-100 L-100,0" stroke="#a855f7" stroke-width="2" stroke-dasharray="5,3" />
    <path d="M0,-110 L0,0" stroke="#3b82f6" stroke-width="2" stroke-dasharray="5,3" />
    <path d="M100,-100 L100,0" stroke="#10b981" stroke-width="2" stroke-dasharray="5,3" />
    <path d="M200,-80 L200,0" stroke="#f59e0b" stroke-width="2" stroke-dasharray="5,3" />
    
    <!-- Connection arcs -->
    <path d="M-200,-80 Q0,-150 200,-80" stroke="#64748b" stroke-width="2" fill="none" stroke-dasharray="5,3" />
  </g>
  
  <!-- Traditional Symbols -->
  <g transform="translate(300, 100)">
    <path d="M-30,0 L0,-40 L30,0 Z" fill="#f59e0b" opacity="0.4" />
    <rect x="-15" y="0" width="30" height="30" fill="#f59e0b" opacity="0.4" />
  </g>
  
  <g transform="translate(900, 100)">
    <path d="M-30,0 L0,-40 L30,0 Z" fill="#10b981" opacity="0.4" />
    <rect x="-15" y="0" width="30" height="30" fill="#10b981" opacity="0.4" />
  </g>
  
  <!-- Decorative elements -->
  <circle cx="200" cy="100" r="80" fill="#a855f7" opacity="0.05" />
  <circle cx="1000" cy="300" r="120" fill="#f59e0b" opacity="0.05" />
</svg>
