<svg xmlns="http://www.w3.org/2000/svg" xmlns:xlink="http://www.w3.org/1999/xlink" viewBox="0 0 1200 400" width="1200" height="400">
  <defs>
    <!-- Modern gradient backgrounds -->
    <linearGradient id="bgGradient" x1="0%" y1="0%" x2="100%" y2="100%">
      <stop offset="0%" stop-color="#f8fafc" />
      <stop offset="100%" stop-color="#e2e8f0" />
    </linearGradient>
    
    <linearGradient id="accentGradient" x1="0%" y1="0%" x2="100%" y2="0%">
      <stop offset="0%" stop-color="#3b82f6" />
      <stop offset="100%" stop-color="#6366f1" />
    </linearGradient>
    
    <!-- Decorative gradients -->
    <linearGradient id="decorGradient1" x1="0%" y1="0%" x2="100%" y2="100%">
      <stop offset="0%" stop-color="#3b82f6" stop-opacity="0.05" />
      <stop offset="100%" stop-color="#6366f1" stop-opacity="0.05" />
    </linearGradient>
    
    <linearGradient id="decorGradient2" x1="100%" y1="0%" x2="0%" y2="100%">
      <stop offset="0%" stop-color="#0ea5e9" stop-opacity="0.05" />
      <stop offset="100%" stop-color="#3b82f6" stop-opacity="0.05" />
    </linearGradient>
    
    <!-- Cooperative Type Gradients -->
    <linearGradient id="savingsGradient" x1="0%" y1="0%" x2="100%" y2="100%">
      <stop offset="0%" stop-color="#34d399" />
      <stop offset="100%" stop-color="#10b981" />
    </linearGradient>
    
    <linearGradient id="multiPurposeGradient" x1="0%" y1="0%" x2="100%" y2="100%">
      <stop offset="0%" stop-color="#a78bfa" />
      <stop offset="100%" stop-color="#8b5cf6" />
    </linearGradient>
    
    <linearGradient id="agricultureGradient" x1="0%" y1="0%" x2="100%" y2="100%">
      <stop offset="0%" stop-color="#f87171" />
      <stop offset="100%" stop-color="#ef4444" />
    </linearGradient>
    
    <linearGradient id="communityGradient" x1="0%" y1="0%" x2="100%" y2="100%">
      <stop offset="0%" stop-color="#fbbf24" />
      <stop offset="100%" stop-color="#f59e0b" />
    </linearGradient>
    
    <linearGradient id="womensGradient" x1="0%" y1="0%" x2="100%" y2="100%">
      <stop offset="0%" stop-color="#fb923c" />
      <stop offset="100%" stop-color="#ea580c" />
    </linearGradient>
    
    <!-- Building symbols -->
    <symbol id="buildingOne" viewBox="0 0 100 100">
      <rect x="10" y="40" width="80" height="60" fill="#f1f5f9" stroke="#64748b" stroke-width="2" />
      <rect x="25" y="50" width="15" height="20" fill="#94a3b8" />
      <rect x="60" y="50" width="15" height="20" fill="#94a3b8" />
      <rect x="35" y="80" width="30" height="20" fill="#94a3b8" />
      <path d="M0,40 L50,10 L100,40" fill="#e2e8f0" stroke="#64748b" stroke-width="2" />
    </symbol>
    
    <symbol id="cooperative" viewBox="0 0 100 100">
      <rect x="10" y="30" width="80" height="70" rx="4" fill="#f8fafc" stroke="#64748b" stroke-width="2" />
      <rect x="20" y="40" width="60" height="15" rx="2" fill="#34d399" opacity="0.7" />
      <rect x="20" y="60" width="60" height="15" rx="2" fill="#8b5cf6" opacity="0.7" />
      <rect x="20" y="80" width="60" height="10" rx="2" fill="#ef4444" opacity="0.7" />
      <path d="M10,30 L50,10 L90,30" stroke="#64748b" stroke-width="2" fill="#e2e8f0" />
      <text x="50" y="52" font-family="Arial" font-size="10" text-anchor="middle" fill="#1e293b" font-weight="bold">рд╕рд╣рдХрд╛рд░реА</text>
      <text x="50" y="72" font-family="Arial" font-size="10" text-anchor="middle" fill="#1e293b" font-weight="bold">рд╕рдВрд╕реНрдерд╛</text>
    </symbol>
    
    <symbol id="savingsCooperative" viewBox="0 0 100 100">
      <use href="#cooperative" />
      <circle cx="80" cy="25" r="15" fill="url(#savingsGradient)" opacity="0.9" />
      <text x="80" y="29" font-family="Arial" font-size="14" text-anchor="middle" fill="#fff" font-weight="bold">ЁЯТ░</text>
    </symbol>
    
    <symbol id="multiPurposeCooperative" viewBox="0 0 100 100">
      <use href="#cooperative" />
      <circle cx="80" cy="25" r="15" fill="url(#multiPurposeGradient)" opacity="0.9" />
      <text x="80" y="29" font-family="Arial" font-size="14" text-anchor="middle" fill="#fff" font-weight="bold">ЁЯФД</text>
    </symbol>
    
    <symbol id="agricultureCooperative" viewBox="0 0 100 100">
      <use href="#cooperative" />
      <circle cx="80" cy="25" r="15" fill="url(#agricultureGradient)" opacity="0.9" />
      <text x="80" y="29" font-family="Arial" font-size="14" text-anchor="middle" fill="#fff" font-weight="bold">ЁЯМ╛</text>
    </symbol>
    
    <symbol id="dairyCooperative" viewBox="0 0 100 100">
      <use href="#cooperative" />
      <circle cx="80" cy="25" r="15" fill="#3498db" opacity="0.9" />
      <text x="80" y="29" font-family="Arial" font-size="14" text-anchor="middle" fill="#fff" font-weight="bold">ЁЯеЫ</text>
    </symbol>
    
    <symbol id="communityCooperative" viewBox="0 0 100 100">
      <use href="#cooperative" />
      <circle cx="80" cy="25" r="15" fill="url(#communityGradient)" opacity="0.9" />
      <text x="80" y="29" font-family="Arial" font-size="14" text-anchor="middle" fill="#fff" font-weight="bold">ЁЯПШя╕П</text>
    </symbol>

    <symbol id="womensCooperative" viewBox="0 0 100 100">
      <use href="#cooperative" />
      <circle cx="80" cy="25" r="15" fill="url(#womensGradient)" opacity="0.9" />
      <text x="80" y="29" font-family="Arial" font-size="14" text-anchor="middle" fill="#fff" font-weight="bold">ЁЯСй</text>
    </symbol>

    <!-- Person symbol -->
    <symbol id="person" viewBox="0 0 50 100">
      <circle cx="25" cy="20" r="15" fill="#475569" />
      <path d="M25,35 L25,65 M15,45 L35,45 M15,75 L25,65 M35,75 L25,65" stroke="#475569" stroke-width="8" stroke-linecap="round" />
    </symbol>
    
    <!-- Group of people symbol -->
    <symbol id="peopleGroup" viewBox="0 0 150 100">
      <circle cx="40" cy="30" r="10" fill="#475569" />
      <path d="M40,40 L40,60 M33,47 L47,47 M33,70 L40,60 M47,70 L40,60" stroke="#475569" stroke-width="5" stroke-linecap="round" />
      
      <circle cx="75" cy="25" r="12" fill="#475569" />
      <path d="M75,37 L75,62 M66,46 L84,46 M66,72 L75,62 M84,72 L75,62" stroke="#475569" stroke-width="6" stroke-linecap="round" />
      
      <circle cx="110" cy="30" r="10" fill="#475569" />
      <path d="M110,40 L110,60 M103,47 L117,47 M103,70 L110,60 M117,70 L110,60" stroke="#475569" stroke-width="5" stroke-linecap="round" />
    </symbol>
    
    <!-- Filter for elegant shadows -->
    <filter id="shadow" x="-20%" y="-20%" width="140%" height="140%">
      <feDropShadow dx="0" dy="10" stdDeviation="12" flood-color="#334155" flood-opacity="0.15"/>
    </filter>
    
    <!-- Dot patterns for background -->
    <pattern id="dotPattern" width="20" height="20" patternUnits="userSpaceOnUse">
      <circle cx="3" cy="3" r="1" fill="#cbd5e1" fill-opacity="0.5"/>
    </pattern>
    
    <!-- Connection line -->
    <symbol id="connectionLine" viewBox="0 0 100 100">
      <path d="M10,50 L90,50" stroke="#64748b" stroke-width="2" stroke-dasharray="5,3" />
      <circle cx="10" cy="50" r="3" fill="#64748b" />
      <circle cx="90" cy="50" r="3" fill="#64748b" />
    </symbol>

    <!-- Symbol for a centralized hub -->
    <symbol id="hub" viewBox="0 0 100 100">
      <circle cx="50" cy="50" r="45" fill="#f8fafc" stroke="#64748b" stroke-width="3" />
      <circle cx="50" cy="50" r="35" fill="url(#accentGradient)" opacity="0.1" />
      <text x="50" y="54" font-family="Arial" font-size="12" text-anchor="middle" fill="#1e293b" font-weight="bold">рдХреЗрдиреНрджреНрд░реАрдп</text>
      <text x="50" y="68" font-family="Arial" font-size="12" text-anchor="middle" fill="#1e293b" font-weight="bold">рдирд┐рдХрд╛рдп</text>
    </symbol>
  </defs>
  
  <!-- Main background -->
  <rect width="100%" height="100%" fill="url(#bgGradient)"/>
  <rect width="100%" height="100%" fill="url(#dotPattern)"/>
  
  <!-- Enhanced decorative elements -->
  <path d="M0,0 L1200,0 L1200,400 L0,400 Z" fill="url(#decorGradient1)"/>
  <path d="M1200,0 L0,0 L0,400 L1200,400 Z" fill="url(#decorGradient2)"/>
  <circle cx="100" cy="50" r="150" fill="#3b82f6" opacity="0.03"/>
  <circle cx="1100" cy="350" r="120" fill="#6366f1" opacity="0.03"/>
  
  <!-- Title text -->
  <text x="600" y="60" font-family="Arial" font-size="28" font-weight="bold" text-anchor="middle" fill="#1e293b">рд╕рд╣рдХрд╛рд░реА рд╕рдВрд╕реНрдерд╛рд╣рд░реВ</text>
  <text x="600" y="90" font-family="Arial" font-size="20" text-anchor="middle" fill="#475569">рдЦрдЬреБрд░рд╛ рдЧрд╛рдЙрдБрдкрд╛рд▓рд┐рдХрд╛</text>

  <!-- Central cooperative hub -->
  <g transform="translate(550, 200)" filter="url(#shadow)">
    <use href="#hub" />
  </g>

  <!-- Cooperative institutions around the hub -->
  <g transform="translate(330, 160) scale(0.7)" filter="url(#shadow)">
    <use href="#savingsCooperative" />
  </g>
  <path d="M380,200 Q450,180 550,200" stroke="#64748b" stroke-width="1" stroke-dasharray="5,3" />
  <text x="450" y="185" font-family="Arial" font-size="14" text-anchor="middle" fill="#334155">рдмрдЪрдд рддрдерд╛ рдЛрдг</text>
  
  <g transform="translate(400, 300) scale(0.7)" filter="url(#shadow)">
    <use href="#multiPurposeCooperative" />
  </g>
  <path d="M450,310 Q500,280 550,250" stroke="#64748b" stroke-width="1" stroke-dasharray="5,3" />
  <text x="470" y="285" font-family="Arial" font-size="14" text-anchor="middle" fill="#334155">рдмрд╣реБрдЙрджреНрджреЗрд╢реНрдпреАрдп</text>
  
  <g transform="translate(700, 160) scale(0.7)" filter="url(#shadow)">
    <use href="#agricultureCooperative" />
  </g>
  <path d="M720,200 Q650,180 600,200" stroke="#64748b" stroke-width="1" stroke-dasharray="5,3" />
  <text x="670" y="185" font-family="Arial" font-size="14" text-anchor="middle" fill="#334155">рдХреГрд╖рд┐</text>
  
  <g transform="translate(700, 300) scale(0.7)" filter="url(#shadow)">
    <use href="#communityCooperative" />
  </g>
  <path d="M720,310 Q650,280 600,250" stroke="#64748b" stroke-width="1" stroke-dasharray="5,3" />
  <text x="680" y="285" font-family="Arial" font-size="14" text-anchor="middle" fill="#334155">рд╕рд╛рдореБрджрд╛рдпрд┐рдХ</text>
  
  <g transform="translate(550, 120) scale(0.7)" filter="url(#shadow)">
    <use href="#womensCooperative" />
  </g>
  <path d="M580,165 L580,190" stroke="#64748b" stroke-width="1" stroke-dasharray="5,3" />
  <text x="620" y="140" font-family="Arial" font-size="14" text-anchor="middle" fill="#334155">рдорд╣рд┐рд▓рд╛</text>
  
  <g transform="translate(550, 320) scale(0.7)" filter="url(#shadow)">
    <use href="#dairyCooperative" />
  </g>
  <path d="M580,320 L580,250" stroke="#64748b" stroke-width="1" stroke-dasharray="5,3" />
  <text x="580" y="340" font-family="Arial" font-size="14" text-anchor="middle" fill="#334155">рджреБрдЧреНрдз</text>

  <!-- People grouped around cooperatives -->
  <g transform="translate(280, 200) scale(0.5)">
    <use href="#peopleGroup" />
  </g>
  
  <g transform="translate(450, 350) scale(0.5)">
    <use href="#peopleGroup" />
  </g>
  
  <g transform="translate(690, 350) scale(0.5)">
    <use href="#peopleGroup" />
  </g>
  
  <g transform="translate(800, 200) scale(0.5)">
    <use href="#peopleGroup" />
  </g>
  
  <g transform="translate(550, 80) scale(0.5)">
    <use href="#peopleGroup" />
  </g>

  <!-- Cooperative types legend -->
  <g transform="translate(50, 300)">
    <rect width="20" height="20" fill="url(#savingsGradient)" rx="4" />
    <text x="30" y="15" font-family="Arial" font-size="12" fill="#475569">рдмрдЪрдд рддрдерд╛ рдЛрдг рд╕рд╣рдХрд╛рд░реА</text>
  </g>
  
  <g transform="translate(220, 300)">
    <rect width="20" height="20" fill="url(#multiPurposeGradient)" rx="4" />
    <text x="30" y="15" font-family="Arial" font-size="12" fill="#475569">рдмрд╣реБрдЙрджреНрджреЗрд╢реНрдпреАрдп рд╕рд╣рдХрд╛рд░реА</text>
  </g>
  
  <g transform="translate(380, 300)">
    <rect width="20" height="20" fill="url(#agricultureGradient)" rx="4" />
    <text x="30" y="15" font-family="Arial" font-size="12" fill="#475569">рдХреГрд╖рд┐ рд╕рд╣рдХрд╛рд░реА</text>
  </g>
  
  <g transform="translate(500, 300)">
    <rect width="20" height="20" fill="#3498db" rx="4" />
    <text x="30" y="15" font-family="Arial" font-size="12" fill="#475569">рджреБрдЧреНрдз рд╕рд╣рдХрд╛рд░реА</text>
  </g>
  
  <g transform="translate(620, 300)">
    <rect width="20" height="20" fill="url(#communityGradient)" rx="4" />
    <text x="30" y="15" font-family="Arial" font-size="12" fill="#475569">рд╕рд╛рдореБрджрд╛рдпрд┐рдХ рд╕рд╣рдХрд╛рд░реА</text>
  </g>
  
  <g transform="translate(800, 300)">
    <rect width="20" height="20" fill="url(#womensGradient)" rx="4" />
    <text x="30" y="15" font-family="Arial" font-size="12" fill="#475569">рдорд╣рд┐рд▓рд╛ рд╕рд╣рдХрд╛рд░реА</text>
  </g>

  <!-- Cooperative Benefits -->
  <g transform="translate(150, 200)" opacity="0.8">
    <rect width="100" height="30" rx="15" fill="#10b981" opacity="0.1"/>
    <text x="50" y="19" font-family="Arial" font-size="12" fill="#10b981" text-anchor="middle">рдмрдЪрдд рдкрд░рд┐рдЪрд╛рд▓рди</text>
  </g>
  
  <g transform="translate(950, 200)" opacity="0.8">
    <rect width="100" height="30" rx="15" fill="#3b82f6" opacity="0.1"/>
    <text x="50" y="19" font-family="Arial" font-size="12" fill="#3b82f6" text-anchor="middle">рдЛрдг рд▓рдЧрд╛рдиреА</text>
  </g>
  
  <g transform="translate(1050, 230)" opacity="0.8">
    <rect width="100" height="30" rx="15" fill="#ec4899" opacity="0.1"/>
    <text x="50" y="19" font-family="Arial" font-size="12" fill="#ec4899" text-anchor="middle">рдЖрд░реНрдерд┐рдХ рд╕рдореГрджреНрдзрд┐</text>
  </g>
  
  <g transform="translate(130, 230)" opacity="0.8">
    <rect width="100" height="30" rx="15" fill="#8b5cf6" opacity="0.1"/>
    <text x="50" y="19" font-family="Arial" font-size="12" fill="#8b5cf6" text-anchor="middle">рд╕рд╛рдорд╛рдЬрд┐рдХ рдПрдХрддрд╛</text>
  </g>
  
  <g transform="translate(250, 260)" opacity="0.8">
    <rect width="100" height="30" rx="15" fill="#f59e0b" opacity="0.1"/>
    <text x="50" y="19" font-family="Arial" font-size="12" fill="#f59e0b" text-anchor="middle">рдЙрддреНрдкрд╛рджрди рд╡реГрджреНрдзрд┐</text>
  </g>
  
  <g transform="translate(850, 260)" opacity="0.8">
    <rect width="140" height="30" rx="15" fill="#6366f1" opacity="0.1"/>
    <text x="70" y="19" font-family="Arial" font-size="12" fill="#6366f1" text-anchor="middle">рд╕рд╛рдореВрд╣рд┐рдХ рд╡реНрдпрд╡рд╕рд╛рдп рдкреНрд░рд╡рд░реНрджреНрдзрди</text>
  </g>

  <!-- Footer text -->
  <text x="600" y="370" font-family="Arial" font-size="16" fill="#475569" text-anchor="middle">
    рд╕реНрд░реЛрдд: рдЦрдЬреБрд░рд╛ рдЧрд╛рдЙрдБрдкрд╛рд▓рд┐рдХрд╛ рдбрд┐рдЬрд┐рдЯрд▓ рдкреНрд░реЛрдлрд╛рдЗрд▓, реирежреореж
  </text>
  
  <!-- Additional decorative elements -->
  <path d="M50,350 L150,320 L100,280 Z" fill="#3b82f6" opacity="0.1" />
  <path d="M1050,80 L1100,50 L1150,100 Z" fill="#6366f1" opacity="0.1" />
  <circle cx="200" cy="350" r="15" fill="#0ea5e9" opacity="0.1" />
  <circle cx="1000" cy="330" r="12" fill="#3b82f6" opacity="0.1" />
</svg>
