<?xml version="1.0" encoding="UTF-8" standalone="no"?>
<svg width="1200" height="400" viewBox="0 0 1200 400" xmlns="http://www.w3.org/2000/svg">
  <defs>
    <linearGradient id="bg-gradient" x1="0%" y1="0%" x2="100%" y2="100%">
      <stop offset="0%" stop-color="#f8fafc" />
      <stop offset="100%" stop-color="#e2e8f0" />
    </linearGradient>
  </defs>
  
  <!-- Background -->
  <rect width="1200" height="400" fill="url(#bg-gradient)" />
  
  <!-- Central Hub -->
  <g transform="translate(600, 200)">
    <circle cx="0" cy="0" r="60" fill="white" stroke="#3b82f6" stroke-width="3" />
    <circle cx="0" cy="0" r="45" fill="#3b82f6" opacity="0.1" />
  </g>
  
  <!-- Connected Cooperatives -->
  <!-- Cooperative 1 -->
  <g transform="translate(400, 150)">
    <rect x="-30" y="-30" width="60" height="60" rx="5" fill="white" stroke="#10b981" stroke-width="2" />
    <rect x="-20" y="-20" width="40" height="10" fill="#10b981" opacity="0.7" />
    <rect x="-20" y="-5" width="40" height="10" fill="#10b981" opacity="0.7" />
    <rect x="-20" y="10" width="40" height="10" fill="#10b981" opacity="0.7" />
  </g>
  
  <!-- Cooperative 2 -->
  <g transform="translate(800, 150)">
    <rect x="-30" y="-30" width="60" height="60" rx="5" fill="white" stroke="#a855f7" stroke-width="2" />
    <rect x="-20" y="-20" width="40" height="10" fill="#a855f7" opacity="0.7" />
    <rect x="-20" y="-5" width="40" height="10" fill="#a855f7" opacity="0.7" />
    <rect x="-20" y="10" width="40" height="10" fill="#a855f7" opacity="0.7" />
  </g>
  
  <!-- Cooperative 3 -->
  <g transform="translate(500, 300)">
    <rect x="-30" y="-30" width="60" height="60" rx="5" fill="white" stroke="#f43f5e" stroke-width="2" />
    <rect x="-20" y="-20" width="40" height="10" fill="#f43f5e" opacity="0.7" />
    <rect x="-20" y="-5" width="40" height="10" fill="#f43f5e" opacity="0.7" />
    <rect x="-20" y="10" width="40" height="10" fill="#f43f5e" opacity="0.7" />
  </g>
  
  <!-- Cooperative 4 -->
  <g transform="translate(700, 300)">
    <rect x="-30" y="-30" width="60" height="60" rx="5" fill="white" stroke="#f59e0b" stroke-width="2" />
    <rect x="-20" y="-20" width="40" height="10" fill="#f59e0b" opacity="0.7" />
    <rect x="-20" y="-5" width="40" height="10" fill="#f59e0b" opacity="0.7" />
    <rect x="-20" y="10" width="40" height="10" fill="#f59e0b" opacity="0.7" />
  </g>
  
  <!-- Cooperative 5 -->
  <g transform="translate(600, 100)">
    <rect x="-30" y="-30" width="60" height="60" rx="5" fill="white" stroke="#fb7185" stroke-width="2" />
    <rect x="-20" y="-20" width="40" height="10" fill="#fb7185" opacity="0.7" />
    <rect x="-20" y="-5" width="40" height="10" fill="#fb7185" opacity="0.7" />
    <rect x="-20" y="10" width="40" height="10" fill="#fb7185" opacity="0.7" />
  </g>
  
  <!-- Cooperative 6 -->
  <g transform="translate(600, 300)">
    <rect x="-30" y="-30" width="60" height="60" rx="5" fill="white" stroke="#3b82f6" stroke-width="2" />
    <rect x="-20" y="-20" width="40" height="10" fill="#3b82f6" opacity="0.7" />
    <rect x="-20" y="-5" width="40" height="10" fill="#3b82f6" opacity="0.7" />
    <rect x="-20" y="10" width="40" height="10" fill="#3b82f6" opacity="0.7" />
  </g>
  
  <!-- Connecting Lines -->
  <g transform="translate(600, 200)">
    <line x1="0" y1="0" x2="-200" y2="-50" stroke="#64748b" stroke-width="1" stroke-dasharray="5,3" />
    <line x1="0" y1="0" x2="200" y2="-50" stroke="#64748b" stroke-width="1" stroke-dasharray="5,3" />
    <line x1="0" y1="0" x2="-100" y2="100" stroke="#64748b" stroke-width="1" stroke-dasharray="5,3" />
    <line x1="0" y1="0" x2="100" y2="100" stroke="#64748b" stroke-width="1" stroke-dasharray="5,3" />
    <line x1="0" y1="0" x2="0" y2="-100" stroke="#64748b" stroke-width="1" stroke-dasharray="5,3" />
    <line x1="0" y1="0" x2="0" y2="100" stroke="#64748b" stroke-width="1" stroke-dasharray="5,3" />
  </g>
  
  <!-- People Silhouettes by Cooperatives -->
  <g transform="translate(350, 150) scale(0.8)">
    <circle cx="0" cy="0" r="10" fill="#10b981" />
    <path d="M-5,10 L5,10 L5,25 L-5,25 Z" fill="#10b981" />
  </g>
  
  <g transform="translate(450, 150) scale(0.8)">
    <circle cx="0" cy="0" r="10" fill="#10b981" />
    <path d="M-5,10 L5,10 L5,25 L-5,25 Z" fill="#10b981" />
  </g>
  
  <g transform="translate(850, 150) scale(0.8)">
    <circle cx="0" cy="0" r="10" fill="#a855f7" />
    <path d="M-5,10 L5,10 L5,25 L-5,25 Z" fill="#a855f7" />
  </g>
  
  <g transform="translate(450, 300) scale(0.8)">
    <circle cx="0" cy="0" r="10" fill="#f43f5e" />
    <path d="M-5,10 L5,10 L5,25 L-5,25 Z" fill="#f43f5e" />
  </g>
  
  <g transform="translate(750, 300) scale(0.8)">
    <circle cx="0" cy="0" r="10" fill="#f59e0b" />
    <path d="M-5,10 L5,10 L5,25 L-5,25 Z" fill="#f59e0b" />
  </g>
  
  <!-- Decorative elements -->
  <circle cx="200" cy="100" r="80" fill="#3b82f6" opacity="0.05" />
  <circle cx="1000" cy="300" r="120" fill="#10b981" opacity="0.05" />
</svg>
