<?xml version="1.0" encoding="UTF-8" standalone="no"?>
<svg width="1200" height="400" viewBox="0 0 1200 400" xmlns="http://www.w3.org/2000/svg">
  <defs>
    <linearGradient id="bg-gradient" x1="0%" y1="0%" x2="100%" y2="100%">
      <stop offset="0%" stop-color="#f8fafc" />
      <stop offset="100%" stop-color="#e2e8f0" />
    </linearGradient>
  </defs>
  
  <!-- Background -->
  <rect width="1200" height="400" fill="url(#bg-gradient)" />
  
  <!-- Soil Base -->
  <rect x="200" y="300" width="800" height="50" rx="5" fill="#92400e" />
  
  <!-- Healthy Plant -->
  <g transform="translate(350, 250)">
    <!-- Stem -->
    <path d="M0,50 L0,0" stroke="#16a34a" stroke-width="3" />
    
    <!-- Leaves -->
    <path d="M0,10 C-20,0 -25,20 0,20" stroke="#16a34a" stroke-width="2" fill="#16a34a" fill-opacity="0.7" />
    <path d="M0,30 C20,20 25,40 0,40" stroke="#16a34a" stroke-width="2" fill="#16a34a" fill-opacity="0.7" />
    <path d="M0,5 C-10,-5 -10,-15 0,-5" stroke="#16a34a" stroke-width="2" fill="#16a34a" fill-opacity="0.7" />
    <path d="M0,5 C10,-5 10,-15 0,-5" stroke="#16a34a" stroke-width="2" fill="#16a34a" fill-opacity="0.7" />
  </g>
  
  <!-- Diseased Plant -->
  <g transform="translate(600, 250)">
    <!-- Stem -->
    <path d="M0,50 L0,0" stroke="#16a34a" stroke-width="3" />
    
    <!-- Diseased Leaves -->
    <path d="M0,10 C-20,0 -25,20 0,20" stroke="#16a34a" stroke-width="2" fill="#fca5a5" fill-opacity="0.7" />
    <path d="M0,30 C20,20 25,40 0,40" stroke="#16a34a" stroke-width="2" fill="#fca5a5" fill-opacity="0.7" />
    <path d="M0,5 C-10,-5 -10,-15 0,-5" stroke="#16a34a" stroke-width="2" fill="#fca5a5" fill-opacity="0.7" />
    <path d="M0,5 C10,-5 10,-15 0,-5" stroke="#16a34a" stroke-width="2" fill="#fca5a5" fill-opacity="0.7" />
    
    <!-- Disease Spots -->
    <circle cx="-15" cy="10" r="3" fill="#b91c1c" />
    <circle cx="15" cy="30" r="3" fill="#b91c1c" />
    <circle cx="-5" cy="-5" r="2" fill="#b91c1c" />
    <circle cx="5" cy="-5" r="2" fill="#b91c1c" />
  </g>
  
  <!-- Dead Plant -->
  <g transform="translate(850, 250)">
    <!-- Stem -->
    <path d="M0,50 L0,0" stroke="#92400e" stroke-width="3" />
    
    <!-- Dead Leaves -->
    <path d="M0,10 C-20,0 -25,20 0,20" stroke="#92400e" stroke-width="2" fill="#92400e" fill-opacity="0.7" />
    <path d="M0,30 C20,20 25,40 0,40" stroke="#92400e" stroke-width="2" fill="#92400e" fill-opacity="0.7" />
    <path d="M0,5 C-10,-5 -10,-15 0,-5" stroke="#92400e" stroke-width="2" fill="#92400e" fill-opacity="0.7" />
    <path d="M0,5 C10,-5 10,-15 0,-5" stroke="#92400e" stroke-width="2" fill="#92400e" fill-opacity="0.7" />
  </g>
  
  <!-- Disease Vector (Insect) -->
  <g transform="translate(500, 150)">
    <ellipse cx="0" cy="0" rx="15" ry="10" fill="#a16207" />
    <line x1="-15" y1="0" x2="-20" y2="-5" stroke="#a16207" stroke-width="1.5" />
    <line x1="-15" y1="0" x2="-20" y2="5" stroke="#a16207" stroke-width="1.5" />
    <line x1="15" y1="0" x2="20" y2="-5" stroke="#a16207" stroke-width="1.5" />
    <line x1="15" y1="0" x2="20" y2="5" stroke="#a16207" stroke-width="1.5" />
    <path d="M-10,-5 L10,-5" stroke="#a16207" stroke-width="2" />
    <circle cx="-5" cy="-2" r="2" fill="#0c4a6e" />
    <circle cx="5" cy="-2" r="2" fill="#0c4a6e" />
  </g>
  
  <!-- Disease Vector (Fungus) -->
  <g transform="translate(700, 150)">
    <circle cx="0" cy="0" r="10" fill="#fb923c" />
    <circle cx="0" cy="0" r="5" fill="#ea580c" />
    <circle cx="-5" cy="-8" r="5" fill="#fb923c" />
    <circle cx="8" cy="-3" r="5" fill="#fb923c" />
    <circle cx="5" cy="8" r="6" fill="#fb923c" />
    <circle cx="-8" cy="3" r="4" fill="#fb923c" />
  </g>
  
  <!-- Disease Treatment (Spray) -->
  <g transform="translate(450, 100)">
    <!-- Spray Container -->
    <rect x="-15" y="0" width="30" height="40" rx="5" fill="#3b82f6" />
    <rect x="-10" y="-10" width="20" height="10" fill="#60a5fa" />
    <path d="M0,-10 L0,-15 L5,-15 L5,-10" fill="#60a5fa" />
    
    <!-- Spray Mist -->
    <circle cx="15" cy="-5" r="3" fill="#93c5fd" opacity="0.7" />
    <circle cx="20" cy="-10" r="2" fill="#93c5fd" opacity="0.7" />
    <circle cx="25" cy="-5" r="2.5" fill="#93c5fd" opacity="0.7" />
    <circle cx="22" cy="0" r="2" fill="#93c5fd" opacity="0.7" />
    <circle cx="27" cy="-8" r="1.5" fill="#93c5fd" opacity="0.7" />
    <circle cx="30" cy="-3" r="2" fill="#93c5fd" opacity="0.7" />
  </g>
  
  <!-- Sun Element -->
  <g transform="translate(900, 80)">
    <circle cx="0" cy="0" r="30" fill="#fbbf24" opacity="0.7" />
    <path d="M0,-45 L0,-35 M32,-32 L25,-25 M45,0 L35,0 M32,32 L25,25 M0,45 L0,35 M-32,32 L-25,25 M-45,0 L-35,0 M-32,-32 L-25,-25" 
          stroke="#fbbf24" stroke-width="4" />
  </g>
  
  <!-- Cloud with Rain -->
  <g transform="translate(250, 120)">
    <path d="M0,0 Q20,-20 40,-10 Q60,-25 75,0 Q90,-10 100,10 Q80,30 50,25 Q30,40 0,30 Q-20,20 0,0 Z" 
          fill="#cbd5e1" opacity="0.7" />
    <line x1="20" y1="30" x2="20" y2="45" stroke="#60a5fa" stroke-width="2" />
    <line x1="40" y1="30" x2="40" y2="50" stroke="#60a5fa" stroke-width="2" />
    <line x1="60" y1="30" x2="60" y2="45" stroke="#60a5fa" stroke-width="2" />
    <line x1="80" y1="30" x2="80" y2="40" stroke="#60a5fa" stroke-width="2" />
  </g>
  
  <!-- Decorative elements -->
  <circle cx="200" cy="100" r="80" fill="#16a34a" opacity="0.05" />
  <circle cx="1000" cy="300" r="120" fill="#b91c1c" opacity="0.05" />
</svg>
