<svg xmlns="http://www.w3.org/2000/svg" xmlns:xlink="http://www.w3.org/1999/xlink" viewBox="0 0 1200 400" width="1200" height="400">
  <defs>
    <!-- Modern gradient backgrounds -->
    <linearGradient id="bgGradient" x1="0%" y1="0%" x2="100%" y2="100%">
      <stop offset="0%" stop-color="#f8fafc" />
      <stop offset="100%" stop-color="#e2e8f0" />
    </linearGradient>
    
    <linearGradient id="accentGradient" x1="0%" y1="0%" x2="100%" y2="0%">
      <stop offset="0%" stop-color="#4f46e5" />
      <stop offset="100%" stop-color="#6366f1" />
    </linearGradient>
    
    <!-- Additional decorative gradients -->
    <linearGradient id="decorGradient1" x1="0%" y1="0%" x2="100%" y2="100%">
      <stop offset="0%" stop-color="#4f46e5" stop-opacity="0.05" />
      <stop offset="100%" stop-color="#8b5cf6" stop-opacity="0.05" />
    </linearGradient>
    
    <linearGradient id="decorGradient2" x1="100%" y1="0%" x2="0%" y2="100%">
      <stop offset="0%" stop-color="#10b981" stop-opacity="0.05" />
      <stop offset="100%" stop-color="#6366f1" stop-opacity="0.05" />
    </linearGradient>
    
    <!-- Modern stylized death cause icons -->
    <symbol id="iconHeartDisease" viewBox="0 0 100 100">
      <circle cx="50" cy="50" r="45" fill="#fff" />
      <path d="M50,80 C90,55 90,20 70,20 C55,20 50,35 50,35 C50,35 45,20 30,20 C10,20 10,55 50,80 Z" fill="#fee2e2" stroke="#ef4444" stroke-width="3" stroke-linejoin="round" />
      <path d="M50,45 L50,65 M40,55 L60,55" stroke="#ef4444" stroke-width="3" stroke-linecap="round" />
    </symbol>
    
    <symbol id="iconInfectiousDisease" viewBox="0 0 100 100">
      <circle cx="50" cy="50" r="45" fill="#fff" />
      <circle cx="50" cy="50" r="30" fill="#fef3c7" stroke="#f59e0b" stroke-width="3" />
      <path d="M50,20 L50,30 M50,70 L50,80 M20,50 L30,50 M70,50 L80,50 M29,29 L36,36 M64,36 L71,29 M29,71 L36,64 M64,64 L71,71" stroke="#f59e0b" stroke-width="4" stroke-linecap="round" />
      <circle cx="50" cy="50" r="12" fill="#f59e0b" opacity="0.4" />
    </symbol>
    
    <symbol id="iconCancer" viewBox="0 0 100 100">
      <circle cx="50" cy="50" r="45" fill="#fff" />
      <path d="M35,40 Q30,20 50,25 Q70,20 65,40 Q85,50 65,60 Q70,80 50,75 Q30,80 35,60 Q15,50 35,40" fill="#dbeafe" stroke="#3b82f6" stroke-width="3" stroke-linejoin="round" />
      <path d="M45,45 C48,42 52,42 55,45 C58,48 58,52 55,55 C52,58 48,58 45,55 C42,52 42,48 45,45" fill="#3b82f6" />
    </symbol>
    
    <symbol id="iconRespiratory" viewBox="0 0 100 100">
      <circle cx="50" cy="50" r="45" fill="#fff" />
      <path d="M35,40 Q50,25 65,40 Q80,55 65,70 Q50,85 35,70 Q20,55 35,40" fill="#d1fae5" stroke="#10b981" stroke-width="3" stroke-linejoin="round" />
      <path d="M40,40 Q50,30 60,40 M40,50 Q50,40 60,50 M40,60 Q50,50 60,60" stroke="#10b981" stroke-width="2" fill="none" />
    </symbol>
    
    <symbol id="iconAccident" viewBox="0 0 100 100">
      <circle cx="50" cy="50" r="45" fill="#fff" />
      <path d="M25,75 L50,25 L75,75 Z" fill="#ede9fe" stroke="#8b5cf6" stroke-width="3" stroke-linejoin="round" />
      <path d="M50,45 L50,60 M50,65 L50,67" stroke="#8b5cf6" stroke-width="4" stroke-linecap="round" />
    </symbol>
    
    <symbol id="iconOldAge" viewBox="0 0 100 100">
      <circle cx="50" cy="50" r="45" fill="#fff" />
      <circle cx="50" cy="50" r="30" fill="#e2e8f0" stroke="#64748b" stroke-width="3" />
      <path d="M35,45 Q50,60 65,45" stroke="#64748b" stroke-width="3" fill="none" stroke-linecap="round" />
      <path d="M40,35 Q50,25 60,35" stroke="#64748b" stroke-width="2" fill="none" stroke-linecap="round" />
      <path d="M30,55 Q50,75 70,55" stroke="#64748b" stroke-width="2" fill="none" stroke-linecap="round" opacity="0.6" />
    </symbol>

    <!-- Modern wavy pattern -->
    <pattern id="modernPattern" width="100" height="40" patternUnits="userSpaceOnUse">
      <path d="M0,20 Q20,5 40,20 T80,20 T120,20" fill="none" stroke="#4f46e5" stroke-width="1" stroke-opacity="0.1"/>
      <path d="M0,40 Q20,25 40,40 T80,40 T120,40" fill="none" stroke="#6366f1" stroke-width="1" stroke-opacity="0.1"/>
    </pattern>

    <!-- Filter for elegant shadows -->
    <filter id="modernShadow" x="-20%" y="-20%" width="140%" height="140%">
      <feDropShadow dx="0" dy="10" stdDeviation="12" flood-color="#334155" flood-opacity="0.15"/>
    </filter>
    
    <!-- Dot patterns for background -->
    <pattern id="dotPattern" width="20" height="20" patternUnits="userSpaceOnUse">
      <circle cx="3" cy="3" r="1" fill="#cbd5e1" fill-opacity="0.5"/>
    </pattern>
  </defs>
  
  <!-- Main background -->
  <rect width="100%" height="100%" fill="url(#bgGradient)"/>
  <rect width="100%" height="100%" fill="url(#modernPattern)" opacity="0.6"/>
  <rect width="100%" height="100%" fill="url(#dotPattern)"/>
  
  <!-- Enhanced decorative elements to provide visual interest without titles -->
  <path d="M0,0 L1200,0 L1200,400 L0,400 Z" fill="url(#decorGradient1)"/>
  <path d="M1200,0 L0,0 L0,400 L1200,400 Z" fill="url(#decorGradient2)"/>
  <circle cx="100" cy="50" r="150" fill="#4f46e5" opacity="0.03"/>
  <circle cx="1100" cy="350" r="120" fill="#8b5cf6" opacity="0.03"/>
  <path d="M-50,300 Q300,250 600,320 T1300,280" fill="none" stroke="#6366f1" stroke-width="40" stroke-opacity="0.04"/>
  
  <!-- Abstract flowing lines -->
  <path d="M-50,100 C200,130 400,50 600,80 S900,180 1300,120" fill="none" stroke="#4f46e5" stroke-width="2" stroke-opacity="0.1"/>
  <path d="M-50,140 C200,170 400,90 600,120 S900,220 1300,160" fill="none" stroke="#4f46e5" stroke-width="1.5" stroke-opacity="0.08"/>
  <path d="M-50,320 C200,290 400,350 600,320 S900,250 1300,280" fill="none" stroke="#6366f1" stroke-width="2" stroke-opacity="0.1"/>
  
  <!-- Centered death cause cards -->
  <g filter="url(#modernShadow)" transform="translate(0, 15)">
    <!-- Heart Disease -->
    <rect x="85" y="110" width="150" height="180" rx="15" fill="white"/>
    <use xlink:href="#iconHeartDisease" x="110" y="120" width="100" height="100"/>
    <text x="160" y="240" font-size="18" font-weight="600" text-anchor="middle" font-family="system-ui, sans-serif" fill="#b91c1c">हृदयरोग</text>
    
    <!-- Infectious -->
    <rect x="255" y="110" width="150" height="180" rx="15" fill="white"/>
    <use xlink:href="#iconInfectiousDisease" x="280" y="120" width="100" height="100"/>
    <text x="330" y="240" font-size="18" font-weight="600" text-anchor="middle" font-family="system-ui, sans-serif" fill="#92400e">संक्रामक रोग</text>
    
    <!-- Cancer -->
    <rect x="425" y="110" width="150" height="180" rx="15" fill="white"/>
    <use xlink:href="#iconCancer" x="450" y="120" width="100" height="100"/>
    <text x="500" y="240" font-size="18" font-weight="600" text-anchor="middle" font-family="system-ui, sans-serif" fill="#1d4ed8">क्यान्सर</text>
    
    <!-- Respiratory -->
    <rect x="595" y="110" width="150" height="180" rx="15" fill="white"/>
    <use xlink:href="#iconRespiratory" x="620" y="120" width="100" height="100"/>
    <text x="670" y="240" font-size="18" font-weight="600" text-anchor="middle" font-family="system-ui, sans-serif" fill="#047857">श्वासप्रश्वास रोग</text>
    
    <!-- Accident -->
    <rect x="765" y="110" width="150" height="180" rx="15" fill="white"/>
    <use xlink:href="#iconAccident" x="790" y="120" width="100" height="100"/>
    <text x="840" y="240" font-size="18" font-weight="600" text-anchor="middle" font-family="system-ui, sans-serif" fill="#5b21b6">दुर्घटना</text>
    
    <!-- Old Age -->
    <rect x="935" y="110" width="150" height="180" rx="15" fill="white"/>
    <use xlink:href="#iconOldAge" x="960" y="120" width="100" height="100"/>
    <text x="1010" y="240" font-size="18" font-weight="600" text-anchor="middle" font-family="system-ui, sans-serif" fill="#64748b">वृद्धावस्था</text>
  </g>
  
  <!-- Enhanced connecting lines with animated-like effect -->
  <g>
    <path d="M235,170 C250,170 240,170 255,170" stroke="url(#accentGradient)" stroke-width="3" stroke-dasharray="1,8" stroke-opacity="0.6"/>
    <path d="M405,170 C420,170 410,170 425,170" stroke="url(#accentGradient)" stroke-width="3" stroke-dasharray="1,8" stroke-opacity="0.6"/>
    <path d="M575,170 C590,170 580,170 595,170" stroke="url(#accentGradient)" stroke-width="3" stroke-dasharray="1,8" stroke-opacity="0.6"/>
    <path d="M745,170 C760,170 750,170 765,170" stroke="url(#accentGradient)" stroke-width="3" stroke-dasharray="1,8" stroke-opacity="0.6"/>
    <path d="M915,170 C930,170 920,170 935,170" stroke="url(#accentGradient)" stroke-width="3" stroke-dasharray="1,8" stroke-opacity="0.6"/>
    
    <!-- Additional connecting dotted lines for visual flair -->
    <path d="M235,200 C250,210 240,210 255,200" stroke="#4f46e5" stroke-width="1.5" stroke-dasharray="1,3" stroke-opacity="0.3"/>
    <path d="M405,200 C420,210 410,210 425,200" stroke="#4f46e5" stroke-width="1.5" stroke-dasharray="1,3" stroke-opacity="0.3"/>
    <path d="M575,200 C590,210 580,210 595,200" stroke="#4f46e5" stroke-width="1.5" stroke-dasharray="1,3" stroke-opacity="0.3"/>
    <path d="M745,200 C760,210 750,210 765,200" stroke="#4f46e5" stroke-width="1.5" stroke-dasharray="1,3" stroke-opacity="0.3"/>
    <path d="M915,200 C930,210 920,210 935,200" stroke="#4f46e5" stroke-width="1.5" stroke-dasharray="1,3" stroke-opacity="0.3"/>
  </g>
  
  <!-- Subtle geometric decorative elements -->
  <g opacity="0.15">
    <path d="M50,350 L150,320 L100,280 Z" fill="#4f46e5"/>
    <path d="M1150,50 L1100,100 L1180,120 Z" fill="#8b5cf6"/>
    <circle cx="200" cy="320" r="15" fill="#10b981"/>
    <circle cx="950" cy="330" r="12" fill="#f59e0b"/>
    <circle cx="1100" cy="290" r="10" fill="#ef4444"/>
    <rect x="180" y="60" width="20" height="20" rx="4" fill="#60a5fa"/>
    <rect x="960" y="80" width="15" height="15" rx="3" fill="#8b5cf6"/>
  </g>
  
  <!-- ECG line across the bottom as a subtle metaphor for life and death -->
  <path d="M0,350 L200,350 L220,330 L240,370 L260,300 L280,350 L500,350 L520,330 L540,370 L560,300 L580,350 L800,350 L820,330 L840,370 L860,300 L880,350 L1200,350" 
        fill="none" stroke="#ef4444" stroke-width="1.5" stroke-opacity="0.3" />
</svg>
