<svg width="1200" height="400" viewBox="0 0 1200 400" xmlns="http://www.w3.org/2000/svg">
  <!-- Background -->
  <rect width="100%" height="100%" fill="#1e40af" />
  
  <!-- Abstract pattern -->
  <path d="M0 100 Q300 150 600 100 Q900 50 1200 100 L1200 400 L0 400 Z" fill="#2563eb" opacity="0.7" />
  <path d="M0 150 Q300 200 600 150 Q900 100 1200 150 L1200 400 L0 400 Z" fill="#3b82f6" opacity="0.5" />
  <path d="M0 200 Q300 250 600 200 Q900 150 1200 200 L1200 400 L0 400 Z" fill="#60a5fa" opacity="0.3" />
  
  <!-- Chart elements -->
  <g transform="translate(100, 100)">
    <!-- Bar chart -->
    <rect x="0" y="50" width="40" height="150" fill="#ffffff" opacity="0.8" rx="4" />
    <rect x="50" y="80" width="40" height="120" fill="#ffffff" opacity="0.8" rx="4" />
    <rect x="100" y="30" width="40" height="170" fill="#ffffff" opacity="0.8" rx="4" />
    <rect x="150" y="100" width="40" height="100" fill="#ffffff" opacity="0.8" rx="4" />
    
    <!-- Pie chart -->
    <g transform="translate(350, 100)">
      <circle cx="0" cy="0" r="70" fill="none" stroke="#ffffff" stroke-width="20" stroke-dasharray="120 30 60 40 90" opacity="0.8" />
    </g>
    
    <!-- Line chart -->
    <g transform="translate(570, 120)">
      <polyline points="0,50 50,10 100,60 150,30 200,80" fill="none" stroke="#ffffff" stroke-width="5" opacity="0.8" />
      <circle cx="0" cy="50" r="5" fill="#ffffff" />
      <circle cx="50" cy="10" r="5" fill="#ffffff" />
      <circle cx="100" cy="60" r="5" fill="#ffffff" />
      <circle cx="150" cy="30" r="5" fill="#ffffff" />
      <circle cx="200" cy="80" r="5" fill="#ffffff" />
    </g>
  </g>
  
  <!-- People icons representing demographics -->
  <g transform="translate(850, 100)">
    <!-- Group of diverse people icons -->
    <g transform="translate(0, 0)">
      <circle cx="0" cy="0" r="15" fill="#ffffff" />
      <circle cx="0" cy="-25" r="10" fill="#ffffff" />
      <rect x="-15" y="5" width="30" height="40" fill="#ffffff" rx="5" />
    </g>
    <g transform="translate(60, -10)">
      <circle cx="0" cy="0" r="12" fill="#ffffff" opacity="0.9" />
      <circle cx="0" cy="-20" r="8" fill="#ffffff" opacity="0.9" />
      <rect x="-12" y="4" width="24" height="35" fill="#ffffff" opacity="0.9" rx="5" />
    </g>
    <g transform="translate(110, 10)">
      <circle cx="0" cy="0" r="14" fill="#ffffff" opacity="0.8" />
      <circle cx="0" cy="-22" r="9" fill="#ffffff" opacity="0.8" />
      <rect x="-14" y="4" width="28" height="38" fill="#ffffff" opacity="0.8" rx="5" />
    </g>
    <g transform="translate(30, 50)">
      <circle cx="0" cy="0" r="13" fill="#ffffff" opacity="0.7" />
      <circle cx="0" cy="-21" r="8" fill="#ffffff" opacity="0.7" />
      <rect x="-13" y="4" width="26" height="36" fill="#ffffff" opacity="0.7" rx="5" />
    </g>
    <g transform="translate(80, 40)">
      <circle cx="0" cy="0" r="11" fill="#ffffff" opacity="0.6" />
      <circle cx="0" cy="-18" r="7" fill="#ffffff" opacity="0.6" />
      <rect x="-11" y="4" width="22" height="32" fill="#ffffff" opacity="0.6" rx="5" />
    </g>
  </g>
  
  <!-- Gridlines -->
  <g opacity="0.2">
    <line x1="0" y1="250" x2="1200" y2="250" stroke="#ffffff" stroke-width="1" />
    <line x1="0" y1="300" x2="1200" y2="300" stroke="#ffffff" stroke-width="1" />
    <line x1="0" y1="350" x2="1200" y2="350" stroke="#ffffff" stroke-width="1" />
    <line x1="300" y1="200" x2="300" y2="400" stroke="#ffffff" stroke-width="1" />
    <line x1="600" y1="200" x2="600" y2="400" stroke="#ffffff" stroke-width="1" />
    <line x1="900" y1="200" x2="900" y2="400" stroke="#ffffff" stroke-width="1" />
  </g>
</svg>
