<svg width="1200" height="400" viewBox="0 0 1200 400" xmlns="http://www.w3.org/2000/svg">
  <!-- Background -->
  <rect width="100%" height="100%" fill="#0f766e" />
  
  <!-- Abstract pattern -->
  <path d="M0 100 Q300 150 600 100 Q900 50 1200 100 L1200 400 L0 400 Z" fill="#0d9488" opacity="0.7" />
  <path d="M0 150 Q300 200 600 150 Q900 100 1200 150 L1200 400 L0 400 Z" fill="#14b8a6" opacity="0.5" />
  <path d="M0 200 Q300 250 600 200 Q900 150 1200 200 L1200 400 L0 400 Z" fill="#5eead4" opacity="0.3" />
  
  <!-- Economic chart elements -->
  <g transform="translate(100, 100)">
    <!-- Growth chart -->
    <polyline points="0,150 50,130 100,120 150,90 200,70" fill="none" stroke="#ffffff" stroke-width="5" opacity="0.8" />
    <polyline points="0,150 50,160 100,140 150,170 200,130" fill="none" stroke="#ffffff" stroke-width="5" opacity="0.6" stroke-dasharray="5,5" />
    
    <!-- Grid lines -->
    <line x1="0" y1="0" x2="0" y2="150" stroke="#ffffff" stroke-width="2" opacity="0.5" />
    <line x1="0" y1="150" x2="200" y2="150" stroke="#ffffff" stroke-width="2" opacity="0.5" />
    <line x1="50" y1="145" x2="50" y2="155" stroke="#ffffff" stroke-width="2" opacity="0.5" />
    <line x1="100" y1="145" x2="100" y2="155" stroke="#ffffff" stroke-width="2" opacity="0.5" />
    <line x1="150" y1="145" x2="150" y2="155" stroke="#ffffff" stroke-width="2" opacity="0.5" />
    <line x1="200" y1="145" x2="200" y2="155" stroke="#ffffff" stroke-width="2" opacity="0.5" />
    
    <!-- Pie chart for economic sectors -->
    <g transform="translate(350, 100)">
      <circle cx="0" cy="0" r="70" fill="none" stroke="#ffffff" stroke-width="20" stroke-dasharray="110 40 70 30 80" opacity="0.8" />
    </g>
  </g>
  
  <!-- Currency and economic symbols -->
  <g transform="translate(650, 120)">
    <!-- Rupee symbol -->
    <g transform="translate(0, 0) scale(2)">
      <circle cx="0" cy="0" r="25" fill="#ffffff" opacity="0.8" />
      <path d="M-10,-10 H10 M-10,0 H10 M-10,10 H5 M-5,-10 v20 M5,0 l-10,10" stroke="#0f766e" stroke-width="3" fill="none" />
    </g>
    
    <!-- Dollar symbol -->
    <g transform="translate(100, 0) scale(1.7)">
      <circle cx="0" cy="0" r="25" fill="#ffffff" opacity="0.7" />
      <path d="M0,-15 v30 M-10,-10 H10 M-10,10 H10" stroke="#0f766e" stroke-width="3" fill="none" />
    </g>
  </g>
  
  <!-- Agriculture related icons -->
  <g transform="translate(850, 100)">
    <!-- Wheat/crops -->
    <g transform="translate(0, 0)">
      <path d="M0,0 C10,-20 20,-20 30,-10 C20,-5 15,-15 20,-30 C25,-15 35,-10 40,-20 C40,-10 50,-5 60,-15 L60,60 L0,60 Z" fill="#ffffff" opacity="0.8" />
    </g>
    
    <!-- Factory/industry -->
    <g transform="translate(100, 10)">
      <rect x="0" y="0" width="80" height="50" fill="#ffffff" opacity="0.7" />
      <rect x="15" y="-20" width="15" height="20" fill="#ffffff" opacity="0.7" />
      <rect x="50" y="-30" width="15" height="30" fill="#ffffff" opacity="0.7" />
      <rect x="10" y="20" width="15" height="15" fill="#0f766e" opacity="0.9" />
      <rect x="40" y="20" width="15" height="15" fill="#0f766e" opacity="0.9" />
    </g>
  </g>
  
  <!-- Bar chart for economic data -->
  <g transform="translate(400, 250)">
    <rect x="0" y="0" width="40" height="100" fill="#ffffff" opacity="0.7" rx="3" />
    <rect x="50" y="20" width="40" height="80" fill="#ffffff" opacity="0.7" rx="3" />
    <rect x="100" y="40" width="40" height="60" fill="#ffffff" opacity="0.7" rx="3" />
    <rect x="150" y="10" width="40" height="90" fill="#ffffff" opacity="0.7" rx="3" />
    <rect x="200" y="30" width="40" height="70" fill="#ffffff" opacity="0.7" rx="3" />
    
    <!-- Horizontal guide lines -->
    <line x1="-10" y1="0" x2="240" y2="0" stroke="#ffffff" stroke-width="1" opacity="0.5" stroke-dasharray="5,5" />
    <line x1="-10" y1="25" x2="240" y2="25" stroke="#ffffff" stroke-width="1" opacity="0.5" stroke-dasharray="5,5" />
    <line x1="-10" y1="50" x2="240" y2="50" stroke="#ffffff" stroke-width="1" opacity="0.5" stroke-dasharray="5,5" />
    <line x1="-10" y1="75" x2="240" y2="75" stroke="#ffffff" stroke-width="1" opacity="0.5" stroke-dasharray="5,5" />
    <line x1="-10" y1="100" x2="240" y2="100" stroke="#ffffff" stroke-width="1" opacity="0.5" />
  </g>
  
  <!-- Coins representing currency -->
  <g transform="translate(950, 250)">
    <circle cx="0" cy="0" r="25" fill="#ffffff" opacity="0.9" stroke="#0f766e" stroke-width="3" />
    <circle cx="40" cy="20" r="25" fill="#ffffff" opacity="0.8" stroke="#0f766e" stroke-width="3" />
    <circle cx="-40" cy="20" r="25" fill="#ffffff" opacity="0.7" stroke="#0f766e" stroke-width="3" />
  </g>
  
  <!-- Gridlines -->
  <g opacity="0.2">
    <line x1="0" y1="250" x2="1200" y2="250" stroke="#ffffff" stroke-width="1" />
    <line x1="0" y1="300" x2="1200" y2="300" stroke="#ffffff" stroke-width="1" />
    <line x1="0" y1="350" x2="1200" y2="350" stroke="#ffffff" stroke-width="1" />
    <line x1="300" y1="200" x2="300" y2="400" stroke="#ffffff" stroke-width="1" />
    <line x1="600" y1="200" x2="600" y2="400" stroke="#ffffff" stroke-width="1" />
    <line x1="900" y1="200" x2="900" y2="400" stroke="#ffffff" stroke-width="1" />
  </g>
</svg>
