<?xml version="1.0" encoding="UTF-8" standalone="no"?>
<svg width="1200" height="400" viewBox="0 0 1200 400" xmlns="http://www.w3.org/2000/svg">
  <defs>
    <linearGradient id="bg-gradient" x1="0%" y1="0%" x2="100%" y2="100%">
      <stop offset="0%" stop-color="#f8fafc" />
      <stop offset="100%" stop-color="#e2e8f0" />
    </linearGradient>
  </defs>
  
  <!-- Background -->
  <rect width="1200" height="400" fill="url(#bg-gradient)" />
  
  <!-- Sun Element -->
  <g transform="translate(1000, 100)">
    <circle cx="0" cy="0" r="40" fill="#fbbf24" opacity="0.6" />
    <path d="M0,-55 L0,-45 M39,-39 L32,-32 M55,0 L45,0 M39,39 L32,32 M0,55 L0,45 M-39,39 L-32,32 M-55,0 L-45,0 M-39,-39 L-32,-32" 
          stroke="#fbbf24" stroke-width="4" />
  </g>
  
  <!-- Ground/Field -->
  <rect x="150" y="250" width="900" height="150" fill="#92400e" opacity="0.4" rx="5" />
  
  <!-- Plowed Field Rows -->
  <g transform="translate(150, 280)">
    <path d="M0,0 L900,0 M0,30 L900,30 M0,60 L900,60 M0,90 L900,90" stroke="#7c2d12" stroke-width="2" stroke-opacity="0.3" />
  </g>
  
  <!-- Rice/Wheat Plant Group -->
  <g transform="translate(250, 200)">
    <!-- Stems -->
    <path d="M0,50 L0,15 M10,50 L10,10 M20,50 L20,12 M30,50 L30,8 M40,50 L40,10" 
          stroke="#16a34a" stroke-width="1.5" />
    
    <!-- Leaves/Tips -->
    <path d="M0,15 L-5,5 M0,25 L-6,20 M10,10 L5,0 M10,20 L4,15 M20,12 L25,2 M20,25 L26,18 M30,8 L35,-2 M30,20 L36,15 M40,10 L35,0 M40,25 L34,15" 
          stroke="#16a34a" stroke-width="1.5" />
    
    <!-- Grains -->
    <ellipse cx="0" cy="15" rx="3" ry="6" fill="#f59e0b" />
    <ellipse cx="10" cy="10" rx="3" ry="6" fill="#f59e0b" />
    <ellipse cx="20" cy="12" rx="3" ry="6" fill="#f59e0b" />
    <ellipse cx="30" cy="8" rx="3" ry="6" fill="#f59e0b" />
    <ellipse cx="40" cy="10" rx="3" ry="6" fill="#f59e0b" />
  </g>
  
  <!-- Corn Plant Group -->
  <g transform="translate(450, 200)">
    <!-- Stems -->
    <path d="M20,50 L20,0" stroke="#15803d" stroke-width="3" />
    
    <!-- Leaves -->
    <path d="M20,10 C0,15 10,25 20,20 M20,25 C0,30 10,40 20,35 M20,10 C40,15 30,25 20,20 M20,25 C40,30 30,40 20,35"
          stroke="#16a34a" stroke-width="1.5" fill="#16a34a" fill-opacity="0.4" />
    
    <!-- Corn Cobs -->
    <ellipse cx="15" cy="15" rx="5" ry="10" transform="rotate(-20 15 15)" fill="#fbbf24" />
    <ellipse cx="25" cy="30" rx="5" ry="10" transform="rotate(20 25 30)" fill="#fbbf24" />
  </g>
  
  <!-- Millet Plant Group -->
  <g transform="translate(650, 200)">
    <!-- Stems -->
    <path d="M0,50 L0,10 M10,50 L10,5 M20,50 L20,8 M30,50 L30,12" 
          stroke="#16a34a" stroke-width="1.5" />
    
    <!-- Seed Heads -->
    <path d="M0,10 C-5,0 5,0 0,10 M10,5 C5,-5 15,-5 10,5 M20,8 C15,-2 25,-2 20,8 M30,12 C25,2 35,2 30,12"
          fill="#d6b656" stroke="#ca8a04" stroke-width="1" />
  </g>
  
  <!-- Potato Plant Group -->
  <g transform="translate(850, 200)">
    <!-- Stems and Leaves -->
    <path d="M0,50 L0,20 M20,50 L20,15 M40,50 L40,25" stroke="#16a34a" stroke-width="2" />
    
    <!-- Potato Plant Foliage -->
    <path d="M0,20 C-10,10 -15,20 -5,25 C-15,30 -10,40 0,30 M20,15 C10,5 5,15 15,20 C5,25 10,35 20,25 M40,25 C30,15 25,25 35,30 C25,35 30,45 40,35"
          fill="#16a34a" fill-opacity="0.5" stroke="#15803d" stroke-width="1" />
    
    <!-- Potatoes Underground -->
    <ellipse cx="0" cy="60" rx="8" ry="5" fill="#a16207" />
    <ellipse cx="20" cy="65" rx="10" ry="6" fill="#a16207" />
    <ellipse cx="40" cy="62" rx="9" ry="5" fill="#a16207" />
  </g>
  
  <!-- Farmer Figure -->
  <g transform="translate(150, 200)">
    <!-- Body -->
    <circle cx="0" cy="0" r="15" fill="#64748b" />
    <path d="M0,15 L0,40" stroke="#64748b" stroke-width="10" />
    
    <!-- Arms -->
    <path d="M0,20 L-15,30" stroke="#64748b" stroke-width="5" />
    <path d="M0,20 L15,30" stroke="#64748b" stroke-width="5" />
    
    <!-- Legs -->
    <path d="M0,40 L-10,60" stroke="#64748b" stroke-width="5" />
    <path d="M0,40 L10,60" stroke="#64748b" stroke-width="5" />
    
    <!-- Farmer's Hat -->
    <path d="M-15,-5 L15,-5 L10,-10 L-10,-10 Z" fill="#92400e" />
    <path d="M-10,-10 L0,-20 L10,-10" fill="#92400e" />
  </g>
  
  <!-- Basket/Harvest -->
  <g transform="translate(1050, 230)">
    <!-- Basket -->
    <path d="M-30,20 C-30,-10 30,-10 30,20" fill="none" stroke="#92400e" stroke-width="3" />
    <path d="M-30,20 L-25,40 L25,40 L30,20" fill="#ca8a04" stroke="#92400e" stroke-width="2" />
    
    <!-- Crops in Basket -->
    <circle cx="-10" cy="15" r="6" fill="#f59e0b" />
    <circle cx="10" cy="10" r="8" fill="#f59e0b" />
    <ellipse cx="0" cy="20" rx="10" ry="5" fill="#a16207" />
    <ellipse cx="15" cy="25" rx="5" ry="3" fill="#a16207" />
  </g>
  
  <!-- Rain Cloud -->
  <g transform="translate(200, 100)">
    <path d="M0,20 Q20,0 40,10 Q60,-10 80,5 Q100,-5 120,15 Q100,35 70,30 Q50,45 20,35 Q0,45 -10,30 Q-5,15 0,20 Z" 
          fill="#cbd5e1" opacity="0.6" />
    
    <!-- Rain Drops -->
    <path d="M30,35 L25,45 M50,40 L45,50 M70,35 L65,45 M90,30 L85,40" 
          stroke="#60a5fa" stroke-width="2" stroke-linecap="round" />
  </g>
  
  <!-- Decorative elements -->
  <circle cx="150" cy="100" r="80" fill="#16a34a" opacity="0.05" />
  <circle cx="1050" cy="300" r="120" fill="#f59e0b" opacity="0.05" />
</svg>
