<?xml version="1.0" encoding="UTF-8" standalone="no"?>
<svg width="1200" height="400" viewBox="0 0 1200 400"
    xmlns="http://www.w3.org/2000/svg"
    xmlns:xlink="http://www.w3.org/1999/xlink">
    <defs>
        <!-- Gradients for background and elements -->
        <linearGradient id="bg-gradient" x1="0%" y1="0%" x2="100%" y2="100%">
            <stop offset="0%" stop-color="#0f172a" />
            <stop offset="100%" stop-color="#334155" />
        </linearGradient>

        <linearGradient id="mango-gradient" x1="0%" y1="0%" x2="100%" y2="100%">
            <stop offset="0%" stop-color="#f39c12" />
            <stop offset="100%" stop-color="#e67e22" />
        </linearGradient>

        <linearGradient id="jackfruit-gradient" x1="0%" y1="0%" x2="100%" y2="100%">
            <stop offset="0%" stop-color="#27ae60" />
            <stop offset="100%" stop-color="#2ecc71" />
        </linearGradient>

        <linearGradient id="litchi-gradient" x1="0%" y1="0%" x2="100%" y2="100%">
            <stop offset="0%" stop-color="#8e44ad" />
            <stop offset="100%" stop-color="#9b59b6" />
        </linearGradient>

        <linearGradient id="banana-gradient" x1="0%" y1="0%" x2="100%" y2="100%">
            <stop offset="0%" stop-color="#f1c40f" />
            <stop offset="100%" stop-color="#f39c12" />
        </linearGradient>

        <linearGradient id="lemon-gradient" x1="0%" y1="0%" x2="100%" y2="100%">
            <stop offset="0%" stop-color="#2ecc71" />
            <stop offset="100%" stop-color="#1abc9c" />
        </linearGradient>

        <linearGradient id="orange-gradient" x1="0%" y1="0%" x2="100%" y2="100%">
            <stop offset="0%" stop-color="#e74c3c" />
            <stop offset="100%" stop-color="#d35400" />
        </linearGradient>

        <linearGradient id="money-gradient" x1="0%" y1="0%" x2="100%" y2="100%">
            <stop offset="0%" stop-color="#2ecc71" />
            <stop offset="100%" stop-color="#27ae60" />
        </linearGradient>

        <!-- Path for curved text at bottom -->
        <path id="curved-text-path" d="M200,350 Q600,280 1000,350" fill="none" />

        <!-- Mango shape -->
        <path id="mango" d="M25,0 C35,-5 65,-5 75,0 C95,10 95,40 85,60 C70,90 30,90 15,60 C5,40 5,10 25,0" />

        <!-- Jackfruit shape -->
        <path id="jackfruit" d="M50,0 C70,0 90,20 90,40 C90,70 70,100 50,100 C30,100 10,70 10,40 C10,20 30,0 50,0" />

        <!-- Litchi shape -->
        <path id="litchi" d="M50,0 C78.14,0 100,22.39 100,50 C100,77.61 78.14,100 50,100 C22.39,100 0,77.61 0,50 C0,22.39 22.39,0 50,0Z" />

        <!-- Banana shape -->
        <path id="banana" d="M90,10 C70,0 30,-10 10,20 C0,40 20,80 40,90 C60,100 80,80 90,70 C100,60 110,20 90,10Z" />

        <!-- Lemon shape -->
        <path id="lemon" d="M50,0 C80,0 100,30 100,50 C100,80 80,100 50,100 C20,100 0,80 0,50 C0,30 20,0 50,0Z" />

        <!-- Orange shape -->
        <path id="orange" d="M50,0 C77.6,0 100,22.4 100,50 C100,77.6 77.6,100 50,100 C22.4,100 0,77.6 0,50 C0,22.4 22.4,0 50,0Z" />

        <!-- Fruit basket -->
        <path id="basket" d="M10,30 C0,50 0,70 30,90 C60,110 90,110 120,90 C150,70 150,50 140,30 L120,50 L30,50 Z" />

        <!-- Tree -->
        <path id="tree" d="M40,100 C40,60 0,60 0,30 C0,0 30,0 40,20 C50,0 80,0 80,30 C80,60 40,60 40,100" />

        <!-- Sack of fruits -->
        <path id="fruit-sack" d="M10,30 C0,20 0,0 25,0 C50,0 50,20 40,30 L40,90 C40,110 10,110 10,90 Z" />

        <!-- Rupee symbol -->
        <path id="rupee-symbol" d="M0,0 L30,0 L30,10 L20,10 L30,30 L0,30 L0,20 L10,20 L0,0 Z" />

        <!-- Market stall -->
        <path id="market-stall" d="M0,20 L100,20 L90,0 L10,0 Z M10,20 L10,70 L90,70 L90,20 Z M0,20 L0,80 L100,80 L100,20 Z" />

        <!-- Farmer -->
        <path id="farmer" d="M25,10 C25,4.5 29.5,0 35,0 C40.5,0 45,4.5 45,10 C45,15.5 40.5,20 35,20 C29.5,20 25,15.5 25,10 Z M15,45 C15,25 55,25 55,45 L55,80 L45,80 L45,60 L35,80 L25,60 L25,80 L15,80 Z" />

        <!-- Field/Orchard -->
        <path id="orchard" d="M0,0 L100,0 L100,60 L0,60 Z" />

        <!-- Pie chart segment -->
        <path id="pie-segment-25" d="M50,50 L50,0 A50,50 0 0,1 85,15 Z" />
        <path id="pie-segment-50" d="M50,50 L50,0 A50,50 0 0,1 100,50 Z" />
        <path id="pie-segment-75" d="M50,50 L50,0 A50,50 0 0,1 50,100 Z" />

        <!-- Fruit type bubble -->
        <path id="fruit-bubble" d="M0,0 Q5,-15 20,-15 L80,-15 Q95,-15 100,0 L100,40 Q100,55 85,55 L60,55 L45,70 L30,55 L15,55 Q0,55 0,40 Z" />

        <!-- Grid pattern for background -->
        <pattern id="grid-pattern" x="0" y="0" width="40" height="40" patternUnits="userSpaceOnUse">
            <path d="M0,0 L40,0 L40,40 L0,40 Z" fill="none" stroke="#1e293b" stroke-width="0.5" opacity="0.3" />
        </pattern>

        <!-- Leaf pattern -->
        <path id="leaf" d="M0,10 C5,-5 15,-5 20,10 C15,15 5,15 0,10 Z" />
    </defs>

    <!-- Background with gradient and grid -->
    <rect width="1200" height="400" fill="url(#bg-gradient)" />
    <rect width="1200" height="400" fill="url(#grid-pattern)" />

    <!-- Decorative elements -->
    <g opacity="0.1">
        <circle cx="150" cy="80" r="40" fill="white" />
        <circle cx="1050" cy="100" r="50" fill="white" />
        <circle cx="600" cy="50" r="30" fill="white" />
        <circle cx="100" cy="320" r="35" fill="white" />
        <circle cx="1100" cy="300" r="45" fill="white" />
    </g>

    <!-- Animated clouds -->
    <g opacity="0.3">
        <path d="M100,70 Q120,50 150,60 Q170,40 200,50 Q220,30 250,50 Q230,70 200,65 Q180,75 150,70 Q130,80 100,70 Z" fill="white">
            <animate attributeName="d" values="M100,70 Q120,50 150,60 Q170,40 200,50 Q220,30 250,50 Q230,70 200,65 Q180,75 150,70 Q130,80 100,70 Z;
                                        M110,70 Q130,50 160,60 Q180,40 210,50 Q230,30 260,50 Q240,70 210,65 Q190,75 160,70 Q140,80 110,70 Z;
                                        M100,70 Q120,50 150,60 Q170,40 200,50 Q220,30 250,50 Q230,70 200,65 Q180,75 150,70 Q130,80 100,70 Z" dur="20s" repeatCount="indefinite" />
        </path>

        <path d="M700,50 Q730,30 760,45 Q780,20 810,40 Q790,60 760,55 Q740,65 700,50 Z" fill="white">
            <animate attributeName="d" values="M700,50 Q730,30 760,45 Q780,20 810,40 Q790,60 760,55 Q740,65 700,50 Z;
                                        M710,50 Q740,30 770,45 Q790,20 820,40 Q800,60 770,55 Q750,65 710,50 Z;
                                        M700,50 Q730,30 760,45 Q780,20 810,40 Q790,60 760,55 Q740,65 700,50 Z" dur="15s" repeatCount="indefinite" />
        </path>

        <path d="M400,90 Q430,60 460,80 Q480,50 510,70 Q490,100 460,90 Q440,110 400,90 Z" fill="white">
            <animate attributeName="d" values="M400,90 Q430,60 460,80 Q480,50 510,70 Q490,100 460,90 Q440,110 400,90 Z;
                                        M390,90 Q420,60 450,80 Q470,50 500,70 Q480,100 450,90 Q430,110 390,90 Z;
                                        M400,90 Q430,60 460,80 Q480,50 510,70 Q490,100 460,90 Q440,110 400,90 Z" dur="18s" repeatCount="indefinite" />
        </path>
    </g>

    <!-- Sun -->
    <g transform="translate(900, 60)">
        <circle cx="0" cy="0" r="30" fill="#f39c12" opacity="0.7" />
        <g opacity="0.7">
            <path d="M0,-40 L0,-35 M28,-28 L25,-25 M40,0 L35,0 M28,28 L25,25 M0,40 L0,35 M-28,28 L-25,25 M-40,0 L-35,0 M-28,-28 L-25,-25" stroke="#f39c12" stroke-width="3" />
        </g>
    </g>

    <!-- Main fruits visualization section -->
    <!-- Mango -->
    <g transform="translate(100, 100)">
        <g transform="scale(0.8)">
            <use href="#mango" fill="url(#mango-gradient)" />
            <!-- Mango details -->
            <path d="M50,20 C55,25 60,20 65,25" stroke="#e67e22" stroke-width="1" fill="none" />
            <use href="#leaf" fill="#2ecc71" transform="translate(70, 5) rotate(30)" />
        </g>
        <g transform="translate(10, 90) scale(1)">
            <use href="#fruit-bubble" fill="url(#mango-gradient)" />
            <text x="50" y="25" font-family="Arial" font-size="14" fill="white" text-anchor="middle">आँप</text>
        </g>
    </g>

    <!-- Jackfruit -->
    <g transform="translate(240, 100)">
        <g transform="scale(0.8)">
            <use href="#jackfruit" fill="url(#jackfruit-gradient)" />
            <!-- Jackfruit details -->
            <path d="M20,40 L80,40 M20,60 L80,60" stroke="#27ae60" stroke-width="1" opacity="0.7" />
            <path d="M50,10 L50,30 M30,20 L70,20" stroke="#27ae60" stroke-width="1" opacity="0.7" />
            <use href="#leaf" fill="#2ecc71" transform="translate(80, 10) rotate(45)" />
        </g>
        <g transform="translate(10, 90) scale(1)">
            <use href="#fruit-bubble" fill="url(#jackfruit-gradient)" />
            <text x="50" y="25" font-family="Arial" font-size="14" fill="white" text-anchor="middle">रुखकटहर</text>
        </g>
    </g>

    <!-- Litchi -->
    <g transform="translate(380, 100)">
        <g transform="scale(0.7)">
            <use href="#litchi" fill="url(#litchi-gradient)" />
            <!-- Litchi details -->
            <path d="M25,25 L25,75 M50,25 L50,75 M75,25 L75,75" stroke="#8e44ad" stroke-width="0.5" opacity="0.7" />
            <path d="M25,25 L75,25 M25,50 L75,50 M25,75 L75,75" stroke="#8e44ad" stroke-width="0.5" opacity="0.7" />
            <use href="#leaf" fill="#2ecc71" transform="translate(10, 10) rotate(-20)" />
            <use href="#leaf" fill="#2ecc71" transform="translate(80, 10) rotate(20)" />
        </g>
        <g transform="translate(10, 90) scale(1)">
            <use href="#fruit-bubble" fill="url(#litchi-gradient)" />
            <text x="50" y="25" font-family="Arial" font-size="14" fill="white" text-anchor="middle">लिची</text>
        </g>
    </g>

    <!-- Banana -->
    <g transform="translate(520, 100)">
        <g transform="scale(0.7)">
            <use href="#banana" fill="url(#banana-gradient)" />
            <!-- Banana details -->
            <path d="M30,30 C40,40 60,40 70,30" stroke="#f1c40f" stroke-width="1" fill="none" />
            <path d="M20,50 C40,60 60,60 80,50" stroke="#f1c40f" stroke-width="1" fill="none" />
            <use href="#leaf" fill="#2ecc71" transform="translate(80, 20) rotate(60) scale(1.5)" />
        </g>
        <g transform="translate(10, 90) scale(1)">
            <use href="#fruit-bubble" fill="url(#banana-gradient)" />
            <text x="50" y="25" font-family="Arial" font-size="14" fill="white" text-anchor="middle">केरा</text>
        </g>
    </g>

    <!-- Lemon -->
    <g transform="translate(660, 100)">
        <g transform="scale(0.7)">
            <use href="#lemon" fill="url(#lemon-gradient)" />
            <!-- Lemon details -->
            <ellipse cx="50" cy="50" rx="40" ry="30" fill="none" stroke="#1abc9c" stroke-width="1" opacity="0.7" />
            <use href="#leaf" fill="#27ae60" transform="translate(85, 15) rotate(30)" />
            <use href="#leaf" fill="#27ae60" transform="translate(10, 15) rotate(-30)" />
        </g>
        <g transform="translate(10, 90) scale(1)">
            <use href="#fruit-bubble" fill="url(#lemon-gradient)" />
            <text x="50" y="25" font-family="Arial" font-size="14" fill="white" text-anchor="middle">कागती</text>
        </g>
    </g>

    <!-- Orange -->
    <g transform="translate(800, 100)">
        <g transform="scale(0.7)">
            <use href="#orange" fill="url(#orange-gradient)" />
            <!-- Orange details -->
            <circle cx="50" cy="50" r="35" fill="none" stroke="#d35400" stroke-width="1" opacity="0.7" />
            <path d="M50,15 L50,5 M47,5 L53,5" stroke="#27ae60" stroke-width="1" />
            <use href="#leaf" fill="#27ae60" transform="translate(70, 15) rotate(30)" />
        </g>
        <g transform="translate(10, 90) scale(1)">
            <use href="#fruit-bubble" fill="url(#orange-gradient)" />
            <text x="50" y="25" font-family="Arial" font-size="14" fill="white" text-anchor="middle">सुन्तला</text>
        </g>
    </g>

    <!-- Other fruits -->
    <g transform="translate(940, 100)">
        <g transform="scale(0.8)">
            <rect x="10" y="10" width="80" height="80" rx="5" fill="#7f8c8d" />
            <!-- Other fruits details -->
            <circle cx="30" cy="30" r="10" fill="#95a5a6" />
            <circle cx="70" cy="30" r="15" fill="#95a5a6" />
            <circle cx="30" cy="70" r="15" fill="#95a5a6" />
            <circle cx="70" cy="70" r="10" fill="#95a5a6" />
        </g>
        <g transform="translate(10, 90) scale(1)">
            <use href="#fruit-bubble" fill="#7f8c8d" />
            <text x="50" y="25" font-family="Arial" font-size="14" fill="white" text-anchor="middle">अन्य</text>
        </g>
    </g>

    <!-- Production and sales visualization -->
    <!-- Production pie chart -->
    <g transform="translate(200, 230)">
        <circle cx="60" cy="60" r="50" fill="#212f3d" stroke="#fff" stroke-width="1" opacity="0.8" />
        <!-- Pie segments (representing different fruits) -->
        <path d="M60,60 L60,10 A50,50 0 0,1 107,77 Z" fill="url(#mango-gradient)" />
        <!-- Mango: 55% -->
        <path d="M60,60 L107,77 A50,50 0 0,1 80,106 Z" fill="url(#jackfruit-gradient)" />
        <!-- Jackfruit: 15% -->
        <path d="M60,60 L80,106 A50,50 0 0,1 22,85 Z" fill="url(#litchi-gradient)" />
        <!-- Litchi: 20% -->
        <path d="M60,60 L22,85 A50,50 0 0,1 60,10 Z" fill="#7f8c8d" />
        <!-- Others: 10% -->

        <circle cx="60" cy="60" r="20" fill="#212f3d" />
        <text x="60" y="65" font-family="Arial" font-size="10" fill="white" text-anchor="middle">उत्पादन</text>
    </g>

    <!-- Sales pie chart -->
    <g transform="translate(400, 230)">
        <circle cx="60" cy="60" r="50" fill="#212f3d" stroke="#fff" stroke-width="1" opacity="0.8" />
        <!-- Pie segments (representing different fruits) -->
        <path d="M60,60 L60,10 A50,50 0 0,1 110,60 Z" fill="url(#mango-gradient)" />
        <!-- Mango: 25% -->
        <path d="M60,60 L110,60 A50,50 0 0,1 60,110 Z" fill="url(#jackfruit-gradient)" />
        <!-- Jackfruit: 25% -->
        <path d="M60,60 L60,110 A50,50 0 0,1 10,60 Z" fill="url(#litchi-gradient)" />
        <!-- Litchi: 25% -->
        <path d="M60,60 L10,60 A50,50 0 0,1 60,10 Z" fill="#7f8c8d" />
        <!-- Others: 25% -->

        <circle cx="60" cy="60" r="20" fill="#212f3d" />
        <text x="60" y="65" font-family="Arial" font-size="10" fill="white" text-anchor="middle">बिक्री</text>
    </g>

    <!-- Revenue chart -->
    <g transform="translate(600, 230)">
        <rect x="20" y="20" width="30" height="80" fill="url(#mango-gradient)" />
        <rect x="60" y="40" width="30" height="60" fill="url(#jackfruit-gradient)" />
        <rect x="100" y="70" width="30" height="30" fill="url(#litchi-gradient)" />

        <text x="35" y="110" font-family="Arial" font-size="10" fill="white" text-anchor="middle">आँप</text>
        <text x="75" y="110" font-family="Arial" font-size="10" fill="white" text-anchor="middle">रुखकटहर</text>
        <text x="115" y="110" font-family="Arial" font-size="10" fill="white" text-anchor="middle">लिची</text>

        <text x="75" y="130" font-family="Arial" font-size="14" fill="white" text-anchor="middle">आम्दानी (रु)</text>
    </g>

    <!-- Self-consumption vs. Sales visualization -->
    <g transform="translate(800, 230)">
        <rect x="20" y="20" width="120" height="30" fill="#3498db" opacity="0.8" />
        <rect x="20" y="60" width="80" height="30" fill="#2ecc71" opacity="0.8" />

        <text x="80" y="40" font-family="Arial" font-size="12" fill="white" text-anchor="middle">कुल उत्पादन</text>
        <text x="60" y="80" font-family="Arial" font-size="12" fill="white" text-anchor="middle">बिक्री</text>

        <path d="M20,110 L140,110" stroke="white" stroke-width="1" />
        <text x="80" y="130" font-family="Arial" font-size="14" fill="white" text-anchor="middle">उपभोग / बिक्री अनुपात</text>
    </g>

    <!-- Farmers & Market Icons -->
    <g transform="translate(80, 270) scale(0.7)">
        <use href="#farmer" fill="#3498db" />
    </g>

    <g transform="translate(130, 270) scale(0.7)">
        <use href="#farmer" fill="#2ecc71" />
    </g>

    <!-- Arrow showing flow from farmers to market -->
    <path d="M160,290 L190,290" stroke="#f39c12" stroke-width="3" marker-end="url(#arrowhead)" />

    <!-- Define arrowhead marker -->
    <defs>
        <marker id="arrowhead" markerWidth="10" markerHeight="7" refX="9" refY="3.5" orient="auto">
            <polygon points="0 0, 10 3.5, 0 7" fill="#f39c12" />
        </marker>
    </defs>

    <!-- Market stall -->
    <g transform="translate(200, 270) scale(0.5)">
        <use href="#market-stall" fill="#e67e22" />
        <rect x="20" y="30" width="20" height="30" fill="url(#mango-gradient)" />
        <rect x="50" y="30" width="20" height="30" fill="url(#jackfruit-gradient)" />
        <rect x="80" y="30" width="10" height="10" fill="url(#litchi-gradient)" />
    </g>

    <!-- Arrow showing flow from market to money -->
    <path d="M260,290 L290,290" stroke="#f39c12" stroke-width="3" marker-end="url(#arrowhead)" />

    <!-- Money/Revenue -->
    <g transform="translate(300, 270) scale(0.8)">
        <circle cx="25" cy="25" r="25" fill="url(#money-gradient)" />
        <text x="25" y="35" font-family="Arial" font-size="30" font-weight="bold" fill="white" text-anchor="middle">रु</text>
    </g>

    <!-- Vitamin content indicator -->
    <g transform="translate(450, 270)">
        <text x="0" y="20" font-family="Arial" font-size="14" fill="white">पोषण मूल्य</text>
        <rect x="0" y="30" width="300" height="20" rx="10" fill="#1e293b" opacity="0.8" />
        <rect x="0" y="30" width="270" height="20" rx="10" fill="#e67e22" opacity="0.8" />
        <!-- 90% nutritional value -->
        <text x="150" y="45" font-family="Arial" font-size="12" fill="white" text-anchor="middle">भिटामिन सामग्री</text>
    </g>

    <!-- Commercialization indicator -->
    <g transform="translate(450, 320)">
        <text x="0" y="0" font-family="Arial" font-size="14" fill="white">व्यावसायीकरण स्कोर</text>
        <rect x="0" y="10" width="300" height="20" rx="10" fill="#1e293b" opacity="0.8" />
        <rect x="0" y="10" width="120" height="20" rx="10" fill="#2ecc71" opacity="0.8" />
        <!-- 40% commercialized -->
        <text x="150" y="25" font-family="Arial" font-size="12" fill="white" text-anchor="middle">४०%</text>
    </g>

    <!-- Fruit orchard visualization -->
    <g transform="translate(900, 230)">
        <!-- Fruit trees representing an orchard -->
        <g transform="translate(0, 0) scale(0.4)">
            <use href="#tree" fill="#27ae60" />
            <circle cx="40" cy="15" r="10" fill="url(#mango-gradient)" />
            <circle cx="20" cy="25" r="8" fill="url(#mango-gradient)" />
            <circle cx="60" cy="25" r="8" fill="url(#mango-gradient)" />
        </g>

        <g transform="translate(60, 0) scale(0.4)">
            <use href="#tree" fill="#27ae60" />
            <circle cx="40" cy="15" r="10" fill="url(#jackfruit-gradient)" />
            <circle cx="20" cy="25" r="8" fill="url(#jackfruit-gradient)" />
            <circle cx="60" cy="25" r="8" fill="url(#jackfruit-gradient)" />
        </g>

        <g transform="translate(120, 0) scale(0.4)">
            <use href="#tree" fill="#27ae60" />
            <circle cx="40" cy="15" r="10" fill="url(#litchi-gradient)" />
            <circle cx="20" cy="25" r="8" fill="url(#litchi-gradient)" />
            <circle cx="60" cy="25" r="8" fill="url(#litchi-gradient)" />
        </g>

        <g transform="translate(180, 0) scale(0.4)">
            <use href="#tree" fill="#27ae60" />
            <circle cx="40" cy="15" r="10" fill="url(#banana-gradient)" />
            <circle cx="20" cy="25" r="8" fill="url(#banana-gradient)" />
            <circle cx="60" cy="25" r="8" fill="url(#banana-gradient)" />
        </g>

        <!-- Ground representation -->
        <rect x="0" y="40" width="240" height="10" fill="#795548" opacity="0.6" />
    </g>

    <!-- Fruit basket -->
    <g transform="translate(900, 290) scale(0.3)">
        <use href="#basket" fill="#795548" />
        <circle cx="30" cy="30" r="15" fill="url(#mango-gradient)" />
        <circle cx="60" cy="40" r="20" fill="url(#litchi-gradient)" />
        <circle cx="90" cy="25" r="15" fill="url(#orange-gradient)" />
        <circle cx="120" cy="40" r="15" fill="url(#banana-gradient)" />
    </g>

    <!-- Fruit sacks representing harvested fruits -->
    <g transform="translate(1000, 290) scale(0.4)">
        <use href="#fruit-sack" fill="url(#mango-gradient)" />
    </g>

    <g transform="translate(1030, 290) scale(0.4)">
        <use href="#fruit-sack" fill="url(#jackfruit-gradient)" />
    </g>

    <g transform="translate(1060, 290) scale(0.4)">
        <use href="#fruit-sack" fill="url(#litchi-gradient)" />
    </g>

    <g transform="translate(1090, 290) scale(0.4)">
        <use href="#fruit-sack" fill="url(#banana-gradient)" />
    </g>

    <!-- Fruit quality indicator -->
    <g transform="translate(1000, 250)">
        <text x="0" y="0" font-family="Arial" font-size="12" fill="white">फलको गुणस्तर</text>
        <rect x="0" y="10" width="150" height="10" rx="5" fill="#1e293b" opacity="0.8" />
        <rect x="0" y="10" width="130" height="10" rx="5" fill="#e67e22" opacity="0.8" />
        <!-- 85% quality -->
    </g>

    <!-- Animated fruits floating effect -->
    <g transform="translate(150, 320)" opacity="0.6">
        <circle cx="0" cy="0" r="10" fill="url(#mango-gradient)">
            <animate attributeName="cy" values="0;-10;0" dur="3s" repeatCount="indefinite" />
        </circle>
    </g>

    <g transform="translate(300, 330)" opacity="0.6">
        <circle cx="0" cy="0" r="8" fill="url(#jackfruit-gradient)">
            <animate attributeName="cy" values="0;-8;0" dur="2.5s" repeatCount="indefinite" />
        </circle>
    </g>

    <g transform="translate(650, 340)" opacity="0.6">
        <circle cx="0" cy="0" r="12" fill="url(#litchi-gradient)">
            <animate attributeName="cy" values="0;-12;0" dur="3.5s" repeatCount="indefinite" />
        </circle>
    </g>

    <g transform="translate(850, 310)" opacity="0.6">
        <circle cx="0" cy="0" r="7" fill="url(#orange-gradient)">
            <animate attributeName="cy" values="0;-7;0" dur="4s" repeatCount="indefinite" />
        </circle>
    </g>

    <!-- Title text at bottom -->
    <text font-family="Arial" font-size="24" fill="white" text-anchor="middle" font-weight="bold">
        <textPath href="#curved-text-path" startOffset="50%">फलफूल बालीको प्रकार अनुसार उत्पादन र बिक्री</textPath>
    </text>
</svg>
