<?xml version="1.0" encoding="UTF-8" standalone="no"?>
<svg width="1200" height="400" viewBox="0 0 1200 400" xmlns="http://www.w3.org/2000/svg">
  <defs>
    <linearGradient id="bg-gradient" x1="0%" y1="0%" x2="100%" y2="0%">
      <stop offset="0%" stop-color="#FF6384" stop-opacity="0.8" />
      <stop offset="100%" stop-color="#36A2EB" stop-opacity="0.9" />
    </linearGradient>
    
    <!-- House path definition -->
    <path id="house" d="M0,60 L50,0 L100,60 L85,60 L85,100 L15,100 L15,60 Z" />
    
    <!-- Person silhouettes -->
    <path id="male-silhouette" d="M40,0 C62,0 80,18 80,40 C80,62 62,80 40,80 C18,80 0,62 0,40 C0,18 18,0 40,0 Z M20,95 L60,95 L70,220 L60,220 L60,160 L20,160 L20,220 L10,220 Z" />
    <path id="female-silhouette" d="M40,0 C62,0 80,18 80,40 C80,62 62,80 40,80 C18,80 0,62 0,40 C0,18 18,0 40,0 Z M20,95 L60,95 C60,95 80,160 80,170 C80,180 70,180 65,175 L50,160 L50,220 L30,220 L30,160 L15,175 C10,180 0,180 0,170 C0,160 20,95 20,95 Z" />
    
    <!-- Text path for curve -->
    <path id="curved-text-path" d="M150,350 Q600,200 1050,350" fill="none" />
  </defs>
  
  <!-- Background -->
  <rect width="1200" height="400" fill="url(#bg-gradient)" />
  
  <!-- Decorative elements -->
  <g opacity="0.1">
    <circle cx="200" cy="100" r="50" fill="white" />
    <circle cx="1000" cy="120" r="70" fill="white" />
    <circle cx="600" cy="50" r="30" fill="white" />
    <circle cx="120" cy="320" r="40" fill="white" />
    <circle cx="900" cy="320" r="60" fill="white" />
    
    <rect x="400" y="150" width="50" height="50" rx="5" fill="white" />
    <rect x="650" y="100" width="40" height="40" rx="5" fill="white" />
    <rect x="800" y="150" width="60" height="60" rx="5" fill="white" />
  </g>
  
  <!-- Houses with Gender Symbols Group -->
  <g>
    <!-- Male Headed Household Icon - Left Side -->
    <g transform="translate(300, 100)">
      <use href="#house" fill="#36A2EB" opacity="0.9" />
      <g transform="translate(35, 55) scale(0.3)">
        <use href="#male-silhouette" fill="white" />
      </g>
      <text x="50" y="135" font-family="Arial" font-size="16" fill="white" text-anchor="middle">पुरुष घरमूली</text>
    </g>
    
    <!-- Female Headed Household Icon - Right Side -->
    <g transform="translate(800, 100)">
      <use href="#house" fill="#FF6384" opacity="0.9" />
      <g transform="translate(35, 55) scale(0.3)">
        <use href="#female-silhouette" fill="white" />
      </g>
      <text x="50" y="135" font-family="Arial" font-size="16" fill="white" text-anchor="middle">महिला घरमूली</text>
    </g>
    
    <!-- Central Analysis Icon -->
    <g transform="translate(550, 80)">
      <rect x="-70" y="0" width="140" height="80" rx="10" fill="white" opacity="0.2" />
      <line x1="-50" y1="20" x2="50" y2="20" stroke="white" stroke-width="2" />
      <line x1="-50" y1="40" x2="50" y2="40" stroke="white" stroke-width="2" />
      <line x1="-50" y1="60" x2="50" y2="60" stroke="white" stroke-width="2" />
      <text x="0" y="95" font-family="Arial" font-size="16" fill="white" text-anchor="middle">घरमूली विश्लेषण</text>
    </g>
  </g>
  
  <!-- Simple bar chart visual representation -->
  <g transform="translate(300, 200)">
    <rect x="0" y="0" width="180" height="30" fill="#36A2EB" opacity="0.8" />
    <rect x="0" y="40" width="80" height="30" fill="#FF6384" opacity="0.8" />
    <rect x="0" y="80" width="10" height="30" fill="#FFCE56" opacity="0.8" />
    
    <text x="190" y="20" font-family="Arial" font-size="14" fill="white">पुरुष घरमूली</text>
    <text x="90" y="60" font-family="Arial" font-size="14" fill="white">महिला घरमूली</text>
    <text x="20" y="100" font-family="Arial" font-size="14" fill="white">अन्य</text>
  </g>
  
  <!-- Circle chart visual representation -->
  <g transform="translate(650, 200)">
    <circle cx="100" cy="70" r="70" fill="none" stroke="white" stroke-width="2" />
    <path d="M100,70 L100,0 A70,70 0 0,1 150,35 Z" fill="#36A2EB" opacity="0.8" />
    <path d="M100,70 L150,35 A70,70 0 0,1 170,100 Z" fill="#FF6384" opacity="0.8" />
    <path d="M100,70 L170,100 A70,70 0 1,1 100,0 Z" fill="#36A2EB" opacity="0.5" />
  </g>
  
  <!-- Title text at bottom -->
  <text font-family="Arial" font-size="20" fill="white" text-anchor="middle">
    <textPath href="#curved-text-path" startOffset="50%">घरमूली लिङ्ग अनुसार जनसंख्या वितरण</textPath>
  </text>
  
  <!-- Human silhouettes at bottom -->
  <g transform="translate(100, 300)">
    <g transform="scale(0.3)">
      <use href="#male-silhouette" fill="#36A2EB" opacity="0.8" />
    </g>
  </g>
  
  <g transform="translate(150, 300)">
    <g transform="scale(0.3)">
      <use href="#female-silhouette" fill="#FF6384" opacity="0.8" />
    </g>
  </g>
  
  <g transform="translate(200, 300)">
    <g transform="scale(0.3)">
      <use href="#male-silhouette" fill="#36A2EB" opacity="0.8" />
    </g>
  </g>
  
  <g transform="translate(250, 300)">
    <g transform="scale(0.3)">
      <use href="#female-silhouette" fill="#FF6384" opacity="0.8" />
    </g>
  </g>
  
  <g transform="translate(950, 300)">
    <g transform="scale(0.3)">
      <use href="#male-silhouette" fill="#36A2EB" opacity="0.8" />
    </g>
  </g>
  
  <g transform="translate(1000, 300)">
    <g transform="scale(0.3)">
      <use href="#female-silhouette" fill="#FF6384" opacity="0.8" />
    </g>
  </g>
  
  <g transform="translate(1050, 300)">
    <g transform="scale(0.3)">
      <use href="#male-silhouette" fill="#36A2EB" opacity="0.8" />
    </g>
  </g>
</svg>
