<?xml version="1.0" encoding="UTF-8" standalone="no"?>
<svg width="1200" height="400" viewBox="0 0 1200 400" xmlns="http://www.w3.org/2000/svg" xmlns:xlink="http://www.w3.org/1999/xlink">
  <defs>
    <!-- Gradients for background and elements -->
    <linearGradient id="bg-gradient" x1="0%" y1="0%" x2="100%" y2="100%">
      <stop offset="0%" stop-color="#0f172a" />
      <stop offset="100%" stop-color="#1e293b" />
    </linearGradient>
    
    <linearGradient id="irrigated-gradient" x1="0%" y1="0%" x2="100%" y2="0%">
      <stop offset="0%" stop-color="#1d8348" />
      <stop offset="100%" stop-color="#2ecc71" />
    </linearGradient>
    
    <linearGradient id="unirrigated-gradient" x1="0%" y1="0%" x2="100%" y2="0%">
      <stop offset="0%" stop-color="#d35400" />
      <stop offset="100%" stop-color="#e67e22" />
    </linearGradient>
    
    <linearGradient id="water-gradient" x1="0%" y1="0%" x2="100%" y2="0%">
      <stop offset="0%" stop-color="#2980b9" />
      <stop offset="100%" stop-color="#3498db" />
    </linearGradient>
    
    <linearGradient id="canal-gradient" x1="0%" y1="0%" x2="100%" y2="100%">
      <stop offset="0%" stop-color="#1abc9c" />
      <stop offset="100%" stop-color="#16a085" />
    </linearGradient>
    
    <!-- Path for curved text at bottom -->
    <path id="curved-text-path" d="M200,350 Q600,280 1000,350" fill="none" />
    
    <!-- Farm plot pattern for irrigated land -->
    <pattern id="irrigated-pattern" x="0" y="0" width="20" height="20" patternUnits="userSpaceOnUse">
      <rect x="0" y="0" width="20" height="20" fill="#27ae60" />
      <path d="M0,5 L20,5 M0,15 L20,15 M5,0 L5,20 M15,0 L15,20" stroke="#2ecc71" stroke-width="1" />
    </pattern>
    
    <!-- Farm plot pattern for unirrigated land -->
    <pattern id="unirrigated-pattern" x="0" y="0" width="20" height="20" patternUnits="userSpaceOnUse">
      <rect x="0" y="0" width="20" height="20" fill="#e67e22" />
      <path d="M0,10 L20,10 M10,0 L10,20" stroke="#d35400" stroke-width="1" />
    </pattern>
    
    <!-- Water flow pattern -->
    <pattern id="water-pattern" x="0" y="0" width="20" height="10" patternUnits="userSpaceOnUse">
      <path d="M0,5 Q5,0 10,5 Q15,10 20,5" stroke="#3498db" stroke-width="2" fill="none" />
    </pattern>
    
    <!-- Canal symbol -->
    <path id="canal" d="M0,0 L100,0 L100,20 L0,20 Z" />
    
    <!-- Well/tube well symbol -->
    <g id="tube-well">
      <circle cx="25" cy="25" r="25" fill="#3498db" />
      <circle cx="25" cy="25" r="20" fill="none" stroke="#ecf0f1" stroke-width="2" />
      <circle cx="25" cy="25" r="15" fill="none" stroke="#ecf0f1" stroke-width="1" />
      <circle cx="25" cy="25" r="5" fill="#ecf0f1" />
      <rect x="20" y="25" width="30" height="5" fill="#34495e" />
    </g>
    
    <!-- Sprinkler irrigation symbol -->
    <g id="sprinkler">
      <circle cx="25" cy="50" r="5" fill="#34495e" />
      <rect x="23" y="0" width="4" height="50" fill="#7f8c8d" />
      <path d="M25,20 L10,5 M25,20 L40,5 M25,10 L5,0 M25,10 L45,0" stroke="#3498db" stroke-width="2" />
      <path d="M25,30 L10,15 M25,30 L40,15" stroke="#3498db" stroke-width="2" />
    </g>
    
    <!-- Drip irrigation symbol -->
    <g id="drip-irrigation">
      <rect x="0" y="0" width="50" height="5" fill="#34495e" />
      <rect x="10" y="5" width="2" height="15" fill="#7f8c8d" />
      <rect x="25" y="5" width="2" height="10" fill="#7f8c8d" />
      <rect x="40" y="5" width="2" height="20" fill="#7f8c8d" />
      <circle cx="11" cy="25" r="4" fill="#3498db" opacity="0.7" />
      <circle cx="26" cy="20" r="4" fill="#3498db" opacity="0.7" />
      <circle cx="41" cy="30" r="4" fill="#3498db" opacity="0.7" />
    </g>
    
    <!-- Dam/reservoir symbol -->
    <path id="dam" d="M0,30 C0,10 20,0 50,0 C80,0 100,10 100,30 L100,100 L0,100 Z" />
    
    <!-- Ward circle -->
    <circle id="ward-circle" cx="50" cy="50" r="40" />
    
    <!-- Plant symbol -->
    <path id="plant" d="M20,50 C20,30 0,20 0,0 C20,5 30,15 25,30 C40,15 50,5 60,0 C55,25 45,30 35,30 C45,35 55,30 60,40 C40,40 30,45 25,50 L30,100 L15,100 Z" />
    
    <!-- Grid pattern -->
    <pattern id="grid-pattern" x="0" y="0" width="40" height="40" patternUnits="userSpaceOnUse">
      <path d="M0,0 L40,0 L40,40 L0,40 Z" fill="none" stroke="#3498db" stroke-width="0.5" opacity="0.3" />
    </pattern>
    
    <!-- Rice/crop field pattern -->
    <pattern id="crop-pattern" x="0" y="0" width="20" height="20" patternUnits="userSpaceOnUse">
      <path d="M5,0 L5,20 M0,5 L20,5 M0,15 L20,15 M15,0 L15,20" stroke="#229954" stroke-width="1" />
    </pattern>
  </defs>
  
  <!-- Background with gradient -->
  <rect width="1200" height="400" fill="url(#bg-gradient)" />
  
  <!-- Grid overlay -->
  <g opacity="0.08">
    <path d="M0,40 L1200,40 M0,80 L1200,80 M0,120 L1200,120 M0,160 L1200,160 M0,200 L1200,200 M0,240 L1200,240 M0,280 L1200,280 M0,320 L1200,320 M0,360 L1200,360" stroke="white" />
    <path d="M40,0 L40,400 M80,0 L80,400 M120,0 L120,400 M160,0 L160,400 M200,0 L200,400 M240,0 L240,400 M280,0 L280,400 M320,0 L320,400 M360,0 L360,400 M400,0 L400,400 M440,0 L440,400 M480,0 L480,400 M520,0 L520,400 M560,0 L560,400 M600,0 L600,400 M640,0 L640,400 M680,0 L680,400 M720,0 L720,400 M760,0 L760,400 M800,0 L800,400 M840,0 L840,400 M880,0 L880,400 M920,0 L920,400 M960,0 L960,400 M1000,0 L1000,400 M1040,0 L1040,400 M1080,0 L1080,400 M1120,0 L1120,400 M1160,0 L1160,400" stroke="white" />
  </g>
  
  <!-- Mountains in the background -->
  <g opacity="0.5">
    <path d="M-100,160 Q0,60 100,140 Q200,40 300,150 Q400,10 500,130 Q600,80 700,150 Q800,50 900,160 Q1000,90 1100,140 Q1200,50 1300,150 L1300,160 L-100,160 Z" fill="#34495e" />
  </g>
  
  <!-- Main river/water source -->
  <path d="M0,280 Q100,260 150,270 Q200,280 250,270 Q300,260 350,270 Q400,280 450,270 Q500,265 550,275 Q600,285 650,275 Q700,265 750,275 Q800,285 850,275 Q900,265 950,275 Q1000,285 1050,275 Q1100,265 1150,275 Q1200,285 1250,275 L1250,400 L0,400 Z" fill="url(#water-gradient)" opacity="0.8">
    <animate attributeName="d" values="M0,280 Q100,260 150,270 Q200,280 250,270 Q300,260 350,270 Q400,280 450,270 Q500,265 550,275 Q600,285 650,275 Q700,265 750,275 Q800,285 850,275 Q900,265 950,275 Q1000,285 1050,275 Q1100,265 1150,275 Q1200,285 1250,275 L1250,400 L0,400 Z;
                                    M0,275 Q100,265 150,275 Q200,265 250,275 Q300,265 350,275 Q400,265 450,275 Q500,270 550,280 Q600,270 650,280 Q700,270 750,280 Q800,270 850,280 Q900,270 950,280 Q1000,270 1050,280 Q1100,270 1150,280 Q1200,270 1250,280 L1250,400 L0,400 Z;
                                    M0,280 Q100,260 150,270 Q200,280 250,270 Q300,260 350,270 Q400,280 450,270 Q500,265 550,275 Q600,285 650,275 Q700,265 750,275 Q800,285 850,275 Q900,265 950,275 Q1000,285 1050,275 Q1100,265 1150,275 Q1200,285 1250,275 L1250,400 L0,400 Z" 
              dur="10s" repeatCount="indefinite" />
  </path>
  
  <!-- Water ripple effect -->
  <path d="M0,290 Q50,285 100,290 Q150,295 200,290 Q250,285 300,290 Q350,295 400,290 Q450,285 500,290 Q550,295 600,290 Q650,285 700,290 Q750,295 800,290 Q850,285 900,290 Q950,295 1000,290 Q1050,285 1100,290 Q1150,295 1200,290" 
        stroke="white" stroke-width="1" fill="none" opacity="0.3">
    <animate attributeName="d" values="M0,290 Q50,285 100,290 Q150,295 200,290 Q250,285 300,290 Q350,295 400,290 Q450,285 500,290 Q550,295 600,290 Q650,285 700,290 Q750,295 800,290 Q850,285 900,290 Q950,295 1000,290 Q1050,285 1100,290 Q1150,295 1200,290;
                                    M0,295 Q50,290 100,295 Q150,300 200,295 Q250,290 300,295 Q350,300 400,295 Q450,290 500,295 Q550,300 600,295 Q650,290 700,295 Q750,300 800,295 Q850,290 900,295 Q950,300 1000,295 Q1050,290 1100,295 Q1150,300 1200,295;
                                    M0,290 Q50,285 100,290 Q150,295 200,290 Q250,285 300,290 Q350,295 400,290 Q450,285 500,290 Q550,295 600,290 Q650,285 700,290 Q750,295 800,290 Q850,285 900,290 Q950,295 1000,290 Q1050,285 1100,290 Q1150,295 1200,290" 
              dur="5s" repeatCount="indefinite" />
  </path>
  
  <!-- Main canal system -->
  <g>
    <!-- Primary canal -->
    <rect x="200" y="270" width="150" height="15" fill="url(#canal-gradient)" />
    
    <!-- Secondary canals -->
    <rect x="250" y="200" width="15" height="70" fill="url(#canal-gradient)" />
    <rect x="350" y="175" width="15" height="95" fill="url(#canal-gradient)" />
    
    <!-- Tertiary canals -->
    <rect x="250" y="200" width="65" height="10" fill="url(#canal-gradient)" />
    <rect x="265" y="150" width="10" height="50" fill="url(#canal-gradient)" />
    <rect x="315" y="140" width="10" height="60" fill="url(#canal-gradient)" />
    <rect x="350" y="175" width="80" height="10" fill="url(#canal-gradient)" />
    <rect x="390" y="120" width="10" height="55" fill="url(#canal-gradient)" />
    <rect x="420" y="130" width="10" height="45" fill="url(#canal-gradient)" />
    
    <!-- Canal water animation -->
    <path d="M205,277 Q215,272 225,277 Q235,282 245,277 Q255,272 265,277 Q275,282 285,277 Q295,272 305,277 Q315,282 325,277 Q335,272 345,277" 
          stroke="#3498db" stroke-width="2" fill="none">
      <animate attributeName="d" values="M205,277 Q215,272 225,277 Q235,282 245,277 Q255,272 265,277 Q275,282 285,277 Q295,272 305,277 Q315,282 325,277 Q335,272 345,277;
                                        M200,277 Q210,272 220,277 Q230,282 240,277 Q250,272 260,277 Q270,282 280,277 Q290,272 300,277 Q310,282 320,277 Q330,272 340,277;
                                        M195,277 Q205,272 215,277 Q225,282 235,277 Q245,272 255,277 Q265,282 275,277 Q285,272 295,277 Q305,282 315,277 Q325,272 335,277;
                                        M205,277 Q215,272 225,277 Q235,282 245,277 Q255,272 265,277 Q275,282 285,277 Q295,272 305,277 Q315,282 325,277 Q335,272 345,277" 
                  dur="4s" repeatCount="indefinite" />
    </path>
  </g>
  
  <!-- Irrigated land areas (green) -->
  <g>
    <!-- Large irrigated area -->
    <path d="M250,100 L315,80 L390,90 L420,110 L430,180 L390,200 L315,210 L265,190 L250,150 Z" fill="url(#irrigated-gradient)" opacity="0.8" />
    <path d="M250,100 L315,80 L390,90 L420,110 L430,180 L390,200 L315,210 L265,190 L250,150 Z" fill="url(#crop-pattern)" opacity="0.3" />
    
    <!-- Small irrigated plots -->
    <rect x="550" y="130" width="80" height="60" fill="url(#irrigated-gradient)" opacity="0.8" />
    <rect x="550" y="130" width="80" height="60" fill="url(#crop-pattern)" opacity="0.3" />
    
    <rect x="680" y="150" width="100" height="80" fill="url(#irrigated-gradient)" opacity="0.8" />
    <rect x="680" y="150" width="100" height="80" fill="url(#crop-pattern)" opacity="0.3" />
    
    <rect x="820" y="120" width="70" height="40" fill="url(#irrigated-gradient)" opacity="0.8" />
    <rect x="820" y="120" width="70" height="40" fill="url(#crop-pattern)" opacity="0.3" />
    
    <!-- Tube well irrigated circular plot -->
    <circle cx="950" cy="170" r="40" fill="url(#irrigated-gradient)" opacity="0.8" />
    <circle cx="950" cy="170" r="40" fill="url(#crop-pattern)" opacity="0.3" />
    
    <!-- Modern irrigation system plots -->
    <rect x="1050" y="140" width="100" height="50" fill="url(#irrigated-gradient)" opacity="0.8" />
    <rect x="1050" y="140" width="100" height="50" fill="url(#crop-pattern)" opacity="0.3" />
  </g>
  
  <!-- Unirrigated land areas (orange) -->
  <g>
    <!-- Large unirrigated area -->
    <path d="M500,80 L580,70 L640,100 L650,170 L600,210 L550,200 L510,180 L490,120 Z" fill="url(#unirrigated-gradient)" opacity="0.8" />
    <path d="M500,80 L580,70 L640,100 L650,170 L600,210 L550,200 L510,180 L490,120 Z" fill="#e67e22" opacity="0.1" />
    
    <!-- Small unirrigated plots -->
    <rect x="800" y="180" width="80" height="50" fill="url(#unirrigated-gradient)" opacity="0.8" />
    <rect x="800" y="180" width="80" height="50" fill="#e67e22" opacity="0.1" />
    
    <path d="M900,200 L960,220 L980,250 L940,260 L900,240 Z" fill="url(#unirrigated-gradient)" opacity="0.8" />
    <path d="M900,200 L960,220 L980,250 L940,260 L900,240 Z" fill="#e67e22" opacity="0.1" />
    
    <rect x="1000" y="220" width="120" height="40" fill="url(#unirrigated-gradient)" opacity="0.8" />
    <rect x="1000" y="220" width="120" height="40" fill="#e67e22" opacity="0.1" />
  </g>
  
  <!-- Irrigation equipment and elements -->
  <!-- Tube wells -->
  <g transform="translate(950, 170) scale(0.7)">
    <use href="#tube-well" />
  </g>
  
  <!-- Sprinklers -->
  <g transform="translate(1070, 160) scale(0.7)">
    <use href="#sprinkler" />
  </g>
  
  <g transform="translate(1110, 150) scale(0.7)">
    <use href="#sprinkler" />
  </g>
  
  <!-- Drip irrigation system -->
  <g transform="translate(1050, 170) scale(0.8)">
    <use href="#drip-irrigation" />
  </g>
  
  <g transform="translate(1100, 170) scale(0.8)">
    <use href="#drip-irrigation" />
  </g>
  
  <!-- Small dam/reservoir -->
  <g transform="translate(150, 220) scale(0.4)">
    <path d="M0,30 C0,10 20,0 50,0 C80,0 100,10 100,30 L100,100 L0,100 Z" fill="#2980b9" />
    <path d="M0,30 L100,30" stroke="#34495e" stroke-width="3" />
    <path d="M20,30 L20,100 M40,30 L40,100 M60,30 L60,100 M80,30 L80,100" stroke="#34495e" stroke-width="2" />
    <path d="M0,40 L100,40 M0,60 L100,60 M0,80 L100,80" stroke="#3498db" stroke-width="1" opacity="0.5" />
  </g>
  
  <!-- Plants/crops on irrigated land -->
  <g transform="translate(300, 120) scale(0.4)">
    <use href="#plant" fill="#27ae60" />
  </g>
  
  <g transform="translate(350, 140) scale(0.3)">
    <use href="#plant" fill="#27ae60" />
  </g>
  
  <g transform="translate(380, 110) scale(0.35)">
    <use href="#plant" fill="#27ae60" />
  </g>
  
  <g transform="translate(570, 150) scale(0.3)">
    <use href="#plant" fill="#27ae60" />
  </g>
  
  <g transform="translate(600, 160) scale(0.25)">
    <use href="#plant" fill="#27ae60" />
  </g>
  
  <g transform="translate(700, 180) scale(0.3)">
    <use href="#plant" fill="#27ae60" />
  </g>
  
  <g transform="translate(730, 200) scale(0.35)">
    <use href="#plant" fill="#27ae60" />
  </g>
  
  <g transform="translate(840, 130) scale(0.25)">
    <use href="#plant" fill="#27ae60" />
  </g>
  
  <g transform="translate(865, 145) scale(0.3)">
    <use href="#plant" fill="#27ae60" />
  </g>
  
  <!-- Ward indicators -->
  <!-- Ward 1 -->
  <g transform="translate(300, 150) scale(0.4)">
    <circle cx="50" cy="50" r="40" fill="#27ae60" opacity="0.9" stroke="white" stroke-width="2" />
    <text x="50" y="65" font-family="Arial" font-size="40" font-weight="bold" fill="white" text-anchor="middle">१</text>
  </g>
  
  <!-- Ward 2 -->
  <g transform="translate(580, 160) scale(0.35)">
    <circle cx="50" cy="50" r="40" fill="#e67e22" opacity="0.9" stroke="white" stroke-width="2" />
    <text x="50" y="65" font-family="Arial" font-size="40" font-weight="bold" fill="white" text-anchor="middle">२</text>
  </g>
  
  <!-- Ward 3 -->
  <g transform="translate(710, 190) scale(0.4)">
    <circle cx="50" cy="50" r="40" fill="#27ae60" opacity="0.9" stroke="white" stroke-width="2" />
    <text x="50" y="65" font-family="Arial" font-size="40" font-weight="bold" fill="white" text-anchor="middle">३</text>
  </g>
  
  <!-- Ward 4 -->
  <g transform="translate(850, 140) scale(0.35)">
    <circle cx="50" cy="50" r="40" fill="#27ae60" opacity="0.9" stroke="white" stroke-width="2" />
    <text x="50" y="65" font-family="Arial" font-size="40" font-weight="bold" fill="white" text-anchor="middle">४</text>
  </g>
  
  <!-- Ward 5 -->
  <g transform="translate(950, 220) scale(0.4)">
    <circle cx="50" cy="50" r="40" fill="#e67e22" opacity="0.9" stroke="white" stroke-width="2" />
    <text x="50" y="65" font-family="Arial" font-size="40" font-weight="bold" fill="white" text-anchor="middle">५</text>
  </g>
  
  <!-- Ward 6 -->
  <g transform="translate(1080, 170) scale(0.35)">
    <circle cx="50" cy="50" r="40" fill="#27ae60" opacity="0.9" stroke="white" stroke-width="2" />
    <text x="50" y="65" font-family="Arial" font-size="40" font-weight="bold" fill="white" text-anchor="middle">६</text>
  </g>
  
  <!-- Legend -->
  <g transform="translate(100, 100)">
    <rect x="0" y="0" width="120" height="80" rx="5" fill="#1e293b" opacity="0.7" />
    
    <rect x="10" y="15" width="20" height="10" fill="#2ecc71" />
    <text x="40" y="25" font-family="Arial" font-size="14" fill="white">सिंचित क्षेत्र</text>
    
    <rect x="10" y="40" width="20" height="10" fill="#e67e22" />
    <text x="40" y="50" font-family="Arial" font-size="14" fill="white">असिंचित क्षेत्र</text>
    
    <rect x="10" y="65" width="20" height="5" fill="#3498db" />
    <text x="40" y="70" font-family="Arial" font-size="14" fill="white">सिंचाई स्रोत</text>
  </g>
  
  <!-- Raindrops on unirrigated area -->
  <g opacity="0.5">
    <circle cx="520" cy="100" r="2" fill="#3498db">
      <animate attributeName="cy" values="100;120" dur="1.5s" repeatCount="indefinite" />
      <animate attributeName="opacity" values="0.7;0" dur="1.5s" repeatCount="indefinite" />
    </circle>
    
    <circle cx="540" cy="90" r="2" fill="#3498db">
      <animate attributeName="cy" values="90;110" dur="2s" repeatCount="indefinite" />
      <animate attributeName="opacity" values="0.7;0" dur="2s" repeatCount="indefinite" />
    </circle>
    
    <circle cx="560" cy="95" r="2" fill="#3498db">
      <animate attributeName="cy" values="95;115" dur="1.8s" repeatCount="indefinite" />
      <animate attributeName="opacity" values="0.7;0" dur="1.8s" repeatCount="indefinite" />
    </circle>
    
    <circle cx="580" cy="85" r="2" fill="#3498db">
      <animate attributeName="cy" values="85;105" dur="1.7s" repeatCount="indefinite" />
      <animate attributeName="opacity" values="0.7;0" dur="1.7s" repeatCount="indefinite" />
    </circle>
    
    <circle cx="600" cy="100" r="2" fill="#3498db">
      <animate attributeName="cy" values="100;120" dur="1.6s" repeatCount="indefinite" />
      <animate attributeName="opacity" values="0.7;0" dur="1.6s" repeatCount="indefinite" />
    </circle>
  </g>
  
  <!-- Flow animations in canals -->
  <g>
    <path d="M258,220 Q263,215 268,220 Q273,225 278,220" stroke="#3498db" stroke-width="1" fill="none">
      <animate attributeName="d" values="M258,220 Q263,215 268,220 Q273,225 278,220;
                                        M253,220 Q258,215 263,220 Q268,225 273,220;
                                        M258,220 Q263,215 268,220 Q273,225 278,220" dur="2s" repeatCount="indefinite" />
    </path>
    
    <path d="M358,195 Q363,190 368,195 Q373,200 378,195" stroke="#3498db" stroke-width="1" fill="none">
      <animate attributeName="d" values="M358,195 Q363,190 368,195 Q373,200 378,195;
                                        M353,195 Q358,190 363,195 Q368,200 373,195;
                                        M358,195 Q363,190 368,195 Q373,200 378,195" dur="2.2s" repeatCount="indefinite" />
    </path>
    
    <path d="M395,145 Q400,140 405,145 Q410,150 415,145" stroke="#3498db" stroke-width="1" fill="none">
      <animate attributeName="d" values="M395,145 Q400,140 405,145 Q410,150 415,145;
                                        M390,145 Q395,140 400,145 Q405,150 410,145;
                                        M395,145 Q400,140 405,145 Q410,150 415,145" dur="1.8s" repeatCount="indefinite" />
    </path>
  </g>
  
  <!-- Title text at bottom -->
  <text font-family="Arial" font-size="24" fill="white" text-anchor="middle" font-weight="bold">
    <textPath href="#curved-text-path" startOffset="50%">सिंचित तथा असिंचित क्षेत्रको विवरण</textPath>
  </text>
</svg>
