<svg width="1200" height="400" viewBox="0 0 1200 400" xmlns="http://www.w3.org/2000/svg">
  <defs>
    <!-- Blue gradient matching the hero component -->
    <linearGradient id="bg-gradient" x1="0%" y1="0%" x2="100%" y2="0%">
      <stop offset="0%" stop-color="#0b1f42" />
      <stop offset="100%" stop-color="#1a4894" />
    </linearGradient>
    
    <!-- Ring gradient -->
    <linearGradient id="ring-gradient" x1="0%" y1="0%" x2="100%" y2="100%">
      <stop offset="0%" stop-color="#60a5fa" />
      <stop offset="100%" stop-color="#3b82f6" />
    </linearGradient>
    
    <!-- Marriage symbol definition -->
    <g id="marriage-symbol">
      <circle cx="0" cy="0" r="20" fill="#123772" stroke="white" stroke-width="2" />
      <circle cx="30" cy="0" r="20" fill="#123772" stroke="white" stroke-width="2" />
      <path d="M0,0 L30,0" stroke="white" stroke-width="4" />
    </g>
    
    <!-- Single person symbol -->
    <g id="single-symbol">
      <circle cx="0" cy="0" r="20" fill="#123772" stroke="white" stroke-width="2" />
    </g>
    
    <!-- Widow/Widower symbol -->
    <g id="widow-symbol">
      <circle cx="0" cy="0" r="20" fill="#123772" stroke="white" stroke-width="2" />
      <line x1="-15" y1="-15" x2="15" y2="15" stroke="white" stroke-width="2" />
      <line x1="15" y1="-15" x2="-15" y2="15" stroke="white" stroke-width="2" />
    </g>
    
    <!-- Divorced symbol -->
    <g id="divorced-symbol">
      <circle cx="-10" cy="0" r="20" fill="#123772" stroke="white" stroke-width="2" />
      <circle cx="20" cy="0" r="20" fill="#123772" stroke="white" stroke-width="2" />
      <line x1="-2" y1="0" x2="12" y2="0" stroke="white" stroke-width="2" stroke-dasharray="5,3" />
    </g>
    
    <!-- Marital status bubble path definition -->
    <path id="marital-bubble" 
          d="M0,0 Q5,-15 20,-15 L80,-15 Q95,-15 100,0 L100,40 Q100,55 85,55 L60,55 L45,70 L30,55 L15,55 Q0,55 0,40 Z" />
    
    <!-- Text path for curved text -->
    <path id="curved-text-path" d="M150,350 Q600,200 1050,350" fill="none" />
  </defs>
  
  <!-- Background -->
  <rect width="1200" height="400" fill="url(#bg-gradient)" />
  
  <!-- Decorative dots pattern -->
  <g opacity="0.1">
    <rect width="1200" height="400" fill="url(#pattern-dots)" />
    
    <!-- Scattered circles background -->
    <circle cx="200" cy="80" r="50" fill="white" />
    <circle cx="1000" cy="100" r="70" fill="white" />
    <circle cx="600" cy="50" r="30" fill="white" />
    <circle cx="120" cy="300" r="40" fill="white" />
    <circle cx="900" cy="320" r="60" fill="white" />
  </g>
  
  <!-- Ring symbols representing marriage/relationships -->
  <g opacity="0.5">
    <circle cx="250" cy="150" r="40" fill="none" stroke="url(#ring-gradient)" stroke-width="5" />
    <circle cx="350" cy="120" r="35" fill="none" stroke="url(#ring-gradient)" stroke-width="5" />
    <circle cx="450" cy="170" r="50" fill="none" stroke="url(#ring-gradient)" stroke-width="5" />
  </g>
  
  <!-- Connected rings for married status visualization -->
  <g transform="translate(600, 150)">
    <circle cx="-30" cy="0" r="30" fill="none" stroke="white" stroke-width="2" opacity="0.7" />
    <circle cx="30" cy="0" r="30" fill="none" stroke="white" stroke-width="2" opacity="0.7" />
    <path d="M-30,0 L30,0" stroke="white" stroke-width="2" stroke-dasharray="5,3" opacity="0.7" />
  </g>
  
  <!-- Age-wise marital status pyramid sketch -->
  <g transform="translate(850, 160)" opacity="0.6">
    <!-- Pyramid layers for different age groups -->
    <rect x="-100" y="0" width="80" height="20" fill="#60a5fa" opacity="0.8" />
    <rect x="20" y="0" width="80" height="20" fill="#3b82f6" opacity="0.8" />
    
    <rect x="-120" y="25" width="100" height="20" fill="#60a5fa" opacity="0.8" />
    <rect x="20" y="25" width="100" height="20" fill="#3b82f6" opacity="0.8" />
    
    <rect x="-140" y="50" width="120" height="20" fill="#60a5fa" opacity="0.8" />
    <rect x="20" y="50" width="120" height="20" fill="#3b82f6" opacity="0.8" />
    
    <rect x="-120" y="75" width="100" height="20" fill="#60a5fa" opacity="0.8" />
    <rect x="20" y="75" width="100" height="20" fill="#3b82f6" opacity="0.8" />
    
    <rect x="-100" y="100" width="80" height="20" fill="#60a5fa" opacity="0.8" />
    <rect x="20" y="100" width="80" height="20" fill="#3b82f6" opacity="0.8" />
    
    <rect x="-70" y="125" width="50" height="20" fill="#60a5fa" opacity="0.8" />
    <rect x="20" y="125" width="50" height="20" fill="#3b82f6" opacity="0.8" />
    
    <!-- Center line -->
    <line x1="0" y1="-10" x2="0" y2="155" stroke="white" stroke-width="2" />
  </g>
  
  <!-- Marital Status Bubbles -->
  <g>
    <!-- Married -->
    <g transform="translate(150, 120) scale(1.1)">
      <use href="#marital-bubble" fill="#1e40af" />
      <text x="50" y="25" font-family="Arial" font-size="16" fill="white" text-anchor="middle">विवाहित</text>
    </g>
    
    <!-- Unmarried/Single -->
    <g transform="translate(250, 70) scale(0.9)">
      <use href="#marital-bubble" fill="#3b82f6" />
      <text x="50" y="25" font-family="Arial" font-size="14" fill="white" text-anchor="middle">अविवाहित</text>
    </g>
    
    <!-- Widowed -->
    <g transform="translate(380, 90) scale(0.95)">
      <use href="#marital-bubble" fill="#60a5fa" />
      <text x="50" y="25" font-family="Arial" font-size="14" fill="white" text-anchor="middle">विधुर/विधवा</text>
    </g>
    
    <!-- Divorced -->
    <g transform="translate(280, 150) scale(0.85)">
      <use href="#marital-bubble" fill="#93c5fd" />
      <text x="50" y="25" font-family="Arial" font-size="13" fill="white" text-anchor="middle">पारपाचुके</text>
    </g>
    
    <!-- Separated -->
    <g transform="translate(420, 160) scale(0.8)">
      <use href="#marital-bubble" fill="#bfdbfe" />
      <text x="50" y="25" font-family="Arial" font-size="12" fill="white" text-anchor="middle">छुट्टिएको</text>
    </g>
  </g>
  
  <!-- Marriage symbols -->
  <g transform="translate(700, 80) scale(0.9)">
    <use href="#marriage-symbol" />
  </g>
  
  <g transform="translate(800, 110) scale(1.1)">
    <use href="#marriage-symbol" />
  </g>
  
  <g transform="translate(750, 50) scale(0.8)">
    <use href="#marriage-symbol" />
  </g>
  
  <!-- Single symbols -->
  <g transform="translate(650, 70) scale(0.7)">
    <use href="#single-symbol" />
  </g>
  
  <g transform="translate(680, 120) scale(0.65)">
    <use href="#single-symbol" />
  </g>
  
  <!-- Age indicators --> 
  <g transform="translate(850, 70)" opacity="0.7">
    <text x="0" y="0" font-family="Arial" font-size="12" fill="white" text-anchor="end">७५+</text>
    <text x="0" y="25" font-family="Arial" font-size="12" fill="white" text-anchor="end">६०-७४</text>
    <text x="0" y="50" font-family="Arial" font-size="12" fill="white" text-anchor="end">४५-५९</text>
    <text x="0" y="75" font-family="Arial" font-size="12" fill="white" text-anchor="end">३०-४४</text>
    <text x="0" y="100" font-family="Arial" font-size="12" fill="white" text-anchor="end">१५-२९</text>
    <text x="0" y="125" font-family="Arial" font-size="12" fill="white" text-anchor="end">०-१४</text>
  </g>
  
  <!-- Pie chart representing overall marital status -->
  <g transform="translate(200, 250)">
    <circle cx="0" cy="0" r="60" fill="none" stroke="white" stroke-width="1" opacity="0.2" />
    <path d="M0,0 L60,0 A60,60 0 0,1 30,52 Z" fill="#1e40af" opacity="0.7" />
    <path d="M0,0 L30,52 A60,60 0 0,1 -30,52 Z" fill="#3b82f6" opacity="0.7" />
    <path d="M0,0 L-30,52 A60,60 0 0,1 -60,0 Z" fill="#60a5fa" opacity="0.7" />
    <path d="M0,0 L-60,0 A60,60 0 0,1 0,-60 Z" fill="#93c5fd" opacity="0.7" />
    <path d="M0,0 L0,-60 A60,60 0 0,1 60,0 Z" fill="#bfdbfe" opacity="0.7" />
  </g>
  
  <!-- Bar chart representing marital status by gender -->
  <g transform="translate(400, 250)">
    <!-- Male bars -->
    <rect x="0" y="0" width="20" height="60" fill="#1d4ed8" opacity="0.8" />
    <rect x="30" y="10" width="20" height="50" fill="#1d4ed8" opacity="0.8" />
    <rect x="60" y="40" width="20" height="20" fill="#1d4ed8" opacity="0.8" />
    <rect x="90" y="45" width="20" height="15" fill="#1d4ed8" opacity="0.8" />
    <rect x="120" y="50" width="20" height="10" fill="#1d4ed8" opacity="0.8" />
    
    <!-- Female bars -->
    <rect x="0" y="-60" width="20" height="50" fill="#60a5fa" opacity="0.8" />
    <rect x="30" y="-60" width="20" height="40" fill="#60a5fa" opacity="0.8" />
    <rect x="60" y="-40" width="20" height="20" fill="#60a5fa" opacity="0.8" />
    <rect x="90" y="-35" width="20" height="15" fill="#60a5fa" opacity="0.8" />
    <rect x="120" y="-30" width="20" height="10" fill="#60a5fa" opacity="0.8" />
    
    <!-- Center line -->
    <line x1="-10" y1="0" x2="150" y2="0" stroke="white" stroke-width="1" opacity="0.5" />
  </g>
  
  <!-- Line graph for age at marriage trend -->
  <g transform="translate(650, 250)">
    <polyline points="0,0 30,-20 60,-30 90,-20 120,-40 150,-35" 
             fill="none" stroke="#60a5fa" stroke-width="3" opacity="0.8" />
             
    <circle cx="0" cy="0" r="4" fill="white" />
    <circle cx="30" cy="-20" r="4" fill="white" />
    <circle cx="60" cy="-30" r="4" fill="white" />
    <circle cx="90" cy="-20" r="4" fill="white" />
    <circle cx="120" cy="-40" r="4" fill="white" />
    <circle cx="150" cy="-35" r="4" fill="white" />
  </g>
  
  <!-- Ward-wise comparison -->
  <g transform="translate(900, 250)">
    <rect x="0" y="0" width="40" height="10" fill="#0c4a6e" />
    <rect x="0" y="15" width="70" height="10" fill="#0c4a6e" />
    <rect x="0" y="30" width="50" height="10" fill="#0c4a6e" />
    <rect x="0" y="45" width="90" height="10" fill="#0c4a6e" />
    <rect x="0" y="60" width="60" height="10" fill="#0c4a6e" />
    
    <text x="-5" y="10" font-family="Arial" font-size="10" fill="white" text-anchor="end">वडा १</text>
    <text x="-5" y="25" font-family="Arial" font-size="10" fill="white" text-anchor="end">वडा २</text>
    <text x="-5" y="40" font-family="Arial" font-size="10" fill="white" text-anchor="end">वडा ३</text>
    <text x="-5" y="55" font-family="Arial" font-size="10" fill="white" text-anchor="end">वडा ४</text>
    <text x="-5" y="70" font-family="Arial" font-size="10" fill="white" text-anchor="end">वडा ५</text>
  </g>
  
  <!-- Title at bottom -->
  <text font-family="Arial" font-size="20" fill="white" text-anchor="middle" font-weight="bold">
    <textPath href="#curved-text-path" startOffset="50%">उमेर अनुसार वैवाहिक स्थिति</textPath>
  </text>
  
  <!-- Human silhouettes representing different marriage statuses at bottom -->
  <g transform="translate(100, 320)">
    <circle cx="0" cy="0" r="10" fill="white" opacity="0.6" />
    <rect x="-5" y="12" width="10" height="20" fill="white" opacity="0.6" rx="2" />
  </g>
  
  <g transform="translate(130, 320)">
    <circle cx="0" cy="0" r="10" fill="white" opacity="0.6" />
    <rect x="-5" y="12" width="10" height="20" fill="white" opacity="0.6" rx="2" />
  </g>
  
  <g transform="translate(160, 320)">
    <circle cx="0" cy="0" r="10" fill="white" opacity="0.6" />
    <rect x="-5" y="12" width="10" height="20" fill="white" opacity="0.6" rx="2" />
  </g>
  
  <g transform="translate(1050, 320)">
    <circle cx="0" cy="0" r="10" fill="white" opacity="0.6" />
    <rect x="-5" y="12" width="10" height="20" fill="white" opacity="0.6" rx="2" />
  </g>
  
  <g transform="translate(1080, 320)">
    <circle cx="0" cy="0" r="10" fill="white" opacity="0.6" />
    <rect x="-5" y="12" width="10" height="20" fill="white" opacity="0.6" rx="2" />
  </g>
  
  <g transform="translate(1110, 320)">
    <circle cx="0" cy="0" r="10" fill="white" opacity="0.6" />
    <rect x="-5" y="12" width="10" height="20" fill="white" opacity="0.6" rx="2" />
  </g>
</svg>
