<?xml version="1.0" encoding="UTF-8" standalone="no"?>
<svg width="1200" height="400" viewBox="0 0 1200 400"
    xmlns="http://www.w3.org/2000/svg"
    xmlns:xlink="http://www.w3.org/1999/xlink">
    <defs>
        <!-- Gradients for background and elements -->
        <linearGradient id="bg-gradient" x1="0%" y1="0%" x2="100%" y2="100%">
            <stop offset="0%" stop-color="#0f172a" />
            <stop offset="100%" stop-color="#334155" />
        </linearGradient>

        <linearGradient id="mustard-gradient" x1="0%" y1="0%" x2="100%" y2="100%">
            <stop offset="0%" stop-color="#f39c12" />
            <stop offset="100%" stop-color="#f1c40f" />
        </linearGradient>

        <linearGradient id="flax-gradient" x1="0%" y1="0%" x2="100%" y2="100%">
            <stop offset="0%" stop-color="#3498db" />
            <stop offset="100%" stop-color="#2980b9" />
        </linearGradient>

        <linearGradient id="sunflower-gradient" x1="0%" y1="0%" x2="100%" y2="100%">
            <stop offset="0%" stop-color="#f1c40f" />
            <stop offset="100%" stop-color="#f39c12" />
        </linearGradient>

        <linearGradient id="other-gradient" x1="0%" y1="0%" x2="100%" y2="100%">
            <stop offset="0%" stop-color="#95a5a6" />
            <stop offset="100%" stop-color="#7f8c8d" />
        </linearGradient>

        <linearGradient id="olive-gradient" x1="0%" y1="0%" x2="100%" y2="100%">
            <stop offset="0%" stop-color="#27ae60" />
            <stop offset="100%" stop-color="#2ecc71" />
        </linearGradient>

        <linearGradient id="money-gradient" x1="0%" y1="0%" x2="100%" y2="100%">
            <stop offset="0%" stop-color="#2ecc71" />
            <stop offset="100%" stop-color="#27ae60" />
        </linearGradient>

        <linearGradient id="oil-gradient" x1="0%" y1="0%" x2="100%" y2="100%">
            <stop offset="0%" stop-color="#f1c40f" />
            <stop offset="100%" stop-color="#f39c12" opacity="0.7" />
        </linearGradient>

        <!-- Path for curved text at bottom -->
        <path id="curved-text-path" d="M200,350 Q600,280 1000,350" fill="none" />

        <!-- Mustard plant -->
        <path id="mustard-plant" d="M40,100 L40,80 C30,70 20,60 10,50 M40,80 C40,70 45,60 50,50 M40,80 C50,70 60,60 70,50 M40,70 C30,60 20,50 10,40 M40,70 C40,60 45,50 50,40 M40,70 C50,60 60,50 70,40" />
        <path id="mustard-flower" d="M0,0 C5,-5 15,-5 20,0 C15,5 5,5 0,0 Z" />

        <!-- Flax plant -->
        <path id="flax-plant" d="M50,100 L50,10 M50,30 C40,20 30,20 20,30 M50,30 C60,20 70,20 80,30 M50,50 C40,40 30,40 20,50 M50,50 C60,40 70,40 80,50 M50,70 C40,60 30,60 20,70 M50,70 C60,60 70,60 80,70" />
        <path id="flax-flower" d="M0,0 C3,-6 10,-10 20,-6 C10,-3 3,0 0,0 Z" />

        <!-- Sunflower -->
        <path id="sunflower-plant" d="M50,100 L50,50 M30,50 C30,40 40,30 50,30 C60,30 70,40 70,50 C70,60 60,70 50,70 C40,70 30,60 30,50 Z" />
        <path id="sunflower-petal" d="M0,0 L5,-15 L0,-20 L-5,-15 Z" />

        <!-- Oil drop -->
        <path id="oil-drop" d="M10,0 C20,-10 30,0 20,10 C10,0 0,-10 10,0 Z" />

        <!-- Sack of oil seeds -->
        <path id="seed-sack" d="M10,30 C0,20 0,0 25,0 C50,0 50,20 40,30 L40,90 C40,110 10,110 10,90 Z" />

        <!-- Rupee symbol -->
        <path id="rupee-symbol" d="M0,0 L30,0 L30,10 L20,10 L30,30 L0,30 L0,20 L10,20 L0,0 Z" />

        <!-- Oil Bottle -->
        <path id="oil-bottle" d="M30,0 L45,0 L45,20 L60,40 L60,100 L15,100 L15,40 L30,20 Z" />

        <!-- Market stall -->
        <path id="market-stall" d="M0,20 L100,20 L90,0 L10,0 Z M10,20 L10,70 L90,70 L90,20 Z M0,20 L0,80 L100,80 L100,20 Z" />

        <!-- Farmer -->
        <path id="farmer" d="M25,10 C25,4.5 29.5,0 35,0 C40.5,0 45,4.5 45,10 C45,15.5 40.5,20 35,20 C29.5,20 25,15.5 25,10 Z M15,45 C15,25 55,25 55,45 L55,80 L45,80 L45,60 L35,80 L25,60 L25,80 L15,80 Z" />

        <!-- Oil seed title bubble -->
        <path id="seed-bubble" d="M0,0 Q5,-15 20,-15 L80,-15 Q95,-15 100,0 L100,40 Q100,55 85,55 L60,55 L45,70 L30,55 L15,55 Q0,55 0,40 Z" />

        <!-- Grid pattern for background -->
        <pattern id="grid-pattern" x="0" y="0" width="40" height="40" patternUnits="userSpaceOnUse">
            <path d="M0,0 L40,0 L40,40 L0,40 Z" fill="none" stroke="#1e293b" stroke-width="0.5" opacity="0.3" />
        </pattern>
    </defs>

    <!-- Background with gradient and grid -->
    <rect width="1200" height="400" fill="url(#bg-gradient)" />
    <rect width="1200" height="400" fill="url(#grid-pattern)" />

    <!-- Decorative elements -->
    <g opacity="0.1">
        <circle cx="150" cy="80" r="40" fill="white" />
        <circle cx="1050" cy="100" r="50" fill="white" />
        <circle cx="600" cy="50" r="30" fill="white" />
        <circle cx="100" cy="320" r="35" fill="white" />
        <circle cx="1100" cy="300" r="45" fill="white" />
    </g>

    <!-- Animated clouds -->
    <g opacity="0.3">
        <path d="M100,70 Q120,50 150,60 Q170,40 200,50 Q220,30 250,50 Q230,70 200,65 Q180,75 150,70 Q130,80 100,70 Z" fill="white">
            <animate attributeName="d" values="M100,70 Q120,50 150,60 Q170,40 200,50 Q220,30 250,50 Q230,70 200,65 Q180,75 150,70 Q130,80 100,70 Z;
                                        M110,70 Q130,50 160,60 Q180,40 210,50 Q230,30 260,50 Q240,70 210,65 Q190,75 160,70 Q140,80 110,70 Z;
                                        M100,70 Q120,50 150,60 Q170,40 200,50 Q220,30 250,50 Q230,70 200,65 Q180,75 150,70 Q130,80 100,70 Z" dur="20s" repeatCount="indefinite" />
        </path>

        <path d="M700,50 Q730,30 760,45 Q780,20 810,40 Q790,60 760,55 Q740,65 700,50 Z" fill="white">
            <animate attributeName="d" values="M700,50 Q730,30 760,45 Q780,20 810,40 Q790,60 760,55 Q740,65 700,50 Z;
                                        M710,50 Q740,30 770,45 Q790,20 820,40 Q800,60 770,55 Q750,65 710,50 Z;
                                        M700,50 Q730,30 760,45 Q780,20 810,40 Q790,60 760,55 Q740,65 700,50 Z" dur="15s" repeatCount="indefinite" />
        </path>

        <path d="M400,90 Q430,60 460,80 Q480,50 510,70 Q490,100 460,90 Q440,110 400,90 Z" fill="white">
            <animate attributeName="d" values="M400,90 Q430,60 460,80 Q480,50 510,70 Q490,100 460,90 Q440,110 400,90 Z;
                                        M390,90 Q420,60 450,80 Q470,50 500,70 Q480,100 450,90 Q430,110 390,90 Z;
                                        M400,90 Q430,60 460,80 Q480,50 510,70 Q490,100 460,90 Q440,110 400,90 Z" dur="18s" repeatCount="indefinite" />
        </path>
    </g>

    <!-- Sun -->
    <g transform="translate(900, 60)">
        <circle cx="0" cy="0" r="30" fill="#f39c12" opacity="0.7" />
        <g opacity="0.7">
            <path d="M0,-40 L0,-35 M28,-28 L25,-25 M40,0 L35,0 M28,28 L25,25 M0,40 L0,35 M-28,28 L-25,25 M-40,0 L-35,0 M-28,-28 L-25,-25" stroke="#f39c12" stroke-width="3" />
        </g>
    </g>

    <!-- Main oil seeds visualization section -->
    <!-- Mustard plant -->
    <g transform="translate(100, 100)">
        <g transform="scale(1.2)">
            <use href="#mustard-plant" stroke="#795548" stroke-width="2" fill="none" />
            <!-- Mustard flowers -->
            <g transform="translate(10, 50)">
                <use href="#mustard-flower" fill="url(#mustard-gradient)" />
            </g>
            <g transform="translate(50, 50)">
                <use href="#mustard-flower" fill="url(#mustard-gradient)" />
            </g>
            <g transform="translate(70, 50)">
                <use href="#mustard-flower" fill="url(#mustard-gradient)" />
            </g>
            <g transform="translate(10, 40)">
                <use href="#mustard-flower" fill="url(#mustard-gradient)" />
            </g>
            <g transform="translate(50, 40)">
                <use href="#mustard-flower" fill="url(#mustard-gradient)" />
            </g>
            <g transform="translate(70, 40)">
                <use href="#mustard-flower" fill="url(#mustard-gradient)" />
            </g>
            <!-- Seeds -->
            <circle cx="30" cy="90" r="2" fill="#333" />
            <circle cx="35" cy="85" r="2" fill="#333" />
            <circle cx="40" cy="87" r="2" fill="#333" />
            <circle cx="45" cy="90" r="2" fill="#333" />
            <circle cx="50" cy="85" r="2" fill="#333" />
        </g>
        <g transform="translate(10, 90) scale(1)">
            <use href="#seed-bubble" fill="url(#mustard-gradient)" />
            <text x="50" y="25" font-family="Arial" font-size="14" fill="white" text-anchor="middle">तोरी / सरसों</text>
        </g>
    </g>

    <!-- Flax plant -->
    <g transform="translate(240, 100)">
        <g transform="scale(1.2)">
            <use href="#flax-plant" stroke="#795548" stroke-width="2" fill="none" />
            <!-- Flax flowers -->
            <g transform="translate(20, 30)">
                <use href="#flax-flower" fill="url(#flax-gradient)" transform="rotate(90)" />
            </g>
            <g transform="translate(80, 30)">
                <use href="#flax-flower" fill="url(#flax-gradient)" transform="rotate(-90)" />
            </g>
            <g transform="translate(20, 50)">
                <use href="#flax-flower" fill="url(#flax-gradient)" transform="rotate(90)" />
            </g>
            <g transform="translate(80, 50)">
                <use href="#flax-flower" fill="url(#flax-gradient)" transform="rotate(-90)" />
            </g>
            <g transform="translate(20, 70)">
                <use href="#flax-flower" fill="url(#flax-gradient)" transform="rotate(90)" />
            </g>
            <g transform="translate(80, 70)">
                <use href="#flax-flower" fill="url(#flax-gradient)" transform="rotate(-90)" />
            </g>
            <!-- Seeds -->
            <circle cx="40" cy="85" r="2" fill="#333" />
            <circle cx="45" cy="90" r="2" fill="#333" />
            <circle cx="50" cy="88" r="2" fill="#333" />
            <circle cx="55" cy="85" r="2" fill="#333" />
            <circle cx="60" cy="90" r="2" fill="#333" />
        </g>
        <g transform="translate(10, 90) scale(1)">
            <use href="#seed-bubble" fill="url(#flax-gradient)" />
            <text x="50" y="25" font-family="Arial" font-size="14" fill="white" text-anchor="middle">आलस</text>
        </g>
    </g>

    <!-- Sunflower -->
    <g transform="translate(380, 100)">
        <g transform="scale(1.2)">
            <use href="#sunflower-plant" stroke="#795548" stroke-width="2" fill="none" />
            <!-- Sunflower head -->
            <circle cx="50" cy="50" r="20" fill="#795548" />
            <!-- Sunflower petals -->
            <g transform="translate(50, 50)">
                <use href="#sunflower-petal" fill="url(#sunflower-gradient)" transform="rotate(0)" />
                <use href="#sunflower-petal" fill="url(#sunflower-gradient)" transform="rotate(30)" />
                <use href="#sunflower-petal" fill="url(#sunflower-gradient)" transform="rotate(60)" />
                <use href="#sunflower-petal" fill="url(#sunflower-gradient)" transform="rotate(90)" />
                <use href="#sunflower-petal" fill="url(#sunflower-gradient)" transform="rotate(120)" />
                <use href="#sunflower-petal" fill="url(#sunflower-gradient)" transform="rotate(150)" />
                <use href="#sunflower-petal" fill="url(#sunflower-gradient)" transform="rotate(180)" />
                <use href="#sunflower-petal" fill="url(#sunflower-gradient)" transform="rotate(210)" />
                <use href="#sunflower-petal" fill="url(#sunflower-gradient)" transform="rotate(240)" />
                <use href="#sunflower-petal" fill="url(#sunflower-gradient)" transform="rotate(270)" />
                <use href="#sunflower-petal" fill="url(#sunflower-gradient)" transform="rotate(300)" />
                <use href="#sunflower-petal" fill="url(#sunflower-gradient)" transform="rotate(330)" />
            </g>
            <!-- Seeds -->
            <circle cx="45" cy="45" r="1.5" fill="#333" />
            <circle cx="50" cy="45" r="1.5" fill="#333" />
            <circle cx="55" cy="45" r="1.5" fill="#333" />
            <circle cx="45" cy="50" r="1.5" fill="#333" />
            <circle cx="50" cy="50" r="1.5" fill="#333" />
            <circle cx="55" cy="50" r="1.5" fill="#333" />
            <circle cx="45" cy="55" r="1.5" fill="#333" />
            <circle cx="50" cy="55" r="1.5" fill="#333" />
            <circle cx="55" cy="55" r="1.5" fill="#333" />
        </g>
        <g transform="translate(10, 90) scale(1)">
            <use href="#seed-bubble" fill="url(#sunflower-gradient)" />
            <text x="50" y="25" font-family="Arial" font-size="14" fill="white" text-anchor="middle">सूर्यमुखी</text>
        </g>
    </g>

    <!-- Olive (Representing other oil seeds) -->
    <g transform="translate(520, 100)">
        <g transform="scale(1.2)">
            <path d="M50,10 C70,10 80,30 70,50 C60,70 40,70 30,50 C20,30 30,10 50,10 Z" fill="url(#olive-gradient)" />
            <!-- Olive branch -->
            <path d="M50,10 C40,0 30,0 20,10 M20,10 C10,0 0,10 0,20" stroke="#27ae60" stroke-width="2" fill="none" />
            <path d="M10,5 C10,0 15,0 15,5 M5,15 C0,15 0,20 5,20" fill="#27ae60" />
            <!-- Seeds inside -->
            <ellipse cx="50" cy="40" rx="10" ry="15" fill="#795548" />
        </g>
        <g transform="translate(10, 90) scale(1)">
            <use href="#seed-bubble" fill="url(#olive-gradient)" />
            <text x="50" y="25" font-family="Arial" font-size="14" fill="white" text-anchor="middle">जैतुन</text>
        </g>
    </g>

    <!-- Other Oil Seeds -->
    <g transform="translate(660, 100)">
        <g transform="scale(1.2)">
            <rect x="20" y="20" width="60" height="60" rx="10" fill="url(#other-gradient)" />
            <!-- Various seed representations -->
            <circle cx="35" cy="35" r="5" fill="#f39c12" />
            <circle cx="65" cy="35" r="5" fill="#27ae60" />
            <circle cx="35" cy="65" r="5" fill="#e74c3c" />
            <circle cx="65" cy="65" r="5" fill="#3498db" />
            <circle cx="50" cy="50" r="7" fill="#8e44ad" />
        </g>
        <g transform="translate(10, 90) scale(1)">
            <use href="#seed-bubble" fill="url(#other-gradient)" />
            <text x="50" y="25" font-family="Arial" font-size="14" fill="white" text-anchor="middle">अन्य</text>
        </g>
    </g>

    <!-- Oil Bottle Representation -->
    <g transform="translate(800, 100)">
        <g transform="scale(1.2)">
            <use href="#oil-bottle" fill="#f1c40f" opacity="0.8" />
            <path d="M30,60 L45,60 L50,40 L25,40 Z" fill="url(#oil-gradient)" />
            <text x="40" y="80" font-family="Arial" font-size="10" fill="white" text-anchor="middle">तेल</text>
        </g>
        <g transform="translate(10, 90) scale(1)">
            <use href="#seed-bubble" fill="url(#oil-gradient)" />
            <text x="50" y="25" font-family="Arial" font-size="14" fill="white" text-anchor="middle">प्रशोधित तेल</text>
        </g>
    </g>

    <!-- Oil Press / Extraction -->
    <g transform="translate(940, 100)">
        <g transform="scale(1.2)">
            <rect x="25" y="20" width="50" height="70" rx="5" fill="#7f8c8d" />
            <!-- Press mechanism -->
            <rect x="35" y="30" width="30" height="10" fill="#95a5a6" />
            <rect x="40" y="40" width="20" height="30" fill="#95a5a6" />
            <rect x="35" y="70" width="30" height="10" fill="#95a5a6" />
            <!-- Oil drops coming out -->
            <path d="M40,80 L40,90 C36,95 44,95 40,90 Z" fill="url(#oil-gradient)">
                <animate attributeName="opacity" values="1;0;1" dur="3s" repeatCount="indefinite" />
            </path>
            <path d="M60,80 L60,90 C56,95 64,95 60,90 Z" fill="url(#oil-gradient)">
                <animate attributeName="opacity" values="0;1;0" dur="3s" repeatCount="indefinite" />
            </path>
        </g>
        <g transform="translate(10, 90) scale(1)">
            <use href="#seed-bubble" fill="#7f8c8d" />
            <text x="50" y="25" font-family="Arial" font-size="14" fill="white" text-anchor="middle">तेल मिल</text>
        </g>
    </g>

    <!-- Production and sales visualization -->
    <!-- Production pie chart -->
    <g transform="translate(200, 230)">
        <circle cx="60" cy="60" r="50" fill="#212f3d" stroke="#fff" stroke-width="1" opacity="0.8" />
        <!-- Pie segments (representing different oil seeds) -->
        <path d="M60,60 L60,10 A50,50 0 0,1 107,77 Z" fill="url(#mustard-gradient)" />
        <!-- Mustard: 55% -->
        <path d="M60,60 L107,77 A50,50 0 0,1 80,106 Z" fill="url(#sunflower-gradient)" />
        <!-- Sunflower: 15% -->
        <path d="M60,60 L80,106 A50,50 0 0,1 22,85 Z" fill="url(#flax-gradient)" />
        <!-- Flax: 20% -->
        <path d="M60,60 L22,85 A50,50 0 0,1 60,10 Z" fill="url(#other-gradient)" />
        <!-- Others: 10% -->

        <circle cx="60" cy="60" r="20" fill="#212f3d" />
        <text x="60" y="65" font-family="Arial" font-size="10" fill="white" text-anchor="middle">उत्पादन</text>
    </g>

    <!-- Sales pie chart -->
    <g transform="translate(400, 230)">
        <circle cx="60" cy="60" r="50" fill="#212f3d" stroke="#fff" stroke-width="1" opacity="0.8" />
        <!-- Pie segments (representing different oil seeds) -->
        <path d="M60,60 L60,10 A50,50 0 0,1 110,60 Z" fill="url(#mustard-gradient)" />
        <!-- Mustard: 25% -->
        <path d="M60,60 L110,60 A50,50 0 0,1 60,110 Z" fill="url(#sunflower-gradient)" />
        <!-- Sunflower: 25% -->
        <path d="M60,60 L60,110 A50,50 0 0,1 10,60 Z" fill="url(#flax-gradient)" />
        <!-- Flax: 25% -->
        <path d="M60,60 L10,60 A50,50 0 0,1 60,10 Z" fill="url(#other-gradient)" />
        <!-- Others: 25% -->

        <circle cx="60" cy="60" r="20" fill="#212f3d" />
        <text x="60" y="65" font-family="Arial" font-size="10" fill="white" text-anchor="middle">बिक्री</text>
    </g>

    <!-- Revenue chart -->
    <g transform="translate(600, 230)">
        <rect x="20" y="20" width="30" height="80" fill="url(#mustard-gradient)" />
        <rect x="60" y="40" width="30" height="60" fill="url(#sunflower-gradient)" />
        <rect x="100" y="70" width="30" height="30" fill="url(#flax-gradient)" />

        <text x="35" y="110" font-family="Arial" font-size="10" fill="white" text-anchor="middle">तोरी</text>
        <text x="75" y="110" font-family="Arial" font-size="10" fill="white" text-anchor="middle">सूर्यमुखी</text>
        <text x="115" y="110" font-family="Arial" font-size="10" fill="white" text-anchor="middle">आलस</text>

        <text x="75" y="130" font-family="Arial" font-size="14" fill="white" text-anchor="middle">आम्दानी (रु)</text>
    </g>

    <!-- Self-consumption vs. Sales visualization -->
    <g transform="translate(800, 230)">
        <rect x="20" y="20" width="120" height="30" fill="#3498db" opacity="0.8" />
        <rect x="20" y="60" width="80" height="30" fill="#2ecc71" opacity="0.8" />

        <text x="80" y="40" font-family="Arial" font-size="12" fill="white" text-anchor="middle">कुल उत्पादन</text>
        <text x="60" y="80" font-family="Arial" font-size="12" fill="white" text-anchor="middle">बिक्री</text>

        <path d="M20,110 L140,110" stroke="white" stroke-width="1" />
        <text x="80" y="130" font-family="Arial" font-size="14" fill="white" text-anchor="middle">उपभोग / बिक्री अनुपात</text>
    </g>

    <!-- Farmers & Market Icons -->
    <g transform="translate(80, 270) scale(0.7)">
        <use href="#farmer" fill="#3498db" />
    </g>

    <g transform="translate(130, 270) scale(0.7)">
        <use href="#farmer" fill="#2ecc71" />
    </g>

    <!-- Arrow showing flow from farmers to market -->
    <path d="M160,290 L190,290" stroke="#f39c12" stroke-width="3" marker-end="url(#arrowhead)" />

    <!-- Define arrowhead marker -->
    <defs>
        <marker id="arrowhead" markerWidth="10" markerHeight="7" refX="9" refY="3.5" orient="auto">
            <polygon points="0 0, 10 3.5, 0 7" fill="#f39c12" />
        </marker>
    </defs>

    <!-- Market stall -->
    <g transform="translate(200, 270) scale(0.5)">
        <use href="#market-stall" fill="#e74c3c" />
        <rect x="20" y="30" width="20" height="30" fill="url(#mustard-gradient)" />
        <rect x="50" y="30" width="20" height="30" fill="url(#sunflower-gradient)" />
        <rect x="80" y="30" width="10" height="10" fill="url(#flax-gradient)" />
    </g>

    <!-- Arrow showing flow from market to money -->
    <path d="M260,290 L290,290" stroke="#f39c12" stroke-width="3" marker-end="url(#arrowhead)" />

    <!-- Money/Revenue -->
    <g transform="translate(300, 270) scale(0.8)">
        <circle cx="25" cy="25" r="25" fill="url(#money-gradient)" />
        <text x="25" y="35" font-family="Arial" font-size="30" font-weight="bold" fill="white" text-anchor="middle">रु</text>
    </g>

    <!-- Commercialization indicator -->
    <g transform="translate(450, 320)">
        <rect x="0" y="0" width="300" height="20" rx="10" fill="#1e293b" opacity="0.8" />
        <rect x="0" y="0" width="200" height="20" rx="10" fill="#2ecc71" opacity="0.8" />
        <!-- 60% commercialized -->
        <text x="150" y="15" font-family="Arial" font-size="12" fill="white" text-anchor="middle">व्यावसायीकरण स्कोर</text>
    </g>

    <!-- Oil value chain visualization -->
    <g transform="translate(900, 240)">
        <!-- Step 1: Seeds -->
        <g transform="translate(0, 0) scale(0.4)">
            <circle cx="40" cy="40" r="30" fill="url(#mustard-gradient)" />
            <text x="40" y="45" font-family="Arial" font-size="10" fill="#333" text-anchor="middle">बीउ</text>
        </g>
        <!-- Arrow -->
        <path d="M50,40 L80,40" stroke="#f39c12" stroke-width="2" marker-end="url(#arrowhead)" />

        <!-- Step 2: Extraction -->
        <g transform="translate(90, 0) scale(0.4)">
            <rect x="10" y="10" width="60" height="60" rx="5" fill="#7f8c8d" />
            <path d="M40,40 C30,30 30,50 40,60 C50,50 50,30 40,40" fill="url(#oil-gradient)" />
            <text x="40" y="80" font-family="Arial" font-size="10" fill="#fff" text-anchor="middle">प्रशोधन</text>
        </g>
        <!-- Arrow -->
        <path d="M140,40 L170,40" stroke="#f39c12" stroke-width="2" marker-end="url(#arrowhead)" />

        <!-- Step 3: Oil -->
        <g transform="translate(180, 0) scale(0.4)">
            <use href="#oil-bottle" fill="url(#oil-gradient)" />
            <text x="40" y="80" font-family="Arial" font-size="10" fill="#fff" text-anchor="middle">तेल</text>
        </g>

        <!-- Process label -->
        <text x="120" y="80" font-family="Arial" font-size="14" fill="white" text-anchor="middle">तेल उत्पादन प्रक्रिया</text>
    </g>

    <!-- Oil drop animation -->
    <g transform="translate(950, 330)" opacity="0.7">
        <path d="M0,0 C10,-10 20,0 10,10 C0,0 -10,-10 0,0 Z" fill="url(#oil-gradient)">
            <animate attributeName="transform" type="translate" values="0,0; 0,10; 0,0" dur="3s" repeatCount="indefinite" />
        </path>
    </g>

    <g transform="translate(1000, 320)" opacity="0.7">
        <path d="M0,0 C10,-10 20,0 10,10 C0,0 -10,-10 0,0 Z" fill="url(#oil-gradient)">
            <animate attributeName="transform" type="translate" values="0,0; 0,15; 0,0" dur="4s" repeatCount="indefinite" />
        </path>
    </g>

    <g transform="translate(1050, 330)" opacity="0.7">
        <path d="M0,0 C10,-10 20,0 10,10 C0,0 -10,-10 0,0 Z" fill="url(#oil-gradient)">
            <animate attributeName="transform" type="translate" values="0,0; 0,12; 0,0" dur="3.5s" repeatCount="indefinite" />
        </path>
    </g>

    <!-- Seed sacks representing harvested oil seeds -->
    <g transform="translate(1000, 240) scale(0.4)">
        <use href="#seed-sack" fill="url(#mustard-gradient)" />
    </g>

    <g transform="translate(1030, 240) scale(0.4)">
        <use href="#seed-sack" fill="url(#sunflower-gradient)" />
    </g>

    <g transform="translate(1060, 240) scale(0.4)">
        <use href="#seed-sack" fill="url(#flax-gradient)" />
    </g>

    <g transform="translate(1090, 240) scale(0.4)">
        <use href="#seed-sack" fill="url(#other-gradient)" />
    </g>

    <!-- Oil quality indicator -->
    <g transform="translate(1000, 280)">
        <text x="0" y="0" font-family="Arial" font-size="12" fill="white">तेलको गुणस्तर</text>
        <rect x="0" y="10" width="150" height="10" rx="5" fill="#1e293b" opacity="0.8" />
        <rect x="0" y="10" width="120" height="10" rx="5" fill="#e67e22" opacity="0.8" />
        <!-- 80% quality -->
    </g>

    <!-- Title text at bottom -->
    <text font-family="Arial" font-size="24" fill="white" text-anchor="middle" font-weight="bold">
        <textPath href="#curved-text-path" startOffset="50%">तेलहन बालीको प्रकार अनुसार उत्पादन र बिक्री</textPath>
    </text>
</svg>
