<?xml version="1.0" encoding="UTF-8" standalone="no"?>
<svg width="1200" height="400" viewBox="0 0 1200 400"
    xmlns="http://www.w3.org/2000/svg"
    xmlns:xlink="http://www.w3.org/1999/xlink">
    <defs>
        <!-- Gradients for background and elements -->
        <linearGradient id="bg-gradient" x1="0%" y1="0%" x2="100%" y2="100%">
            <stop offset="0%" stop-color="#0f172a" />
            <stop offset="100%" stop-color="#334155" />
        </linearGradient>

        <linearGradient id="lentil-gradient" x1="0%" y1="0%" x2="100%" y2="100%">
            <stop offset="0%" stop-color="#e74c3c" />
            <stop offset="100%" stop-color="#c0392b" />
        </linearGradient>

        <linearGradient id="chickpea-gradient" x1="0%" y1="0%" x2="100%" y2="100%">
            <stop offset="0%" stop-color="#9b59b6" />
            <stop offset="100%" stop-color="#8e44ad" />
        </linearGradient>

        <linearGradient id="pea-gradient" x1="0%" y1="0%" x2="100%" y2="100%">
            <stop offset="0%" stop-color="#3498db" />
            <stop offset="100%" stop-color="#2980b9" />
        </linearGradient>

        <linearGradient id="pigeon-pea-gradient" x1="0%" y1="0%" x2="100%" y2="100%">
            <stop offset="0%" stop-color="#1abc9c" />
            <stop offset="100%" stop-color="#16a085" />
        </linearGradient>

        <linearGradient id="black-gram-gradient" x1="0%" y1="0%" x2="100%" y2="100%">
            <stop offset="0%" stop-color="#34495e" />
            <stop offset="100%" stop-color="#2c3e50" />
        </linearGradient>

        <linearGradient id="soyabean-gradient" x1="0%" y1="0%" x2="100%" y2="100%">
            <stop offset="0%" stop-color="#f1c40f" />
            <stop offset="100%" stop-color="#f39c12" />
        </linearGradient>

        <linearGradient id="money-gradient" x1="0%" y1="0%" x2="100%" y2="100%">
            <stop offset="0%" stop-color="#2ecc71" />
            <stop offset="100%" stop-color="#27ae60" />
        </linearGradient>

        <!-- Path for curved text at bottom -->
        <path id="curved-text-path" d="M200,350 Q600,280 1000,350" fill="none" />

        <!-- Lentil/Masuro -->
        <path id="lentil" d="M0,50 C20,0 80,0 100,50 C100,80 0,80 0,50 Z" />

        <!-- Chickpea/Chana -->
        <path id="chickpea" d="M10,0 C0,10 0,40 10,50 C20,60 30,60 40,50 C50,40 50,10 40,0 C30,-10 20,-10 10,0 Z" />

        <!-- Pea/Kerau -->
        <path id="pea" d="M0,25 C0,11.2 11.2,0 25,0 C38.8,0 50,11.2 50,25 C50,38.8 38.8,50 25,50 C11.2,50 0,38.8 0,25 Z" />

        <!-- Pigeon Pea/Rahar -->
        <path id="pigeon-pea" d="M0,0 L20,0 L30,10 L40,0 L60,0 L60,60 L30,90 L0,60 Z" />

        <!-- Black Gram/Maas -->
        <path id="black-gram" d="M10,0 C0,10 0,40 10,50 C20,60 40,60 50,50 C60,40 60,10 50,0 C40,-10 20,-10 10,0 Z" />

        <!-- Soyabean/Bhatmaas -->
        <path id="soyabean" d="M30,0 L60,30 L30,60 L0,30 Z" />

        <!-- Snake Bean/Bodi -->
        <path id="snake-bean" d="M10,0 C0,20 80,30 50,80 L40,60 C60,30 10,20 10,0 Z" />

        <!-- Bean/Simi -->
        <path id="bean" d="M10,0 C0,30 20,60 30,60 C40,60 60,30 50,0 C40,-10 20,-10 10,0 Z" />

        <!-- Horse Gram/Gahat -->
        <path id="horse-gram" d="M0,10 L5,0 L10,10 L15,0 L20,10 L30,0 L40,10 L45,0 L50,10 L50,50 L0,50 Z" />

        <!-- Pulse plant (generic) -->
        <path id="pulse-plant" d="M30,0 C10,10 0,40 10,60 L20,65 L30,60 L40,65 L50,60 C60,40 50,10 30,0 Z" />

        <!-- Sack of pulses -->
        <path id="pulse-sack" d="M10,30 C0,20 0,0 25,0 C50,0 50,20 40,30 L40,90 C40,110 10,110 10,90 Z" />

        <!-- Rupee symbol -->
        <path id="rupee-symbol" d="M0,0 L30,0 L30,10 L20,10 L30,30 L0,30 L0,20 L10,20 L0,0 Z" />

        <!-- Market stall -->
        <path id="market-stall" d="M0,20 L100,20 L90,0 L10,0 Z M10,20 L10,70 L90,70 L90,20 Z M0,20 L0,80 L100,80 L100,20 Z" />

        <!-- Farmer -->
        <path id="farmer" d="M25,10 C25,4.5 29.5,0 35,0 C40.5,0 45,4.5 45,10 C45,15.5 40.5,20 35,20 C29.5,20 25,15.5 25,10 Z M15,45 C15,25 55,25 55,45 L55,80 L45,80 L45,60 L35,80 L25,60 L25,80 L15,80 Z" />

        <!-- Field/Farm plot -->
        <path id="farm-plot" d="M0,0 L100,0 L100,60 L0,60 Z" />

        <!-- Pie chart segment -->
        <path id="pie-segment-25" d="M50,50 L50,0 A50,50 0 0,1 85,15 Z" />
        <path id="pie-segment-50" d="M50,50 L50,0 A50,50 0 0,1 100,50 Z" />
        <path id="pie-segment-75" d="M50,50 L50,0 A50,50 0 0,1 50,100 Z" />

        <!-- Pulse type bubble -->
        <path id="pulse-bubble" d="M0,0 Q5,-15 20,-15 L80,-15 Q95,-15 100,0 L100,40 Q100,55 85,55 L60,55 L45,70 L30,55 L15,55 Q0,55 0,40 Z" />

        <!-- Water droplet -->
        <path id="water-drop" d="M10,0 C15,-5 25,-5 30,0 C25,10 15,10 10,0 Z" />

        <!-- Grid pattern for background -->
        <pattern id="grid-pattern" x="0" y="0" width="40" height="40" patternUnits="userSpaceOnUse">
            <path d="M0,0 L40,0 L40,40 L0,40 Z" fill="none" stroke="#1e293b" stroke-width="0.5" opacity="0.3" />
        </pattern>

        <!-- Pulse pod pattern -->
        <pattern id="pulse-pod-pattern" x="0" y="0" width="10" height="10" patternUnits="userSpaceOnUse">
            <circle cx="5" cy="5" r="3" fill="#ecf0f1" opacity="0.5" />
        </pattern>
    </defs>

    <!-- Background with gradient and grid -->
    <rect width="1200" height="400" fill="url(#bg-gradient)" />
    <rect width="1200" height="400" fill="url(#grid-pattern)" />

    <!-- Decorative elements -->
    <g opacity="0.1">
        <circle cx="150" cy="80" r="40" fill="white" />
        <circle cx="1050" cy="100" r="50" fill="white" />
        <circle cx="600" cy="50" r="30" fill="white" />
        <circle cx="100" cy="320" r="35" fill="white" />
        <circle cx="1100" cy="300" r="45" fill="white" />
    </g>

    <!-- Animated clouds -->
    <g opacity="0.3">
        <path d="M100,70 Q120,50 150,60 Q170,40 200,50 Q220,30 250,50 Q230,70 200,65 Q180,75 150,70 Q130,80 100,70 Z" fill="white">
            <animate attributeName="d" values="M100,70 Q120,50 150,60 Q170,40 200,50 Q220,30 250,50 Q230,70 200,65 Q180,75 150,70 Q130,80 100,70 Z;
                                        M110,70 Q130,50 160,60 Q180,40 210,50 Q230,30 260,50 Q240,70 210,65 Q190,75 160,70 Q140,80 110,70 Z;
                                        M100,70 Q120,50 150,60 Q170,40 200,50 Q220,30 250,50 Q230,70 200,65 Q180,75 150,70 Q130,80 100,70 Z" dur="20s" repeatCount="indefinite" />
        </path>

        <path d="M700,50 Q730,30 760,45 Q780,20 810,40 Q790,60 760,55 Q740,65 700,50 Z" fill="white">
            <animate attributeName="d" values="M700,50 Q730,30 760,45 Q780,20 810,40 Q790,60 760,55 Q740,65 700,50 Z;
                                        M710,50 Q740,30 770,45 Q790,20 820,40 Q800,60 770,55 Q750,65 710,50 Z;
                                        M700,50 Q730,30 760,45 Q780,20 810,40 Q790,60 760,55 Q740,65 700,50 Z" dur="15s" repeatCount="indefinite" />
        </path>

        <path d="M400,90 Q430,60 460,80 Q480,50 510,70 Q490,100 460,90 Q440,110 400,90 Z" fill="white">
            <animate attributeName="d" values="M400,90 Q430,60 460,80 Q480,50 510,70 Q490,100 460,90 Q440,110 400,90 Z;
                                        M390,90 Q420,60 450,80 Q470,50 500,70 Q480,100 450,90 Q430,110 390,90 Z;
                                        M400,90 Q430,60 460,80 Q480,50 510,70 Q490,100 460,90 Q440,110 400,90 Z" dur="18s" repeatCount="indefinite" />
        </path>
    </g>

    <!-- Sun -->
    <g transform="translate(900, 60)">
        <circle cx="0" cy="0" r="30" fill="#f39c12" opacity="0.7" />
        <g opacity="0.7">
            <path d="M0,-40 L0,-35 M28,-28 L25,-25 M40,0 L35,0 M28,28 L25,25 M0,40 L0,35 M-28,28 L-25,25 M-40,0 L-35,0 M-28,-28 L-25,-25" stroke="#f39c12" stroke-width="3" />
        </g>
    </g>

    <!-- Main pulses visualization section -->
    <!-- Lentil (Masuro) -->
    <g transform="translate(100, 100)">
        <g transform="scale(0.8)">
            <use href="#lentil" fill="url(#lentil-gradient)" />
            <!-- Lentil details -->
            <circle cx="50" cy="40" r="20" fill="none" stroke="#e74c3c" stroke-width="2" />
            <circle cx="50" cy="40" r="15" fill="none" stroke="#e74c3c" stroke-width="1" />
        </g>
        <g transform="translate(10, 90) scale(1)">
            <use href="#pulse-bubble" fill="url(#lentil-gradient)" />
            <text x="50" y="25" font-family="Arial" font-size="14" fill="white" text-anchor="middle">मसुरो</text>
        </g>
    </g>

    <!-- Chickpea (Chana) -->
    <g transform="translate(240, 100)">
        <g transform="scale(1.2)">
            <use href="#chickpea" fill="url(#chickpea-gradient)" />
            <!-- Chickpea details -->
            <path d="M30,20 Q20,30 30,40 M20,25 Q30,35 40,25" stroke="#9b59b6" stroke-width="1" fill="none" />
        </g>
        <g transform="translate(10, 90) scale(1)">
            <use href="#pulse-bubble" fill="url(#chickpea-gradient)" />
            <text x="50" y="25" font-family="Arial" font-size="14" fill="white" text-anchor="middle">चना</text>
        </g>
    </g>

    <!-- Pea (Kerau) -->
    <g transform="translate(380, 100)">
        <g transform="scale(1.5)">
            <use href="#pea" fill="url(#pea-gradient)" />
            <!-- Pea details -->
            <circle cx="25" cy="25" r="15" fill="none" stroke="#3498db" stroke-width="2" />
        </g>
        <g transform="translate(10, 90) scale(1)">
            <use href="#pulse-bubble" fill="url(#pea-gradient)" />
            <text x="50" y="25" font-family="Arial" font-size="14" fill="white" text-anchor="middle">केराउ</text>
        </g>
    </g>

    <!-- Pigeon Pea (Rahar) -->
    <g transform="translate(520, 100)">
        <g transform="scale(1)">
            <use href="#pigeon-pea" fill="url(#pigeon-pea-gradient)" />
            <!-- Pigeon Pea details -->
            <line x1="30" y1="20" x2="30" y2="60" stroke="#1abc9c" stroke-width="2" />
        </g>
        <g transform="translate(10, 90) scale(1)">
            <use href="#pulse-bubble" fill="url(#pigeon-pea-gradient)" />
            <text x="50" y="25" font-family="Arial" font-size="14" fill="white" text-anchor="middle">रहर</text>
        </g>
    </g>

    <!-- Black Gram (Maas) -->
    <g transform="translate(660, 100)">
        <g transform="scale(1.1)">
            <use href="#black-gram" fill="url(#black-gram-gradient)" />
            <!-- Black Gram details -->
            <path d="M20,15 Q30,25 40,15 M20,35 Q30,45 40,35" stroke="#34495e" stroke-width="2" stroke-linecap="round" />
        </g>
        <g transform="translate(10, 90) scale(1)">
            <use href="#pulse-bubble" fill="url(#black-gram-gradient)" />
            <text x="50" y="25" font-family="Arial" font-size="14" fill="white" text-anchor="middle">मास</text>
        </g>
    </g>

    <!-- Soyabean (Bhatmaas) -->
    <g transform="translate(800, 100)">
        <g transform="scale(1)">
            <use href="#soyabean" fill="url(#soyabean-gradient)" />
            <!-- Soyabean details -->
            <circle cx="30" cy="30" r="10" fill="none" stroke="#f1c40f" stroke-width="2" />
        </g>
        <g transform="translate(10, 90) scale(1)">
            <use href="#pulse-bubble" fill="url(#soyabean-gradient)" />
            <text x="50" y="25" font-family="Arial" font-size="14" fill="white" text-anchor="middle">भटमास</text>
        </g>
    </g>

    <!-- Other pulses -->
    <g transform="translate(940, 100)">
        <g transform="scale(0.8)">
            <rect x="10" y="10" width="80" height="80" rx="5" fill="#7f8c8d" />
            <!-- Other pulses details -->
            <circle cx="30" cy="30" r="10" fill="#95a5a6" />
            <circle cx="50" cy="50" r="15" fill="#95a5a6" />
            <circle cx="70" cy="30" r="8" fill="#95a5a6" />
        </g>
        <g transform="translate(10, 90) scale(1)">
            <use href="#pulse-bubble" fill="#7f8c8d" />
            <text x="50" y="25" font-family="Arial" font-size="14" fill="white" text-anchor="middle">अन्य</text>
        </g>
    </g>

    <!-- Production and sales visualization -->
    <!-- Production pie chart -->
    <g transform="translate(200, 230)">
        <circle cx="60" cy="60" r="50" fill="#212f3d" stroke="#fff" stroke-width="1" opacity="0.8" />
        <!-- Pie segments (representing different pulses) -->
        <path d="M60,60 L60,10 A50,50 0 0,1 107,77 Z" fill="url(#lentil-gradient)" />
        <!-- Lentil: 55% -->
        <path d="M60,60 L107,77 A50,50 0 0,1 80,106 Z" fill="url(#chickpea-gradient)" />
        <!-- Chickpea: 15% -->
        <path d="M60,60 L80,106 A50,50 0 0,1 22,85 Z" fill="url(#pea-gradient)" />
        <!-- Pea: 20% -->
        <path d="M60,60 L22,85 A50,50 0 0,1 60,10 Z" fill="#7f8c8d" />
        <!-- Others: 10% -->

        <circle cx="60" cy="60" r="20" fill="#212f3d" />
        <text x="60" y="65" font-family="Arial" font-size="10" fill="white" text-anchor="middle">उत्पादन</text>
    </g>

    <!-- Sales pie chart -->
    <g transform="translate(400, 230)">
        <circle cx="60" cy="60" r="50" fill="#212f3d" stroke="#fff" stroke-width="1" opacity="0.8" />
        <!-- Pie segments (representing different pulses) -->
        <path d="M60,60 L60,10 A50,50 0 0,1 110,60 Z" fill="url(#lentil-gradient)" />
        <!-- Lentil: 25% -->
        <path d="M60,60 L110,60 A50,50 0 0,1 60,110 Z" fill="url(#chickpea-gradient)" />
        <!-- Chickpea: 25% -->
        <path d="M60,60 L60,110 A50,50 0 0,1 10,60 Z" fill="url(#pea-gradient)" />
        <!-- Pea: 25% -->
        <path d="M60,60 L10,60 A50,50 0 0,1 60,10 Z" fill="#7f8c8d" />
        <!-- Others: 25% -->

        <circle cx="60" cy="60" r="20" fill="#212f3d" />
        <text x="60" y="65" font-family="Arial" font-size="10" fill="white" text-anchor="middle">बिक्री</text>
    </g>

    <!-- Revenue chart -->
    <g transform="translate(600, 230)">
        <rect x="20" y="20" width="30" height="80" fill="url(#lentil-gradient)" />
        <rect x="60" y="40" width="30" height="60" fill="url(#chickpea-gradient)" />
        <rect x="100" y="70" width="30" height="30" fill="url(#pea-gradient)" />

        <text x="35" y="110" font-family="Arial" font-size="10" fill="white" text-anchor="middle">मसुरो</text>
        <text x="75" y="110" font-family="Arial" font-size="10" fill="white" text-anchor="middle">चना</text>
        <text x="115" y="110" font-family="Arial" font-size="10" fill="white" text-anchor="middle">केराउ</text>

        <text x="75" y="130" font-family="Arial" font-size="14" fill="white" text-anchor="middle">आम्दानी (रु)</text>
    </g>

    <!-- Self-consumption vs. Sales visualization -->
    <g transform="translate(800, 230)">
        <rect x="20" y="20" width="120" height="30" fill="#3498db" opacity="0.8" />
        <rect x="20" y="60" width="80" height="30" fill="#2ecc71" opacity="0.8" />

        <text x="80" y="40" font-family="Arial" font-size="12" fill="white" text-anchor="middle">कुल उत्पादन</text>
        <text x="60" y="80" font-family="Arial" font-size="12" fill="white" text-anchor="middle">बिक्री</text>

        <path d="M20,110 L140,110" stroke="white" stroke-width="1" />
        <text x="80" y="130" font-family="Arial" font-size="14" fill="white" text-anchor="middle">उपभोग / बिक्री अनुपात</text>
    </g>

    <!-- Farmers & Market Icons -->
    <g transform="translate(80, 270) scale(0.7)">
        <use href="#farmer" fill="#3498db" />
    </g>

    <g transform="translate(130, 270) scale(0.7)">
        <use href="#farmer" fill="#2ecc71" />
    </g>

    <!-- Arrow showing flow from farmers to market -->
    <path d="M160,290 L190,290" stroke="#e74c3c" stroke-width="3" marker-end="url(#arrowhead)" />

    <!-- Define arrowhead marker -->
    <defs>
        <marker id="arrowhead" markerWidth="10" markerHeight="7" refX="9" refY="3.5" orient="auto">
            <polygon points="0 0, 10 3.5, 0 7" fill="#e74c3c" />
        </marker>
    </defs>

    <!-- Market stall -->
    <g transform="translate(200, 270) scale(0.5)">
        <use href="#market-stall" fill="#9b59b6" />
        <rect x="20" y="30" width="20" height="30" fill="url(#lentil-gradient)" />
        <rect x="50" y="30" width="20" height="30" fill="url(#chickpea-gradient)" />
        <rect x="80" y="30" width="10" height="10" fill="url(#pea-gradient)" />
    </g>

    <!-- Arrow showing flow from market to money -->
    <path d="M260,290 L290,290" stroke="#e74c3c" stroke-width="3" marker-end="url(#arrowhead)" />

    <!-- Money/Revenue -->
    <g transform="translate(300, 270) scale(0.8)">
        <circle cx="25" cy="25" r="25" fill="url(#money-gradient)" />
        <text x="25" y="35" font-family="Arial" font-size="30" font-weight="bold" fill="white" text-anchor="middle">रु</text>
    </g>

    <!-- Nutritional value indicator -->
    <g transform="translate(450, 270)">
        <text x="0" y="20" font-family="Arial" font-size="14" fill="white">पोषण मूल्य</text>
        <rect x="0" y="30" width="300" height="20" rx="10" fill="#1e293b" opacity="0.8" />
        <rect x="0" y="30" width="270" height="20" rx="10" fill="#e74c3c" opacity="0.8" />
        <!-- 90% nutritional value -->
        <text x="150" y="45" font-family="Arial" font-size="12" fill="white" text-anchor="middle">उच्च प्रोटिन</text>
    </g>

    <!-- Commercialization indicator -->
    <g transform="translate(450, 320)">
        <text x="0" y="0" font-family="Arial" font-size="14" fill="white">व्यावसायीकरण स्कोर</text>
        <rect x="0" y="10" width="300" height="20" rx="10" fill="#1e293b" opacity="0.8" />
        <rect x="0" y="10" width="180" height="20" rx="10" fill="#2ecc71" opacity="0.8" />
        <!-- 60% commercialized -->
        <text x="150" y="25" font-family="Arial" font-size="12" fill="white" text-anchor="middle">६०%</text>
    </g>

    <!-- Pulse plants showing diversity (animated) -->
    <g transform="translate(900, 270) scale(0.4)" opacity="0.8">
        <g transform="translate(0, 0)">
            <use href="#lentil" fill="url(#lentil-gradient)">
                <animate attributeName="transform" values="scale(1);scale(1.1);scale(1)" dur="4s" repeatCount="indefinite" />
            </use>
        </g>
        <g transform="translate(70, 10)">
            <use href="#chickpea" fill="url(#chickpea-gradient)">
                <animate attributeName="transform" values="scale(1);scale(1.1);scale(1)" dur="4.5s" repeatCount="indefinite" />
            </use>
        </g>
        <g transform="translate(130, 0)">
            <use href="#pea" fill="url(#pea-gradient)">
                <animate attributeName="transform" values="scale(1);scale(1.1);scale(1)" dur="5s" repeatCount="indefinite" />
            </use>
        </g>
        <g transform="translate(200, 10)">
            <use href="#black-gram" fill="url(#black-gram-gradient)">
                <animate attributeName="transform" values="scale(1);scale(1.1);scale(1)" dur="3.5s" repeatCount="indefinite" />
            </use>
        </g>

        <g transform="translate(0, 80)">
            <use href="#soyabean" fill="url(#soyabean-gradient)">
                <animate attributeName="transform" values="scale(1);scale(1.1);scale(1)" dur="3s" repeatCount="indefinite" />
            </use>
        </g>
        <g transform="translate(80, 80)">
            <use href="#pigeon-pea" fill="url(#pigeon-pea-gradient)">
                <animate attributeName="transform" values="scale(1);scale(1.1);scale(1)" dur="5.5s" repeatCount="indefinite" />
            </use>
        </g>
        <g transform="translate(160, 80)">
            <use href="#snake-bean" fill="url(#pea-gradient)">
                <animate attributeName="transform" values="scale(1);scale(1.1);scale(1)" dur="4s" repeatCount="indefinite" />
            </use>
        </g>
    </g>

    <!-- Pulse sacks representing harvested pulses -->
    <g transform="translate(1000, 290) scale(0.4)">
        <use href="#pulse-sack" fill="url(#lentil-gradient)" />
    </g>

    <g transform="translate(1030, 290) scale(0.4)">
        <use href="#pulse-sack" fill="url(#chickpea-gradient)" />
    </g>

    <g transform="translate(1060, 290) scale(0.4)">
        <use href="#pulse-sack" fill="url(#pea-gradient)" />
    </g>

    <g transform="translate(1090, 290) scale(0.4)">
        <use href="#pulse-sack" fill="url(#black-gram-gradient)" />
    </g>

    <!-- Protein content indicator -->
    <g transform="translate(1000, 250)">
        <text x="0" y="0" font-family="Arial" font-size="12" fill="white">प्रोटिन सामग्री</text>
        <rect x="0" y="10" width="150" height="10" rx="5" fill="#1e293b" opacity="0.8" />
        <rect x="0" y="10" width="120" height="10" rx="5" fill="#e74c3c" opacity="0.8" />
        <!-- 80% protein content -->
    </g>

    <!-- Title text at bottom -->
    <text font-family="Arial" font-size="24" fill="white" text-anchor="middle" font-weight="bold">
        <textPath href="#curved-text-path" startOffset="50%">दालबालीको प्रकार अनुसार उत्पादन र बिक्री</textPath>
    </text>
</svg>
