<?xml version="1.0" encoding="UTF-8" standalone="no"?>
<svg width="1200" height="400" viewBox="0 0 1200 400"
    xmlns="http://www.w3.org/2000/svg"
    xmlns:xlink="http://www.w3.org/1999/xlink">
    <defs>
        <!-- Gradients for background and elements -->
        <linearGradient id="bg-gradient" x1="0%" y1="0%" x2="100%" y2="100%">
            <stop offset="0%" stop-color="#0f172a" />
            <stop offset="100%" stop-color="#334155" />
        </linearGradient>

        <linearGradient id="garlic-gradient" x1="0%" y1="0%" x2="100%" y2="100%">
            <stop offset="0%" stop-color="#e67e22" />
            <stop offset="100%" stop-color="#f39c12" />
        </linearGradient>

        <linearGradient id="turmeric-gradient" x1="0%" y1="0%" x2="100%" y2="100%">
            <stop offset="0%" stop-color="#f39c12" />
            <stop offset="100%" stop-color="#f1c40f" />
        </linearGradient>

        <linearGradient id="chili-pepper-gradient" x1="0%" y1="0%" x2="100%" y2="100%">
            <stop offset="0%" stop-color="#e74c3c" />
            <stop offset="100%" stop-color="#c0392b" />
        </linearGradient>

        <linearGradient id="ginger-gradient" x1="0%" y1="0%" x2="100%" y2="100%">
            <stop offset="0%" stop-color="#d35400" />
            <stop offset="100%" stop-color="#e67e22" />
        </linearGradient>

        <linearGradient id="coriander-gradient" x1="0%" y1="0%" x2="100%" y2="100%">
            <stop offset="0%" stop-color="#2ecc71" />
            <stop offset="100%" stop-color="#27ae60" />
        </linearGradient>

        <linearGradient id="sichuan-pepper-gradient" x1="0%" y1="0%" x2="100%" y2="100%">
            <stop offset="0%" stop-color="#c0392b" />
            <stop offset="100%" stop-color="#922b21" />
        </linearGradient>

        <linearGradient id="money-gradient" x1="0%" y1="0%" x2="100%" y2="100%">
            <stop offset="0%" stop-color="#2ecc71" />
            <stop offset="100%" stop-color="#27ae60" />
        </linearGradient>

        <!-- Path for curved text at bottom -->
        <path id="curved-text-path" d="M200,350 Q600,280 1000,350" fill="none" />

        <!-- Garlic -->
        <path id="garlic" d="M50,0 C65,10 80,30 70,60 C60,90 40,90 30,60 C20,30 35,10 50,0 Z" />
        <path id="garlic-clove" d="M0,0 C10,-5 20,-5 30,0 C35,10 35,25 30,35 C20,45 10,45 0,35 C-5,25 -5,10 0,0 Z" />

        <!-- Turmeric -->
        <path id="turmeric" d="M10,30 C0,15 10,0 25,0 C40,0 50,15 40,30 L40,80 C50,95 40,110 25,110 C10,110 0,95 10,80 Z" />

        <!-- Chili Pepper -->
        <path id="chili-pepper" d="M40,0 C50,-5 60,5 55,15 L60,20 C90,30 90,80 60,100 C30,80 30,30 60,20 L50,10 C45,5 30,5 40,0 Z" />

        <!-- Ginger -->
        <path id="ginger" d="M20,20 L10,35 L20,50 L40,60 L60,50 L70,30 L60,10 L45,5 Z" />

        <!-- Coriander -->
        <path id="coriander" d="M50,0 C70,20 50,40 60,60 L40,70 L20,60 C30,40 10,20 30,0 Z" />

        <!-- Sichuan Pepper -->
        <path id="sichuan-pepper" d="M30,0 C20,10 5,15 0,30 C5,45 20,50 30,60 C40,50 55,45 60,30 C55,15 40,10 30,0 Z" />

        <!-- Mortar and Pestle -->
        <path id="mortar" d="M10,40 C0,60 0,100 50,100 C100,100 100,60 90,40 L80,50 L20,50 Z" />
        <path id="pestle" d="M30,0 L50,0 L55,40 L25,40 Z" />

        <!-- Spice sack -->
        <path id="spice-sack" d="M10,30 C0,20 0,0 25,0 C50,0 50,20 40,30 L40,90 C40,110 10,110 10,90 Z" />

        <!-- Rupee symbol -->
        <path id="rupee-symbol" d="M0,0 L30,0 L30,10 L20,10 L30,30 L0,30 L0,20 L10,20 L0,0 Z" />

        <!-- Market stall -->
        <path id="market-stall" d="M0,20 L100,20 L90,0 L10,0 Z M10,20 L10,70 L90,70 L90,20 Z M0,20 L0,80 L100,80 L100,20 Z" />

        <!-- Farmer -->
        <path id="farmer" d="M25,10 C25,4.5 29.5,0 35,0 C40.5,0 45,4.5 45,10 C45,15.5 40.5,20 35,20 C29.5,20 25,15.5 25,10 Z M15,45 C15,25 55,25 55,45 L55,80 L45,80 L45,60 L35,80 L25,60 L25,80 L15,80 Z" />

        <!-- Field/Spice garden -->
        <path id="spice-garden" d="M0,0 L100,0 L100,60 L0,60 Z" />

        <!-- Pie chart segment -->
        <path id="pie-segment-25" d="M50,50 L50,0 A50,50 0 0,1 85,15 Z" />
        <path id="pie-segment-50" d="M50,50 L50,0 A50,50 0 0,1 100,50 Z" />
        <path id="pie-segment-75" d="M50,50 L50,0 A50,50 0 0,1 50,100 Z" />

        <!-- Spice type bubble -->
        <path id="spice-bubble" d="M0,0 Q5,-15 20,-15 L80,-15 Q95,-15 100,0 L100,40 Q100,55 85,55 L60,55 L45,70 L30,55 L15,55 Q0,55 0,40 Z" />

        <!-- Grid pattern for background -->
        <pattern id="grid-pattern" x="0" y="0" width="40" height="40" patternUnits="userSpaceOnUse">
            <path d="M0,0 L40,0 L40,40 L0,40 Z" fill="none" stroke="#1e293b" stroke-width="0.5" opacity="0.3" />
        </pattern>

        <!-- Leaf pattern -->
        <path id="leaf" d="M0,10 C5,-5 15,-5 20,10 C15,15 5,15 0,10 Z" />
    </defs>

    <!-- Background with gradient and grid -->
    <rect width="1200" height="400" fill="url(#bg-gradient)" />
    <rect width="1200" height="400" fill="url(#grid-pattern)" />

    <!-- Decorative elements -->
    <g opacity="0.1">
        <circle cx="150" cy="80" r="40" fill="white" />
        <circle cx="1050" cy="100" r="50" fill="white" />
        <circle cx="600" cy="50" r="30" fill="white" />
        <circle cx="100" cy="320" r="35" fill="white" />
        <circle cx="1100" cy="300" r="45" fill="white" />
    </g>

    <!-- Animated clouds -->
    <g opacity="0.3">
        <path d="M100,70 Q120,50 150,60 Q170,40 200,50 Q220,30 250,50 Q230,70 200,65 Q180,75 150,70 Q130,80 100,70 Z" fill="white">
            <animate attributeName="d" values="M100,70 Q120,50 150,60 Q170,40 200,50 Q220,30 250,50 Q230,70 200,65 Q180,75 150,70 Q130,80 100,70 Z;
                                        M110,70 Q130,50 160,60 Q180,40 210,50 Q230,30 260,50 Q240,70 210,65 Q190,75 160,70 Q140,80 110,70 Z;
                                        M100,70 Q120,50 150,60 Q170,40 200,50 Q220,30 250,50 Q230,70 200,65 Q180,75 150,70 Q130,80 100,70 Z" dur="20s" repeatCount="indefinite" />
        </path>

        <path d="M700,50 Q730,30 760,45 Q780,20 810,40 Q790,60 760,55 Q740,65 700,50 Z" fill="white">
            <animate attributeName="d" values="M700,50 Q730,30 760,45 Q780,20 810,40 Q790,60 760,55 Q740,65 700,50 Z;
                                        M710,50 Q740,30 770,45 Q790,20 820,40 Q800,60 770,55 Q750,65 710,50 Z;
                                        M700,50 Q730,30 760,45 Q780,20 810,40 Q790,60 760,55 Q740,65 700,50 Z" dur="15s" repeatCount="indefinite" />
        </path>

        <path d="M400,90 Q430,60 460,80 Q480,50 510,70 Q490,100 460,90 Q440,110 400,90 Z" fill="white">
            <animate attributeName="d" values="M400,90 Q430,60 460,80 Q480,50 510,70 Q490,100 460,90 Q440,110 400,90 Z;
                                        M390,90 Q420,60 450,80 Q470,50 500,70 Q480,100 450,90 Q430,110 390,90 Z;
                                        M400,90 Q430,60 460,80 Q480,50 510,70 Q490,100 460,90 Q440,110 400,90 Z" dur="18s" repeatCount="indefinite" />
        </path>
    </g>

    <!-- Sun -->
    <g transform="translate(900, 60)">
        <circle cx="0" cy="0" r="30" fill="#f39c12" opacity="0.7" />
        <g opacity="0.7">
            <path d="M0,-40 L0,-35 M28,-28 L25,-25 M40,0 L35,0 M28,28 L25,25 M0,40 L0,35 M-28,28 L-25,25 M-40,0 L-35,0 M-28,-28 L-25,-25" stroke="#f39c12" stroke-width="3" />
        </g>
    </g>

    <!-- Main spices visualization section -->
    <!-- Garlic -->
    <g transform="translate(100, 100)">
        <g transform="scale(0.8)">
            <use href="#garlic" fill="url(#garlic-gradient)" />
            <!-- Garlic details -->
            <use href="#garlic-clove" transform="translate(35, 30) scale(0.5)" fill="white" opacity="0.7" />
            <use href="#garlic-clove" transform="translate(45, 40) scale(0.5)" fill="white" opacity="0.7" />
            <use href="#garlic-clove" transform="translate(55, 30) scale(0.5)" fill="white" opacity="0.7" />
        </g>
        <g transform="translate(10, 90) scale(1)">
            <use href="#spice-bubble" fill="url(#garlic-gradient)" />
            <text x="50" y="25" font-family="Arial" font-size="14" fill="white" text-anchor="middle">लसुन</text>
        </g>
    </g>

    <!-- Turmeric -->
    <g transform="translate(240, 100)">
        <g transform="scale(0.8)">
            <use href="#turmeric" fill="url(#turmeric-gradient)" />
            <!-- Turmeric details -->
            <path d="M25,30 C35,40 35,50 25,60" stroke="#f1c40f" stroke-width="2" fill="none" />
            <path d="M25,50 L35,50" stroke="#f1c40f" stroke-width="2" />
            <use href="#leaf" fill="#2ecc71" transform="translate(10, 20) rotate(-30) scale(0.7)" />
        </g>
        <g transform="translate(10, 90) scale(1)">
            <use href="#spice-bubble" fill="url(#turmeric-gradient)" />
            <text x="50" y="25" font-family="Arial" font-size="14" fill="white" text-anchor="middle">बेसार</text>
        </g>
    </g>

    <!-- Chili Pepper -->
    <g transform="translate(380, 100)">
        <g transform="scale(0.8)">
            <use href="#chili-pepper" fill="url(#chili-pepper-gradient)" />
            <!-- Chili Pepper details -->
            <path d="M60,30 C70,40 75,50 70,60" stroke="#c0392b" stroke-width="1" fill="none" />
            <use href="#leaf" fill="#2ecc71" transform="translate(70, 15) rotate(30) scale(0.7)" />
        </g>
        <g transform="translate(10, 90) scale(1)">
            <use href="#spice-bubble" fill="url(#chili-pepper-gradient)" />
            <text x="50" y="25" font-family="Arial" font-size="14" fill="white" text-anchor="middle">खुर्सानी</text>
        </g>
    </g>

    <!-- Ginger -->
    <g transform="translate(520, 100)">
        <g transform="scale(1.2)">
            <use href="#ginger" fill="url(#ginger-gradient)" />
            <!-- Ginger details -->
            <path d="M30,20 L40,30 L50,25" stroke="#d35400" stroke-width="1" fill="none" />
            <path d="M25,30 L35,40 L45,35" stroke="#d35400" stroke-width="1" fill="none" />
            <use href="#leaf" fill="#2ecc71" transform="translate(60, 15) rotate(45) scale(0.7)" />
        </g>
        <g transform="translate(10, 90) scale(1)">
            <use href="#spice-bubble" fill="url(#ginger-gradient)" />
            <text x="50" y="25" font-family="Arial" font-size="14" fill="white" text-anchor="middle">अदुवा</text>
        </g>
    </g>

    <!-- Coriander -->
    <g transform="translate(660, 100)">
        <g transform="scale(0.8)">
            <use href="#coriander" fill="url(#coriander-gradient)" />
            <!-- Coriander details -->
            <use href="#leaf" fill="#27ae60" transform="translate(20, 10) rotate(-30) scale(0.7)" />
            <use href="#leaf" fill="#27ae60" transform="translate(40, 5) rotate(0) scale(0.7)" />
            <use href="#leaf" fill="#27ae60" transform="translate(60, 10) rotate(30) scale(0.7)" />
        </g>
        <g transform="translate(10, 90) scale(1)">
            <use href="#spice-bubble" fill="url(#coriander-gradient)" />
            <text x="50" y="25" font-family="Arial" font-size="14" fill="white" text-anchor="middle">धनिया</text>
        </g>
    </g>

    <!-- Sichuan Pepper -->
    <g transform="translate(800, 100)">
        <g transform="scale(1)">
            <use href="#sichuan-pepper" fill="url(#sichuan-pepper-gradient)" />
            <!-- Sichuan Pepper details -->
            <circle cx="30" cy="30" r="15" fill="none" stroke="#922b21" stroke-width="1" />
            <use href="#leaf" fill="#2ecc71" transform="translate(55, 10) rotate(45) scale(0.7)" />
        </g>
        <g transform="translate(10, 90) scale(1)">
            <use href="#spice-bubble" fill="url(#sichuan-pepper-gradient)" />
            <text x="50" y="25" font-family="Arial" font-size="14" fill="white" text-anchor="middle">टिमुर</text>
        </g>
    </g>

    <!-- Other spices -->
    <g transform="translate(940, 100)">
        <g transform="scale(0.8)">
            <rect x="10" y="10" width="80" height="80" rx="5" fill="#7f8c8d" />
            <!-- Other spices details -->
            <circle cx="30" cy="30" r="10" fill="#95a5a6" />
            <circle cx="70" cy="30" r="8" fill="#95a5a6" />
            <circle cx="30" cy="70" r="8" fill="#95a5a6" />
            <circle cx="70" cy="70" r="10" fill="#95a5a6" />
        </g>
        <g transform="translate(10, 90) scale(1)">
            <use href="#spice-bubble" fill="#7f8c8d" />
            <text x="50" y="25" font-family="Arial" font-size="14" fill="white" text-anchor="middle">अन्य</text>
        </g>
    </g>

    <!-- Production and sales visualization -->
    <!-- Production pie chart -->
    <g transform="translate(200, 230)">
        <circle cx="60" cy="60" r="50" fill="#212f3d" stroke="#fff" stroke-width="1" opacity="0.8" />
        <!-- Pie segments (representing different spices) -->
        <path d="M60,60 L60,10 A50,50 0 0,1 107,77 Z" fill="url(#garlic-gradient)" />
        <!-- Garlic: 55% -->
        <path d="M60,60 L107,77 A50,50 0 0,1 80,106 Z" fill="url(#chili-pepper-gradient)" />
        <!-- Chili Pepper: 15% -->
        <path d="M60,60 L80,106 A50,50 0 0,1 22,85 Z" fill="url(#coriander-gradient)" />
        <!-- Coriander: 20% -->
        <path d="M60,60 L22,85 A50,50 0 0,1 60,10 Z" fill="#7f8c8d" />
        <!-- Others: 10% -->

        <circle cx="60" cy="60" r="20" fill="#212f3d" />
        <text x="60" y="65" font-family="Arial" font-size="10" fill="white" text-anchor="middle">उत्पादन</text>
    </g>

    <!-- Sales pie chart -->
    <g transform="translate(400, 230)">
        <circle cx="60" cy="60" r="50" fill="#212f3d" stroke="#fff" stroke-width="1" opacity="0.8" />
        <!-- Pie segments (representing different spices) -->
        <path d="M60,60 L60,10 A50,50 0 0,1 110,60 Z" fill="url(#garlic-gradient)" />
        <!-- Garlic: 25% -->
        <path d="M60,60 L110,60 A50,50 0 0,1 60,110 Z" fill="url(#chili-pepper-gradient)" />
        <!-- Chili Pepper: 25% -->
        <path d="M60,60 L60,110 A50,50 0 0,1 10,60 Z" fill="url(#coriander-gradient)" />
        <!-- Coriander: 25% -->
        <path d="M60,60 L10,60 A50,50 0 0,1 60,10 Z" fill="#7f8c8d" />
        <!-- Others: 25% -->

        <circle cx="60" cy="60" r="20" fill="#212f3d" />
        <text x="60" y="65" font-family="Arial" font-size="10" fill="white" text-anchor="middle">बिक्री</text>
    </g>

    <!-- Revenue chart -->
    <g transform="translate(600, 230)">
        <rect x="20" y="20" width="30" height="80" fill="url(#garlic-gradient)" />
        <rect x="60" y="40" width="30" height="60" fill="url(#chili-pepper-gradient)" />
        <rect x="100" y="70" width="30" height="30" fill="url(#coriander-gradient)" />

        <text x="35" y="110" font-family="Arial" font-size="10" fill="white" text-anchor="middle">लसुन</text>
        <text x="75" y="110" font-family="Arial" font-size="10" fill="white" text-anchor="middle">खुर्सानी</text>
        <text x="115" y="110" font-family="Arial" font-size="10" fill="white" text-anchor="middle">धनिया</text>

        <text x="75" y="130" font-family="Arial" font-size="14" fill="white" text-anchor="middle">आम्दानी (रु)</text>
    </g>

    <!-- Self-consumption vs. Sales visualization -->
    <g transform="translate(800, 230)">
        <rect x="20" y="20" width="120" height="30" fill="#3498db" opacity="0.8" />
        <rect x="20" y="60" width="60" height="30" fill="#2ecc71" opacity="0.8" />

        <text x="80" y="40" font-family="Arial" font-size="12" fill="white" text-anchor="middle">कुल उत्पादन</text>
        <text x="50" y="80" font-family="Arial" font-size="12" fill="white" text-anchor="middle">बिक्री</text>

        <path d="M20,110 L140,110" stroke="white" stroke-width="1" />
        <text x="80" y="130" font-family="Arial" font-size="14" fill="white" text-anchor="middle">उपभोग / बिक्री अनुपात</text>
    </g>

    <!-- Farmers & Market Icons -->
    <g transform="translate(80, 270) scale(0.7)">
        <use href="#farmer" fill="#3498db" />
    </g>

    <g transform="translate(130, 270) scale(0.7)">
        <use href="#farmer" fill="#2ecc71" />
    </g>

    <!-- Arrow showing flow from farmers to market -->
    <path d="M160,290 L190,290" stroke="#e67e22" stroke-width="3" marker-end="url(#arrowhead)" />

    <!-- Define arrowhead marker -->
    <defs>
        <marker id="arrowhead" markerWidth="10" markerHeight="7" refX="9" refY="3.5" orient="auto">
            <polygon points="0 0, 10 3.5, 0 7" fill="#e67e22" />
        </marker>
    </defs>

    <!-- Market stall -->
    <g transform="translate(200, 270) scale(0.5)">
        <use href="#market-stall" fill="#d35400" />
        <rect x="20" y="30" width="20" height="30" fill="url(#garlic-gradient)" />
        <rect x="50" y="30" width="20" height="30" fill="url(#chili-pepper-gradient)" />
        <rect x="80" y="30" width="10" height="10" fill="url(#coriander-gradient)" />
    </g>

    <!-- Arrow showing flow from market to money -->
    <path d="M260,290 L290,290" stroke="#e67e22" stroke-width="3" marker-end="url(#arrowhead)" />

    <!-- Money/Revenue -->
    <g transform="translate(300, 270) scale(0.8)">
        <circle cx="25" cy="25" r="25" fill="url(#money-gradient)" />
        <text x="25" y="35" font-family="Arial" font-size="30" font-weight="bold" fill="white" text-anchor="middle">रु</text>
    </g>

    <!-- Flavor strength indicator -->
    <g transform="translate(450, 270)">
        <text x="0" y="20" font-family="Arial" font-size="14" fill="white">स्वाद र सुगन्ध</text>
        <rect x="0" y="30" width="300" height="20" rx="10" fill="#1e293b" opacity="0.8" />
        <rect x="0" y="30" width="270" height="20" rx="10" fill="#e74c3c" opacity="0.8" />
        <!-- 90% flavor strength -->
        <text x="150" y="45" font-family="Arial" font-size="12" fill="white" text-anchor="middle">उच्च स्वाद र सुगन्ध</text>
    </g>

    <!-- Commercialization indicator -->
    <g transform="translate(450, 320)">
        <text x="0" y="0" font-family="Arial" font-size="14" fill="white">व्यावसायीकरण स्कोर</text>
        <rect x="0" y="10" width="300" height="20" rx="10" fill="#1e293b" opacity="0.8" />
        <rect x="0" y="10" width="60" height="20" rx="10" fill="#2ecc71" opacity="0.8" />
        <!-- 20% commercialized -->
        <text x="150" y="25" font-family="Arial" font-size="12" fill="white" text-anchor="middle">२०%</text>
    </g>

    <!-- Spice processing visualization -->
    <g transform="translate(870, 230)">
        <g transform="translate(30, 10) scale(0.8)">
            <use href="#mortar" fill="#7f8c8d" />
            <use href="#pestle" fill="#95a5a6" transform="translate(10, 10)" />
            <ellipse cx="50" cy="80" rx="20" ry="5" fill="#e67e22" opacity="0.8" />
        </g>
        <text x="80" y="110" font-family="Arial" font-size="14" fill="white" text-anchor="middle">प्रशोधन</text>
    </g>

    <!-- Spice gardens visualization -->
    <g transform="translate(1000, 230)">
        <!-- Spice plants -->
        <rect x="10" y="40" width="140" height="10" fill="#795548" opacity="0.6" />

        <g transform="translate(20, 0) scale(0.4)">
            <use href="#garlic" fill="url(#garlic-gradient)" />
        </g>

        <g transform="translate(60, 0) scale(0.4)">
            <use href="#chili-pepper" fill="url(#chili-pepper-gradient)" />
        </g>

        <g transform="translate(100, 0) scale(0.4)">
            <use href="#coriander" fill="url(#coriander-gradient)" />
        </g>

        <g transform="translate(140, 0) scale(0.4)">
            <use href="#turmeric" fill="url(#turmeric-gradient)" />
        </g>
    </g>

    <!-- Spice sacks representing harvested spices -->
    <g transform="translate(1000, 290) scale(0.4)">
        <use href="#spice-sack" fill="url(#garlic-gradient)" />
    </g>

    <g transform="translate(1030, 290) scale(0.4)">
        <use href="#spice-sack" fill="url(#chili-pepper-gradient)" />
    </g>

    <g transform="translate(1060, 290) scale(0.4)">
        <use href="#spice-sack" fill="url(#coriander-gradient)" />
    </g>

    <g transform="translate(1090, 290) scale(0.4)">
        <use href="#spice-sack" fill="url(#ginger-gradient)" />
    </g>

    <!-- Medicinal value indicator -->
    <g transform="translate(1000, 250)">
        <text x="0" y="0" font-family="Arial" font-size="12" fill="white">औषधीय मूल्य</text>
        <rect x="0" y="10" width="150" height="10" rx="5" fill="#1e293b" opacity="0.8" />
        <rect x="0" y="10" width="140" height="10" rx="5" fill="#e67e22" opacity="0.8" />
        <!-- 95% medicinal value -->
    </g>

    <!-- Animated spice powder floating effect -->
    <g transform="translate(150, 320)" opacity="0.6">
        <circle cx="0" cy="0" r="5" fill="url(#garlic-gradient)">
            <animate attributeName="cy" values="0;-10;0" dur="3s" repeatCount="indefinite" />
        </circle>
    </g>

    <g transform="translate(300, 330)" opacity="0.6">
        <circle cx="0" cy="0" r="4" fill="url(#chili-pepper-gradient)">
            <animate attributeName="cy" values="0;-8;0" dur="2.5s" repeatCount="indefinite" />
        </circle>
    </g>

    <g transform="translate(650, 340)" opacity="0.6">
        <circle cx="0" cy="0" r="6" fill="url(#turmeric-gradient)">
            <animate attributeName="cy" values="0;-12;0" dur="3.5s" repeatCount="indefinite" />
        </circle>
    </g>

    <g transform="translate(850, 310)" opacity="0.6">
        <circle cx="0" cy="0" r="3" fill="url(#coriander-gradient)">
            <animate attributeName="cy" values="0;-7;0" dur="4s" repeatCount="indefinite" />
        </circle>
    </g>

    <!-- Title text at bottom -->
    <text font-family="Arial" font-size="24" fill="white" text-anchor="middle" font-weight="bold">
        <textPath href="#curved-text-path" startOffset="50%">मसलाबालीको प्रकार अनुसार उत्पादन र बिक्री</textPath>
    </text>
</svg>
